<svg width="728" height="440" viewBox="0 0 728 440" fill="none" xmlns="http://www.w3.org/2000/svg">
<g clip-path="url(#clip0)">
<path opacity="0.1" d="M720.32 409.888C717.505 416.816 714.044 423.465 709.983 429.744C708.075 432.739 705.984 435.613 703.721 438.35L703.651 438.432H3.52783L3.65383 438.344C4.2838 437.852 7.98176 434.86 13.7334 429.738C17.8598 426.059 23.0382 421.284 28.8529 415.538C76.4097 368.763 167.762 258.044 91.6803 156.618C20.953 62.3299 97.1044 45.2135 147.339 43.2227C166.641 42.4734 185.896 45.6208 203.955 52.4771C227.157 61.2967 269.573 74.8223 324.834 81.015C326.649 81.2208 328.48 81.4182 330.328 81.6072C359.585 84.5838 389.04 85.1169 418.386 83.201C419.249 83.1569 420.118 83.0939 420.994 83.0309C450.024 80.9871 478.834 76.5282 507.124 69.7006C508.957 69.2533 510.765 68.8313 512.567 68.4407C606.83 46.6309 693.729 120.962 672.008 204.969C663.969 236.033 666.01 269.157 692.797 295.944C736.612 339.689 731.276 382.754 720.32 409.888Z" fill="#33D69F"/>
<path d="M571.407 174.518C573.792 170.252 573.085 165.316 569.826 163.494C566.568 161.672 561.992 163.654 559.607 167.921C557.221 172.188 557.929 177.123 561.187 178.945C564.446 180.767 569.021 178.785 571.407 174.518Z" fill="#3F3D56"/>
<path d="M576.683 165.075C579.069 160.808 578.361 155.873 575.103 154.051C571.844 152.229 567.269 154.211 564.883 158.477C562.497 162.744 563.205 167.68 566.464 169.502C569.722 171.324 574.298 169.342 576.683 165.075Z" fill="#3F3D56"/>
<path d="M581.965 155.635C584.35 151.368 583.643 146.433 580.384 144.611C577.126 142.789 572.55 144.771 570.165 149.038C567.779 153.304 568.487 158.24 571.745 160.062C575.004 161.884 579.579 159.902 581.965 155.635Z" fill="#3F3D56"/>
<path d="M587.242 146.186C589.627 141.919 588.92 136.983 585.661 135.161C582.403 133.34 577.827 135.322 575.442 139.588C573.056 143.855 573.764 148.791 577.022 150.613C580.281 152.435 584.856 150.453 587.242 146.186Z" fill="#3F3D56"/>
<path d="M592.515 136.748C594.901 132.481 594.193 127.546 590.935 125.724C587.676 123.902 583.101 125.884 580.715 130.151C578.329 134.417 579.037 139.353 582.296 141.175C585.554 142.997 590.13 141.015 592.515 136.748Z" fill="#3F3D56"/>
<path d="M597.798 127.305C600.183 123.038 599.476 118.102 596.217 116.281C592.959 114.459 588.383 116.441 585.998 120.707C583.612 124.974 584.32 129.91 587.578 131.732C590.837 133.554 595.412 131.572 597.798 127.305Z" fill="#3F3D56"/>
<path d="M603.08 117.865C605.465 113.598 604.757 108.662 601.499 106.84C598.24 105.019 593.665 107.001 591.279 111.267C588.894 115.534 589.601 120.47 592.86 122.292C596.119 124.114 600.694 122.132 603.08 117.865Z" fill="#3F3D56"/>
<path d="M655.364 62.2858C656.743 61.7095 658.082 61.0402 659.371 60.2825L645.291 49.0626L661.979 58.5626C665.543 55.9615 668.54 52.6606 670.785 48.8619C673.031 45.0632 674.478 40.8464 675.038 36.4694L646.015 35.5622L675.29 31.9146C675.256 27.4488 674.298 23.0382 672.478 18.9601C670.657 14.8821 668.013 11.2246 664.711 8.2176C661.409 5.21056 657.52 2.91894 653.29 1.48672C649.06 0.0544915 644.58 -0.48738 640.13 -0.104853C635.68 0.277675 631.358 1.57633 627.434 3.70953C623.511 5.84272 620.071 8.76435 617.33 12.2908C614.59 15.8173 612.609 19.8724 611.511 24.2014C610.413 28.5304 610.222 33.0396 610.951 37.4458C608.802 38.3414 606.755 39.465 604.846 40.7973L619.14 62.5063L601.709 43.3046C597.71 46.9157 594.675 51.4672 592.879 56.5471C591.082 61.6269 590.581 67.0747 591.421 72.3969C585.813 74.7339 580.974 78.6018 577.46 83.5587C573.946 88.5155 571.897 94.3611 571.548 100.427C571.199 106.493 572.564 112.535 575.487 117.863C578.41 123.19 582.772 127.587 588.076 130.552C593.38 133.516 599.411 134.929 605.48 134.628C611.549 134.327 617.41 132.324 622.395 128.849C627.379 125.374 631.285 120.567 633.666 114.976C636.047 109.386 636.808 103.239 635.86 97.2368C642.563 94.4452 648.133 89.481 651.675 83.1422C655.217 76.8033 656.525 69.4577 655.389 62.2858H655.364Z" fill="#33D69F"/>
<path opacity="0.1" d="M595.113 51.5384C591.573 57.8785 590.272 65.2267 591.421 72.3969C585.813 74.7338 580.974 78.6018 577.46 83.5586C573.946 88.5154 571.897 94.361 571.548 100.427C571.199 106.493 572.564 112.535 575.487 117.863C578.41 123.19 582.772 127.587 588.076 130.552C593.38 133.516 599.411 134.929 605.48 134.628C611.549 134.327 617.41 132.324 622.395 128.849C627.379 125.374 631.285 120.567 633.666 114.976C636.047 109.386 636.808 103.239 635.86 97.2368C642.305 94.5468 596.89 48.3885 595.113 51.5384Z" fill="black"/>
<path d="M637.151 398H644.78C648.957 398 652.963 399.659 655.917 402.613C658.87 405.566 660.53 409.572 660.53 413.749V437.128H621.402V413.749C621.402 409.572 623.061 405.566 626.015 402.613C628.968 399.659 632.974 398 637.151 398Z" fill="#3F3D56"/>
<path opacity="0.1" d="M637.151 398H644.78C648.957 398 652.963 399.659 655.917 402.613C658.87 405.566 660.53 409.572 660.53 413.749V437.128H621.402V413.749C621.402 409.572 623.061 405.566 626.015 402.613C628.968 399.659 632.974 398 637.151 398Z" fill="black"/>
<path d="M639.406 406.612C641.136 406.612 642.537 405.21 642.537 403.481C642.537 401.751 641.136 400.35 639.406 400.35C637.677 400.35 636.275 401.751 636.275 403.481C636.275 405.21 637.677 406.612 639.406 406.612Z" fill="#3F3D56"/>
<path d="M639.406 402.699C641.136 402.699 642.537 401.298 642.537 399.569C642.537 397.839 641.136 396.438 639.406 396.438C637.677 396.438 636.275 397.839 636.275 399.569C636.275 401.298 637.677 402.699 639.406 402.699Z" fill="#3F3D56"/>
<path d="M639.406 398.781C641.136 398.781 642.537 397.379 642.537 395.65C642.537 393.921 641.136 392.519 639.406 392.519C637.677 392.519 636.275 393.921 636.275 395.65C636.275 397.379 637.677 398.781 639.406 398.781Z" fill="#3F3D56"/>
<path d="M639.406 394.869C641.136 394.869 642.537 393.467 642.537 391.738C642.537 390.009 641.136 388.607 639.406 388.607C637.677 388.607 636.275 390.009 636.275 391.738C636.275 393.467 637.677 394.869 639.406 394.869Z" fill="#3F3D56"/>
<path d="M639.406 390.957C641.136 390.957 642.537 389.555 642.537 387.826C642.537 386.097 641.136 384.695 639.406 384.695C637.677 384.695 636.275 386.097 636.275 387.826C636.275 389.555 637.677 390.957 639.406 390.957Z" fill="#3F3D56"/>
<path d="M639.406 387.044C641.136 387.044 642.537 385.643 642.537 383.913C642.537 382.184 641.136 380.782 639.406 380.782C637.677 380.782 636.275 382.184 636.275 383.913C636.275 385.643 637.677 387.044 639.406 387.044Z" fill="#3F3D56"/>
<path d="M639.406 383.132C641.136 383.132 642.537 381.731 642.537 380.001C642.537 378.272 641.136 376.87 639.406 376.87C637.677 376.87 636.275 378.272 636.275 380.001C636.275 381.731 637.677 383.132 639.406 383.132Z" fill="#3F3D56"/>
<path d="M644.1 384.695C645.829 384.695 647.231 383.293 647.231 381.564C647.231 379.835 645.829 378.433 644.1 378.433C642.371 378.433 640.969 379.835 640.969 381.564C640.969 383.293 642.371 384.695 644.1 384.695Z" fill="#3F3D56"/>
<path d="M647.231 383.132C648.96 383.132 650.362 381.731 650.362 380.001C650.362 378.272 648.96 376.87 647.231 376.87C645.501 376.87 644.1 378.272 644.1 380.001C644.1 381.731 645.501 383.132 647.231 383.132Z" fill="#3F3D56"/>
<path d="M650.362 381.564C652.091 381.564 653.493 380.162 653.493 378.433C653.493 376.704 652.091 375.302 650.362 375.302C648.633 375.302 647.231 376.704 647.231 378.433C647.231 380.162 648.633 381.564 650.362 381.564Z" fill="#3F3D56"/>
<path d="M639.406 379.22C641.136 379.22 642.537 377.818 642.537 376.089C642.537 374.36 641.136 372.958 639.406 372.958C637.677 372.958 636.275 374.36 636.275 376.089C636.275 377.818 637.677 379.22 639.406 379.22Z" fill="#3F3D56"/>
<path d="M639.406 375.308C641.136 375.308 642.537 373.906 642.537 372.177C642.537 370.448 641.136 369.046 639.406 369.046C637.677 369.046 636.275 370.448 636.275 372.177C636.275 373.906 637.677 375.308 639.406 375.308Z" fill="#3F3D56"/>
<path d="M639.406 371.39C641.136 371.39 642.537 369.988 642.537 368.259C642.537 366.529 641.136 365.128 639.406 365.128C637.677 365.128 636.275 366.529 636.275 368.259C636.275 369.988 637.677 371.39 639.406 371.39Z" fill="#3F3D56"/>
<path d="M639.406 367.478C641.136 367.478 642.537 366.076 642.537 364.347C642.537 362.617 641.136 361.216 639.406 361.216C637.677 361.216 636.275 362.617 636.275 364.347C636.275 366.076 637.677 367.478 639.406 367.478Z" fill="#3F3D56"/>
<path d="M652.384 354.254C651.607 354.368 650.826 354.45 650.041 354.5C650.767 353.866 651.441 353.175 652.056 352.434C651.623 351.118 650.985 349.879 650.167 348.761C649.39 349.197 648.532 349.469 647.647 349.561C646.872 349.674 646.091 349.756 645.309 349.807C646.361 348.809 647.36 347.758 648.302 346.657C646.043 344.61 643.15 343.401 640.107 343.234C637.064 343.066 634.055 343.949 631.585 345.735C629.116 347.521 627.335 350.102 626.541 353.045C625.747 355.987 625.989 359.114 627.226 361.899C628.463 364.685 630.619 366.961 633.334 368.346C636.049 369.732 639.158 370.142 642.139 369.508C645.121 368.874 647.793 367.235 649.71 364.865C651.627 362.495 652.671 359.539 652.668 356.491C652.668 355.724 652.6 354.959 652.466 354.204L652.384 354.254Z" fill="#33D69F"/>
<path d="M662.841 369.808C662.042 370.299 661.142 370.601 660.208 370.69C659.433 370.804 658.652 370.886 657.871 370.936C658.701 370.191 659.476 369.387 660.189 368.529C659.535 368.358 658.862 368.269 658.186 368.265C656.323 368.261 654.519 368.922 653.099 370.128C651.679 371.334 650.734 373.006 650.436 374.846C650.137 376.685 650.504 378.57 651.469 380.164C652.435 381.757 653.937 382.954 655.705 383.541C657.474 384.127 659.393 384.064 661.12 383.363C662.846 382.662 664.266 381.369 665.125 379.716C665.984 378.062 666.226 376.157 665.808 374.341C665.389 372.526 664.338 370.919 662.841 369.808Z" fill="#33D69F"/>
<path d="M634.707 384.695C636.436 384.695 637.838 383.293 637.838 381.564C637.838 379.835 636.436 378.433 634.707 378.433C632.977 378.433 631.576 379.835 631.576 381.564C631.576 383.293 632.977 384.695 634.707 384.695Z" fill="#3F3D56"/>
<path d="M631.576 383.132C633.305 383.132 634.707 381.731 634.707 380.001C634.707 378.272 633.305 376.87 631.576 376.87C629.847 376.87 628.445 378.272 628.445 380.001C628.445 381.731 629.847 383.132 631.576 383.132Z" fill="#3F3D56"/>
<path d="M628.451 381.564C630.181 381.564 631.582 380.162 631.582 378.433C631.582 376.704 630.181 375.302 628.451 375.302C626.722 375.302 625.32 376.704 625.32 378.433C625.32 380.162 626.722 381.564 628.451 381.564Z" fill="#3F3D56"/>
<path d="M615.991 369.808C616.79 370.299 617.69 370.601 618.624 370.69C619.399 370.804 620.18 370.886 620.961 370.936C620.131 370.191 619.356 369.387 618.643 368.529C619.297 368.358 619.97 368.269 620.646 368.265C622.509 368.261 624.313 368.922 625.733 370.128C627.153 371.334 628.097 373.006 628.396 374.846C628.695 376.685 628.328 378.57 627.363 380.164C626.397 381.757 624.895 382.954 623.127 383.541C621.358 384.127 619.439 384.064 617.712 383.363C615.986 382.662 614.566 381.369 613.707 379.716C612.848 378.062 612.605 376.157 613.024 374.341C613.443 372.526 614.494 370.919 615.991 369.808Z" fill="#33D69F"/>
<path d="M637.151 400.35H644.78C648.957 400.35 652.963 402.009 655.917 404.962C658.87 407.916 660.53 411.922 660.53 416.099V436.806C660.53 437.515 660.248 438.194 659.747 438.695C659.246 439.196 658.567 439.477 657.859 439.477H624.073C623.365 439.477 622.685 439.196 622.184 438.695C621.683 438.194 621.402 437.515 621.402 436.806V416.099C621.402 411.922 623.061 407.916 626.015 404.962C628.968 402.009 632.974 400.35 637.151 400.35Z" fill="#3F3D56"/>
<g opacity="0.1">
<path opacity="0.1" d="M652.623 355.111C652.307 355.453 651.968 355.773 651.609 356.068C651.968 356.068 652.327 356.012 652.68 355.974C652.667 355.684 652.655 355.394 652.623 355.111Z" fill="black"/>
<path opacity="0.1" d="M646.916 351.369C647.697 351.318 648.478 351.237 649.253 351.123C649.954 351.037 650.64 350.851 651.288 350.569C650.968 349.94 650.601 349.335 650.191 348.761C649.8 348.999 649.375 349.18 648.931 349.296C648.314 350.038 647.64 350.731 646.916 351.369Z" fill="black"/>
<path opacity="0.1" d="M627.663 358.091C627.659 355.702 628.298 353.357 629.515 351.301C630.731 349.246 632.479 347.557 634.575 346.411C636.671 345.266 639.037 344.707 641.424 344.794C643.811 344.88 646.13 345.609 648.138 346.902L648.339 346.688C647.029 345.522 645.501 344.628 643.843 344.055C642.186 343.482 640.431 343.243 638.681 343.352C636.931 343.46 635.219 343.914 633.645 344.687C632.07 345.46 630.665 346.537 629.509 347.856C628.352 349.174 627.469 350.709 626.908 352.371C626.348 354.032 626.121 355.789 626.243 357.538C626.364 359.288 626.83 360.996 627.615 362.564C628.399 364.133 629.486 365.531 630.813 366.677C628.776 364.281 627.659 361.236 627.663 358.091Z" fill="black"/>
</g>
<g opacity="0.1">
<path opacity="0.1" d="M657.871 372.505C658.652 372.448 659.433 372.366 660.208 372.253C661.141 372.165 662.042 371.866 662.842 371.377C663.727 372.027 664.466 372.857 665.008 373.813C665.551 374.768 665.886 375.827 665.992 376.921C666.022 376.645 666.037 376.367 666.036 376.089C666.041 374.866 665.759 373.658 665.212 372.564C664.664 371.47 663.868 370.519 662.886 369.79C662.086 370.28 661.186 370.582 660.252 370.672L659.622 370.747C659.087 371.379 658.501 371.967 657.871 372.505Z" fill="black"/>
<path opacity="0.1" d="M658.199 369.827C658.463 369.827 658.722 369.827 658.98 369.884C659.389 369.449 659.793 368.983 660.202 368.529C659.548 368.358 658.875 368.269 658.199 368.265C656.124 368.265 654.134 369.089 652.666 370.557C651.199 372.024 650.375 374.014 650.375 376.089C650.375 376.354 650.375 376.618 650.412 376.87C650.607 374.94 651.512 373.152 652.95 371.851C654.389 370.549 656.259 369.828 658.199 369.827Z" fill="black"/>
</g>
<g opacity="0.1">
<path opacity="0.1" d="M620.936 372.505C620.154 372.448 619.373 372.366 618.598 372.253C617.665 372.165 616.765 371.866 615.965 371.377C615.079 372.027 614.341 372.857 613.798 373.813C613.255 374.768 612.92 375.827 612.815 376.921C612.785 376.645 612.77 376.367 612.771 376.089C612.766 374.866 613.048 373.658 613.595 372.564C614.142 371.47 614.939 370.519 615.921 369.79C616.72 370.28 617.621 370.582 618.554 370.672L619.184 370.747C619.722 371.377 620.307 371.965 620.936 372.505Z" fill="black"/>
<path opacity="0.1" d="M620.621 369.827C620.356 369.827 620.098 369.827 619.839 369.884C619.43 369.449 619.027 368.983 618.617 368.529C619.271 368.358 619.944 368.269 620.621 368.265C622.696 368.265 624.686 369.089 626.153 370.557C627.62 372.024 628.445 374.014 628.445 376.089C628.445 376.354 628.445 376.618 628.407 376.87C628.212 374.94 627.308 373.152 625.869 371.851C624.43 370.549 622.56 369.828 620.621 369.827Z" fill="black"/>
</g>
<path d="M35.9086 339.557H96.0965C100.273 339.557 104.279 341.216 107.233 344.17C110.187 347.123 111.846 351.129 111.846 355.306V431.212H20.1592V355.306C20.1592 351.129 21.8185 347.123 24.7721 344.17C27.7257 341.216 31.7316 339.557 35.9086 339.557Z" fill="#3F3D56"/>
<path opacity="0.1" d="M35.9086 339.557H96.0965C100.273 339.557 104.279 341.216 107.233 344.17C110.187 347.123 111.846 351.129 111.846 355.306V431.212H20.1592V355.306C20.1592 351.129 21.8185 347.123 24.7721 344.17C27.7257 341.216 31.7316 339.557 35.9086 339.557Z" fill="black"/>
<path d="M62.3485 359.697C66.3984 359.697 69.6815 356.414 69.6815 352.364C69.6815 348.315 66.3984 345.031 62.3485 345.031C58.2987 345.031 55.0156 348.315 55.0156 352.364C55.0156 356.414 58.2987 359.697 62.3485 359.697Z" fill="#3F3D56"/>
<path d="M62.3485 350.531C66.3984 350.531 69.6815 347.248 69.6815 343.198C69.6815 339.148 66.3984 335.865 62.3485 335.865C58.2987 335.865 55.0156 339.148 55.0156 343.198C55.0156 347.248 58.2987 350.531 62.3485 350.531Z" fill="#3F3D56"/>
<path d="M62.3485 341.359C66.3984 341.359 69.6815 338.076 69.6815 334.026C69.6815 329.976 66.3984 326.693 62.3485 326.693C58.2987 326.693 55.0156 329.976 55.0156 334.026C55.0156 338.076 58.2987 341.359 62.3485 341.359Z" fill="#3F3D56"/>
<path d="M62.3485 332.193C66.3984 332.193 69.6815 328.91 69.6815 324.86C69.6815 320.81 66.3984 317.527 62.3485 317.527C58.2987 317.527 55.0156 320.81 55.0156 324.86C55.0156 328.91 58.2987 332.193 62.3485 332.193Z" fill="#3F3D56"/>
<path d="M62.3485 323.02C66.3984 323.02 69.6815 319.737 69.6815 315.687C69.6815 311.637 66.3984 308.354 62.3485 308.354C58.2987 308.354 55.0156 311.637 55.0156 315.687C55.0156 319.737 58.2987 323.02 62.3485 323.02Z" fill="#3F3D56"/>
<path d="M62.3485 313.854C66.3984 313.854 69.6815 310.571 69.6815 306.521C69.6815 302.471 66.3984 299.188 62.3485 299.188C58.2987 299.188 55.0156 302.471 55.0156 306.521C55.0156 310.571 58.2987 313.854 62.3485 313.854Z" fill="#3F3D56"/>
<path d="M62.3485 304.688C66.3984 304.688 69.6815 301.405 69.6815 297.355C69.6815 293.305 66.3984 290.022 62.3485 290.022C58.2987 290.022 55.0156 293.305 55.0156 297.355C55.0156 301.405 58.2987 304.688 62.3485 304.688Z" fill="#3F3D56"/>
<path d="M73.3481 308.354C77.3979 308.354 80.681 305.071 80.681 301.021C80.681 296.972 77.3979 293.688 73.3481 293.688C69.2982 293.688 66.0151 296.972 66.0151 301.021C66.0151 305.071 69.2982 308.354 73.3481 308.354Z" fill="#3F3D56"/>
<path d="M80.6811 304.688C84.7309 304.688 88.014 301.405 88.014 297.355C88.014 293.305 84.7309 290.022 80.6811 290.022C76.6312 290.022 73.3481 293.305 73.3481 297.355C73.3481 301.405 76.6312 304.688 80.6811 304.688Z" fill="#3F3D56"/>
<path d="M88.0204 301.015C92.0703 301.015 95.3533 297.732 95.3533 293.682C95.3533 289.632 92.0703 286.349 88.0204 286.349C83.9706 286.349 80.6875 289.632 80.6875 293.682C80.6875 297.732 83.9706 301.015 88.0204 301.015Z" fill="#3F3D56"/>
<path d="M62.3485 295.515C66.3984 295.515 69.6815 292.232 69.6815 288.182C69.6815 284.132 66.3984 280.849 62.3485 280.849C58.2987 280.849 55.0156 284.132 55.0156 288.182C55.0156 292.232 58.2987 295.515 62.3485 295.515Z" fill="#3F3D56"/>
<path d="M62.3485 286.349C66.3984 286.349 69.6815 283.066 69.6815 279.016C69.6815 274.966 66.3984 271.683 62.3485 271.683C58.2987 271.683 55.0156 274.966 55.0156 279.016C55.0156 283.066 58.2987 286.349 62.3485 286.349Z" fill="#3F3D56"/>
<path d="M62.3485 277.177C66.3984 277.177 69.6815 273.894 69.6815 269.844C69.6815 265.794 66.3984 262.511 62.3485 262.511C58.2987 262.511 55.0156 265.794 55.0156 269.844C55.0156 273.894 58.2987 277.177 62.3485 277.177Z" fill="#3F3D56"/>
<path d="M62.3485 268.011C66.3984 268.011 69.6815 264.728 69.6815 260.678C69.6815 256.628 66.3984 253.345 62.3485 253.345C58.2987 253.345 55.0156 256.628 55.0156 260.678C55.0156 264.728 58.2987 268.011 62.3485 268.011Z" fill="#3F3D56"/>
<path d="M92.7577 237.022C90.9392 237.287 89.1122 237.48 87.2769 237.602C88.9754 236.114 90.5531 234.494 91.9954 232.757C90.995 229.678 89.5198 226.775 87.6234 224.152C85.8188 225.183 83.8192 225.826 81.752 226.041C79.9377 226.306 78.1045 226.501 76.2712 226.627C78.684 224.674 80.9204 221.72 83.2828 219.32C77.806 214.346 70.7417 211.477 63.3476 211.224C55.9535 210.971 48.7096 213.35 42.9057 217.938C37.1018 222.527 33.1146 229.026 31.654 236.278C30.1934 243.531 31.3542 251.067 34.9297 257.544C38.5052 264.021 44.2634 269.019 51.179 271.648C58.0946 274.277 65.7187 274.366 72.694 271.9C79.6692 269.433 85.5427 264.571 89.2688 258.18C92.9949 251.788 94.3317 244.282 93.0412 236.997L92.7577 237.022Z" fill="#33D69F"/>
<path d="M117.264 273.472C115.537 274.688 113.244 275.211 111.096 275.526C109.275 275.797 107.449 275.986 105.615 276.112C107.505 274.594 109.244 272.477 111.046 270.48C106.631 269.308 101.939 269.825 97.8853 271.929C93.8317 274.033 90.7081 277.572 89.125 281.856C87.542 286.14 87.6132 290.86 89.3247 295.095C91.0363 299.329 94.2652 302.773 98.3805 304.753C102.496 306.734 107.202 307.108 111.579 305.804C115.955 304.5 119.689 301.611 122.049 297.701C124.409 293.791 125.227 289.142 124.342 284.661C123.457 280.181 120.933 276.191 117.264 273.472Z" fill="#33D69F"/>
<path d="M51.3432 308.354C55.393 308.354 58.6761 305.071 58.6761 301.021C58.6761 296.972 55.393 293.688 51.3432 293.688C47.2933 293.688 44.0103 296.972 44.0103 301.021C44.0103 305.071 47.2933 308.354 51.3432 308.354Z" fill="#3F3D56"/>
<path d="M44.0102 304.688C48.06 304.688 51.3431 301.405 51.3431 297.355C51.3431 293.305 48.06 290.022 44.0102 290.022C39.9603 290.022 36.6772 293.305 36.6772 297.355C36.6772 301.405 39.9603 304.688 44.0102 304.688Z" fill="#3F3D56"/>
<path d="M36.6772 301.015C40.727 301.015 44.0101 297.732 44.0101 293.682C44.0101 289.632 40.727 286.349 36.6772 286.349C32.6273 286.349 29.3442 289.632 29.3442 293.682C29.3442 297.732 32.6273 301.015 36.6772 301.015Z" fill="#3F3D56"/>
<path d="M7.43354 273.472C9.15967 274.688 11.4528 275.211 13.6073 275.526C15.4216 275.797 17.2486 275.986 19.0818 276.112C17.1919 274.594 15.4531 272.477 13.6514 270.48C18.0656 269.308 22.7581 269.825 26.8118 271.929C30.8654 274.033 33.989 277.572 35.572 281.856C37.1551 286.14 37.0839 290.86 35.3723 295.095C33.6608 299.329 30.4319 302.773 26.3166 304.753C22.2013 306.734 17.4954 307.108 13.1185 305.804C8.7416 304.5 5.00825 301.611 2.648 297.701C0.287747 293.791 -0.529775 289.142 0.35519 284.661C1.24015 280.181 3.76401 276.191 7.43354 273.472Z" fill="#33D69F"/>
<path d="M35.9086 345.031H96.0965C100.273 345.031 104.279 346.691 107.233 349.644C110.187 352.598 111.846 356.604 111.846 360.781V434.053C111.846 434.762 111.564 435.441 111.063 435.942C110.563 436.443 109.883 436.724 109.175 436.724H22.8429C22.491 436.726 22.1423 436.658 21.8168 436.525C21.4913 436.391 21.1953 436.195 20.946 435.947C20.6966 435.698 20.4987 435.403 20.3637 435.078C20.2287 434.754 20.1592 434.405 20.1592 434.053V360.781C20.1592 356.604 21.8185 352.598 24.7721 349.644C27.7257 346.691 31.7316 345.031 35.9086 345.031Z" fill="#3F3D56"/>
<g opacity="0.1">
<path opacity="0.1" d="M93.3121 239.025C92.575 239.826 91.7835 240.576 90.9434 241.268C91.7812 241.211 92.6254 241.136 93.4633 241.054C93.4318 240.374 93.3877 239.693 93.3121 239.025Z" fill="black"/>
<path opacity="0.1" d="M79.9438 230.269C81.7771 230.143 83.604 229.954 85.4183 229.683C87.0617 229.491 88.6696 229.067 90.1935 228.423C89.4485 226.943 88.5892 225.523 87.6232 224.177C86.7124 224.74 85.7231 225.164 84.6876 225.437C83.234 227.168 81.648 228.783 79.9438 230.269Z" fill="black"/>
<path opacity="0.1" d="M34.8375 246.012C34.8265 240.416 36.3249 234.92 39.175 230.104C42.0252 225.288 46.1215 221.33 51.0324 218.646C55.9433 215.963 61.4871 214.653 67.0796 214.856C72.6722 215.059 78.1065 216.766 82.8102 219.799C82.9677 219.635 83.1252 219.452 83.2827 219.295C80.2185 216.526 76.6344 214.395 72.7389 213.025C68.8434 211.654 64.7143 211.072 60.5918 211.312C56.4693 211.553 52.4357 212.61 48.7257 214.424C45.0157 216.237 41.7033 218.77 38.9813 221.876C36.2594 224.981 34.1821 228.597 32.8704 232.512C31.5587 236.428 31.0387 240.565 31.3408 244.684C31.6428 248.802 32.7608 252.82 34.6297 256.502C36.4987 260.184 39.0812 263.458 42.2271 266.133C37.4497 260.518 34.8298 253.384 34.8375 246.012Z" fill="black"/>
</g>
<g opacity="0.1">
<path opacity="0.1" d="M105.615 279.778C107.446 279.661 109.273 279.466 111.096 279.193C113.244 278.884 115.506 278.361 117.263 277.139C119.331 278.666 121.053 280.612 122.319 282.849C123.584 285.086 124.365 287.564 124.609 290.123C124.672 289.493 124.71 288.863 124.71 288.189C124.712 285.325 124.04 282.501 122.75 279.945C121.46 277.389 119.587 275.172 117.282 273.472C115.556 274.688 113.263 275.211 111.115 275.526C110.63 275.595 110.151 275.652 109.672 275.709C108.43 277.17 107.073 278.531 105.615 279.778Z" fill="black"/>
<path opacity="0.1" d="M106.34 273.516C106.955 273.526 107.569 273.568 108.179 273.642C109.137 272.622 110.069 271.538 111.033 270.493C108.319 269.761 105.474 269.665 102.717 270.213C99.9601 270.76 97.3669 271.937 95.139 273.65C92.9111 275.364 91.1086 277.568 89.8716 280.092C88.6347 282.616 87.9968 285.391 88.0075 288.201C88.0075 288.831 88.039 289.461 88.0957 290.034C88.5472 285.509 90.664 281.313 94.0354 278.261C97.4067 275.208 101.792 273.517 106.34 273.516Z" fill="black"/>
</g>
<g opacity="0.1">
<path opacity="0.1" d="M19.0757 279.778C17.2445 279.661 15.4197 279.466 13.6012 279.193C11.4467 278.884 9.15355 278.361 7.42742 277.139C5.36371 278.668 3.64486 280.614 2.38259 282.851C1.12032 285.088 0.342878 287.566 0.100797 290.123C0.0377998 289.493 1.39622e-06 288.863 1.39622e-06 288.189C-0.00111818 285.325 0.671094 282.501 1.96239 279.944C3.25368 277.388 5.12787 275.171 7.43371 273.472C9.15985 274.688 11.453 275.211 13.6075 275.526C14.0863 275.595 14.565 275.652 15.0438 275.709C16.2801 277.168 17.6281 278.529 19.0757 279.778Z" fill="black"/>
<path opacity="0.1" d="M18.3383 273.516C17.7234 273.526 17.1094 273.568 16.4988 273.642C15.5412 272.622 14.6089 271.538 13.645 270.493C16.3587 269.761 19.2046 269.665 21.9613 270.213C24.718 270.76 27.3112 271.937 29.5391 273.65C31.767 275.364 33.5695 277.568 34.8065 280.092C36.0434 282.616 36.6813 285.391 36.6706 288.201C36.6706 288.831 36.6706 289.461 36.5824 290.034C36.1309 285.509 34.014 281.313 30.6427 278.261C27.2714 275.208 22.8862 273.517 18.3383 273.516Z" fill="black"/>
</g>
<path d="M428.371 438.551L305.526 436.976L305.885 433.827L311.826 381.854H419.709L427.647 433.827L428.251 437.764L428.371 438.551Z" fill="#D0D2D5"/>
<path opacity="0.1" d="M428.251 437.764H366.948L305.526 436.976L305.885 433.826H427.647L428.251 437.764Z" fill="black"/>
<path d="M448.058 434.614H285.051V438.551H448.058V434.614Z" fill="#D0D2D5"/>
<path d="M603.58 69.688C603.593 66.969 602.527 64.356 600.614 62.4233C598.701 60.4907 596.1 59.3966 593.381 59.3816H138.154C136.807 59.3882 135.475 59.66 134.233 60.1815C132.991 60.7031 131.864 61.4641 130.917 62.4211C129.969 63.3781 129.219 64.5125 128.71 65.7593C128.2 67.0062 127.942 68.3412 127.948 69.688V345.617H603.58V69.688Z" fill="#444053"/>
<path d="M127.948 342.871V375.195C127.944 376.537 128.205 377.867 128.716 379.109C129.227 380.35 129.978 381.479 130.926 382.429C131.874 383.38 133.001 384.134 134.241 384.648C135.481 385.162 136.811 385.426 138.153 385.425H593.38C596.085 385.425 598.679 384.351 600.592 382.438C602.505 380.525 603.58 377.931 603.58 375.226V342.871H127.948Z" fill="#D0D2D5"/>
<path opacity="0.1" d="M586.255 76.7061H147.635V324.759H586.255V76.7061Z" fill="#33D69F"/>
<path d="M368.126 373.135C369.737 373.136 371.327 372.771 372.776 372.068C374.225 371.366 375.496 370.343 376.492 369.078C376.793 368.691 377.069 368.284 377.318 367.862L371.484 366.904L377.784 366.948C378.391 365.633 378.722 364.207 378.757 362.758C378.792 361.309 378.529 359.869 377.985 358.526L369.525 362.935L377.33 357.203C376.614 355.917 375.638 354.794 374.465 353.906C373.292 353.017 371.947 352.381 370.516 352.039C369.084 351.697 367.597 351.657 366.149 351.919C364.701 352.182 363.323 352.743 362.103 353.566C360.883 354.389 359.847 355.456 359.061 356.7C358.275 357.945 357.757 359.339 357.537 360.794C357.318 362.249 357.404 363.734 357.789 365.155C358.173 366.575 358.849 367.9 359.773 369.046C360.764 370.316 362.031 371.344 363.478 372.053C364.926 372.761 366.515 373.131 368.126 373.135Z" fill="#33D69F"/>
<path opacity="0.1" d="M378.76 385.394L427.766 434.614L420.25 385.394H378.76Z" fill="black"/>
<path d="M498.456 110.485H159.844V290.286H498.456V110.485Z" fill="white"/>
<path opacity="0.1" d="M273.176 157.355H178.73V162.25H273.176V157.355Z" fill="#33D69F"/>
<path opacity="0.1" d="M196.225 131.47H187.128V157.355H196.225V131.47Z" fill="#33D69F"/>
<path opacity="0.1" d="M209.517 131.47H200.42V157.355H209.517V131.47Z" fill="#33D69F"/>
<path opacity="0.1" d="M222.81 131.47H213.713V157.355H222.81V131.47Z" fill="#33D69F"/>
<path opacity="0.1" d="M236.102 131.47H227.005V157.355H236.102V131.47Z" fill="#33D69F"/>
<path opacity="0.1" d="M249.395 131.47H240.298V157.355H249.395V131.47Z" fill="#33D69F"/>
<path opacity="0.1" d="M262.687 131.47H253.59V157.355H262.687V131.47Z" fill="#33D69F"/>
<path opacity="0.1" d="M196.225 136.371H187.128V139.168H196.225V136.371Z" fill="#33D69F"/>
<path opacity="0.1" d="M209.517 136.371H200.42V139.168H209.517V136.371Z" fill="#33D69F"/>
<path opacity="0.1" d="M222.81 136.371H213.713V139.168H222.81V136.371Z" fill="#33D69F"/>
<path opacity="0.1" d="M236.102 136.371H227.005V139.168H236.102V136.371Z" fill="#33D69F"/>
<path opacity="0.1" d="M249.395 136.371H240.298V139.168H249.395V136.371Z" fill="#33D69F"/>
<path opacity="0.1" d="M262.687 136.371H253.59V139.168H262.687V136.371Z" fill="#33D69F"/>
<path opacity="0.1" d="M196.225 148.964H187.128V151.761H196.225V148.964Z" fill="#33D69F"/>
<path opacity="0.1" d="M209.517 148.964H200.42V151.761H209.517V148.964Z" fill="#33D69F"/>
<path opacity="0.1" d="M222.81 148.964H213.713V151.761H222.81V148.964Z" fill="#33D69F"/>
<path opacity="0.1" d="M236.102 148.964H227.005V151.761H236.102V148.964Z" fill="#33D69F"/>
<path opacity="0.1" d="M249.395 148.964H240.298V151.761H249.395V148.964Z" fill="#33D69F"/>
<path opacity="0.1" d="M262.687 148.964H253.59V151.761H262.687V148.964Z" fill="#33D69F"/>
<path opacity="0.1" d="M480.262 169.948H385.816V174.843H480.262V169.948Z" fill="#33D69F"/>
<path opacity="0.1" d="M403.311 144.063H394.214V169.948H403.311V144.063Z" fill="#33D69F"/>
<path opacity="0.1" d="M416.603 144.063H407.506V169.948H416.603V144.063Z" fill="#33D69F"/>
<path opacity="0.1" d="M429.896 144.063H420.799V169.948H429.896V144.063Z" fill="#33D69F"/>
<path opacity="0.1" d="M443.188 144.063H434.091V169.948H443.188V144.063Z" fill="#33D69F"/>
<path opacity="0.1" d="M456.481 144.063H447.384V169.948H456.481V144.063Z" fill="#33D69F"/>
<path opacity="0.1" d="M469.773 144.063H460.676V169.948H469.773V144.063Z" fill="#33D69F"/>
<path opacity="0.1" d="M403.311 148.964H394.214V151.761H403.311V148.964Z" fill="#33D69F"/>
<path opacity="0.1" d="M416.603 148.964H407.506V151.761H416.603V148.964Z" fill="#33D69F"/>
<path opacity="0.1" d="M429.896 148.964H420.799V151.761H429.896V148.964Z" fill="#33D69F"/>
<path opacity="0.1" d="M443.188 148.964H434.091V151.761H443.188V148.964Z" fill="#33D69F"/>
<path opacity="0.1" d="M456.481 148.964H447.384V151.761H456.481V148.964Z" fill="#33D69F"/>
<path opacity="0.1" d="M469.773 148.964H460.676V151.761H469.773V148.964Z" fill="#33D69F"/>
<path opacity="0.1" d="M403.311 161.557H394.214V164.354H403.311V161.557Z" fill="#33D69F"/>
<path opacity="0.1" d="M416.603 161.557H407.506V164.354H416.603V161.557Z" fill="#33D69F"/>
<path opacity="0.1" d="M429.896 161.557H420.799V164.354H429.896V161.557Z" fill="#33D69F"/>
<path opacity="0.1" d="M443.188 161.557H434.091V164.354H443.188V161.557Z" fill="#33D69F"/>
<path opacity="0.1" d="M456.481 161.557H447.384V164.354H456.481V161.557Z" fill="#33D69F"/>
<path opacity="0.1" d="M469.773 161.557H460.676V164.354H469.773V161.557Z" fill="#33D69F"/>
<path opacity="0.1" d="M480.262 205.63H385.816V210.525H480.262V205.63Z" fill="#33D69F"/>
<path opacity="0.1" d="M403.311 179.745H394.214V205.631H403.311V179.745Z" fill="#33D69F"/>
<path opacity="0.1" d="M416.603 179.745H407.506V205.631H416.603V179.745Z" fill="#33D69F"/>
<path opacity="0.1" d="M429.896 179.745H420.799V205.631H429.896V179.745Z" fill="#33D69F"/>
<path opacity="0.1" d="M443.188 179.745H434.091V205.631H443.188V179.745Z" fill="#33D69F"/>
<path opacity="0.1" d="M456.481 179.745H447.384V205.631H456.481V179.745Z" fill="#33D69F"/>
<path opacity="0.1" d="M469.773 179.745H460.676V205.631H469.773V179.745Z" fill="#33D69F"/>
<path opacity="0.1" d="M403.311 184.64H394.214V187.437H403.311V184.64Z" fill="#33D69F"/>
<path opacity="0.1" d="M416.603 184.64H407.506V187.437H416.603V184.64Z" fill="#33D69F"/>
<path opacity="0.1" d="M429.896 184.64H420.799V187.437H429.896V184.64Z" fill="#33D69F"/>
<path opacity="0.1" d="M443.188 184.64H434.091V187.437H443.188V184.64Z" fill="#33D69F"/>
<path opacity="0.1" d="M456.481 184.64H447.384V187.437H456.481V184.64Z" fill="#33D69F"/>
<path opacity="0.1" d="M469.773 184.64H460.676V187.437H469.773V184.64Z" fill="#33D69F"/>
<path opacity="0.1" d="M403.311 197.233H394.214V200.03H403.311V197.233Z" fill="#33D69F"/>
<path opacity="0.1" d="M416.603 197.233H407.506V200.03H416.603V197.233Z" fill="#33D69F"/>
<path opacity="0.1" d="M429.896 197.233H420.799V200.03H429.896V197.233Z" fill="#33D69F"/>
<path opacity="0.1" d="M443.188 197.233H434.091V200.03H443.188V197.233Z" fill="#33D69F"/>
<path opacity="0.1" d="M456.481 197.233H447.384V200.03H456.481V197.233Z" fill="#33D69F"/>
<path opacity="0.1" d="M469.773 197.233H460.676V200.03H469.773V197.233Z" fill="#33D69F"/>
<path opacity="0.1" d="M236.656 212.718C235.95 211.818 235.305 210.871 234.729 209.883L248.33 207.653L233.595 207.772C232.184 204.703 231.415 201.377 231.334 198C231.253 194.622 231.861 191.264 233.122 188.13L252.853 198.367L234.659 184.993C236.359 182.04 238.65 179.469 241.387 177.441C244.125 175.413 247.252 173.971 250.572 173.205C253.892 172.439 257.334 172.366 260.683 172.99C264.033 173.614 267.218 174.922 270.039 176.832C272.861 178.742 275.258 181.213 277.082 184.091C278.906 186.969 280.117 190.192 280.639 193.559C281.162 196.926 280.985 200.364 280.119 203.659C279.253 206.955 277.718 210.036 275.608 212.711C276.714 214.108 277.667 215.621 278.449 217.222L260.81 226.388L279.627 220.088C280.95 223.993 281.278 228.167 280.58 232.23C279.883 236.294 278.182 240.119 275.633 243.36C278.51 247.016 280.3 251.408 280.798 256.034C281.296 260.66 280.483 265.332 278.45 269.517C276.418 273.703 273.249 277.231 269.306 279.7C265.362 282.169 260.804 283.478 256.151 283.478C251.499 283.478 246.94 282.169 242.997 279.7C239.053 277.231 235.884 273.703 233.852 269.517C231.819 265.332 231.006 260.66 231.504 256.034C232.002 251.408 233.792 247.016 236.669 243.36C233.233 238.991 231.365 233.594 231.365 228.036C231.365 222.477 233.233 217.08 236.669 212.711L236.656 212.718Z" fill="#33D69F"/>
<path opacity="0.1" d="M280.925 228.045C280.933 233.604 279.064 239.002 275.621 243.366C278.498 247.022 280.287 251.415 280.786 256.04C281.284 260.666 280.47 265.339 278.438 269.524C276.406 273.709 273.237 277.238 269.293 279.706C265.35 282.175 260.791 283.484 256.139 283.484C251.486 283.484 246.928 282.175 242.984 279.706C239.041 277.238 235.872 273.709 233.839 269.524C231.807 265.339 230.993 260.666 231.492 256.04C231.99 251.415 233.78 247.022 236.657 243.366C233.337 239.151 280.925 225.261 280.925 228.045Z" fill="#33D69F"/>
<path opacity="0.2" d="M260.117 290.079C260.161 290.148 260.193 290.217 260.237 290.286H251.82C251.864 290.217 251.896 290.148 251.94 290.079C251.217 288.818 250.843 287.387 250.856 285.933C250.855 284.939 251.028 283.952 251.367 283.017C251.833 283.092 252.412 283.174 253.08 283.243C255.032 283.438 256.999 283.438 258.951 283.243C259.506 283.187 260.092 283.105 260.684 283.017C260.685 283.031 260.685 283.046 260.684 283.061C261.016 283.982 261.184 284.954 261.182 285.933C261.2 287.385 260.833 288.816 260.117 290.079Z" fill="#3F3D56"/>
<path opacity="0.1" d="M229.872 290.299H183.065C182.958 290.028 182.863 289.745 182.781 289.468C181.131 284.159 181.324 278.449 183.329 273.265C178.755 270.105 175.376 265.499 173.735 260.187C172.094 254.875 172.287 249.166 174.283 243.977C173.341 243.324 172.445 242.608 171.599 241.835L183.934 235.687L169.917 240.134C167.661 237.617 165.943 234.666 164.869 231.462C163.794 228.258 163.385 224.868 163.668 221.5L185.541 225.45L164.21 218.041C164.964 214.718 166.395 211.587 168.413 208.842C170.432 206.097 172.994 203.797 175.941 202.087C178.888 200.377 182.156 199.292 185.541 198.901C188.925 198.511 192.354 198.822 195.614 199.815C198.873 200.809 201.892 202.464 204.483 204.676C207.074 206.889 209.181 209.612 210.673 212.676C212.164 215.739 213.008 219.077 213.152 222.481C213.296 225.886 212.736 229.283 211.508 232.461C212.973 233.477 214.327 234.644 215.546 235.945L201.384 249.918L217.505 238.326C219.922 241.669 221.466 245.561 221.998 249.651C222.531 253.741 222.034 257.899 220.555 261.749C225.017 264.833 228.344 269.296 230.027 274.453C231.71 279.61 231.656 285.176 229.872 290.299Z" fill="#33D69F"/>
<path opacity="0.1" d="M229.872 290.299H183.065C182.958 290.028 182.863 289.745 182.781 289.468C181.131 284.16 181.324 278.449 183.329 273.265C178.92 270.209 220.284 242.894 221.128 245.546C222.772 250.857 222.579 256.567 220.58 261.755C225.036 264.843 228.358 269.306 230.036 274.461C231.714 279.617 231.657 285.18 229.872 290.299Z" fill="#33D69F"/>
<path opacity="0.1" d="M441.827 256.715C438.984 261.491 434.611 265.167 429.417 267.147C429.638 268.917 429.674 270.706 429.524 272.483L409.667 271.293L429.058 275.532C427.776 281.457 424.372 286.709 419.488 290.299H392.462V290.998H364.951C365.008 290.759 365.065 290.526 365.128 290.299C366.139 286.499 368.036 282.993 370.664 280.068C373.292 277.143 376.576 274.883 380.247 273.472C379.544 267.957 380.715 262.365 383.571 257.594C386.427 252.823 390.803 249.15 395.996 247.165C395.848 246.031 395.779 244.888 395.788 243.744L408.608 248.784L395.933 241.337C396.296 237.982 397.337 234.735 398.996 231.796C400.654 228.856 402.894 226.285 405.578 224.24L417.258 243.139L408.508 222.35C413.275 219.698 418.783 218.694 424.18 219.492C429.576 220.29 434.558 222.846 438.354 226.763C442.149 230.681 444.546 235.742 445.173 241.16C445.8 246.579 444.622 252.053 441.821 256.734L441.827 256.715Z" fill="#33D69F"/>
<path opacity="0.1" d="M426.097 283.023C424.409 285.871 422.161 288.346 419.488 290.299H392.462V290.998H364.951C365.008 290.759 365.065 290.526 365.128 290.299C366.139 286.499 368.036 282.993 370.664 280.068C373.292 277.143 376.576 274.883 380.247 273.472C380.014 271.664 385.356 271.91 392.468 273.107C406.372 275.438 427.042 281.442 426.097 283.023Z" fill="#33D69F"/>
<path d="M308.971 216.882C308.971 216.882 312.342 235.258 304.782 241.249C297.222 247.24 311.17 283.193 334.34 279.004C357.511 274.814 366.898 244.645 366.898 244.645C366.898 244.645 343.727 239.857 352.314 215.49L308.971 216.882Z" fill="#EFB7B9"/>
<path opacity="0.1" d="M308.971 216.882C308.971 216.882 312.342 235.258 304.782 241.249C297.222 247.24 311.17 283.193 334.34 279.004C357.511 274.814 366.898 244.645 366.898 244.645C366.898 244.645 343.727 239.857 352.314 215.49L308.971 216.882Z" fill="black"/>
<path d="M329.446 230.363C350.624 230.363 367.792 213.195 367.792 192.017C367.792 170.838 350.624 153.67 329.446 153.67C308.268 153.67 291.099 170.838 291.099 192.017C291.099 213.195 308.268 230.363 329.446 230.363Z" fill="#EFB7B9"/>
<path d="M392.462 264.917V290.986H265.837V266.108C265.838 262.952 266.768 259.867 268.511 257.237C270.255 254.606 272.734 252.547 275.639 251.316L279.274 249.773C288.459 245.861 299.616 241.004 303.264 238.981C303.663 238.782 304.039 238.539 304.385 238.257C306.382 236.26 305.985 238.855 305.985 238.855C305.985 238.855 305.929 239.347 305.891 240.204C305.677 246.069 306.521 269.138 333.547 267.217C359.917 265.327 361.077 247.536 360.837 242.301C360.822 241.816 360.78 241.333 360.711 240.852C360.711 240.714 362.979 241.482 366.053 242.591C371.578 244.626 379.699 247.902 381.885 249.445C382.565 249.918 383.39 250.422 384.285 250.919C386.775 252.309 388.848 254.34 390.288 256.802C391.728 259.263 392.483 262.066 392.475 264.917H392.462Z" fill="#33D69F"/>
<path opacity="0.1" d="M366.048 242.591C363.818 252.935 356.812 272.313 331.544 272.83C304.638 273.359 303.088 246.598 303.252 239.006C303.654 238.807 304.033 238.562 304.379 238.276C306.376 236.279 305.979 238.874 305.979 238.874C305.979 238.874 302.584 269.434 333.541 267.223C364.498 265.012 360.705 240.859 360.705 240.859C360.705 240.714 362.973 241.457 366.048 242.591Z" fill="black"/>
<path d="M284.056 193.913C286.576 193.094 289.581 194.48 290.986 196.433C292.391 198.386 292.586 200.748 292.756 203.01C294.426 203.362 295.364 201.472 295.515 200.055C296.145 194.253 296.177 188.344 298.124 182.75C300.07 177.155 304.323 171.738 310.862 169.583C313.085 168.812 315.462 168.585 317.791 168.922C319.171 169.155 320.475 169.633 321.855 169.86C326.624 170.648 331.821 168.386 336.3 169.961C339.104 170.95 340.912 173.237 342.197 175.53C342.77 176.761 343.545 177.888 344.49 178.863C346.38 180.563 349.378 181.011 352.1 181.546C354.821 182.082 357.808 183.001 358.973 185.106C360.025 186.996 359.25 189.2 358.897 191.267C358.359 194.522 358.905 197.865 360.453 200.779C360.957 201.737 361.978 202.821 363.181 202.512C363.729 202.327 364.192 201.951 364.485 201.453C367.635 197.044 367.534 191.323 371.459 187.386C372.776 186.069 374.47 185.036 375.749 183.694C376.717 182.717 377.427 181.515 377.815 180.195C378.203 178.876 378.258 177.48 377.973 176.135C377.267 173.105 374.823 170.578 372.889 167.945C370.347 164.571 368.495 160.728 367.44 156.637C367.254 156.163 367.254 155.637 367.44 155.163C367.81 154.681 368.286 154.291 368.832 154.023C369.901 153.314 370.675 152.239 371.008 151C371.34 149.761 371.21 148.444 370.64 147.294C369.544 145.008 367.081 143.313 364.378 142.292C361.676 141.272 358.708 140.837 355.773 140.403C353.845 140.686 351.583 139.584 350.985 138.04C350.72 137.353 350.72 136.61 350.449 135.923C349.927 134.607 348.421 133.674 346.802 133.353C345.155 133.083 343.468 133.202 341.875 133.7C340.061 134.21 337.957 134.96 336.376 134.09C335.544 133.618 335.078 132.761 334.183 132.377C332.369 131.602 330.454 133.164 329.144 134.456C327.872 135.801 326.316 136.845 324.589 137.511C322.768 138.141 320.526 138.141 318.957 137.139C317.697 136.339 317.067 135.054 316.065 134.033C314.421 132.351 311.819 131.438 309.224 131.23C306.621 131.093 304.012 131.378 301.5 132.074C296.704 133.236 292.122 135.15 287.924 137.744C285.826 139.061 283.817 140.598 282.721 142.582C281.942 144.13 281.54 145.839 281.549 147.572C281.354 152.996 283.155 158.716 287.849 162.515C284.989 163.712 284.018 166.641 283.351 169.243C282.28 173.388 281.202 177.609 281.606 181.842C281.807 184.028 282.406 186.214 282.084 188.388C281.933 189.44 281.568 190.473 281.656 191.538C281.773 192.128 282.064 192.67 282.492 193.093C282.92 193.517 283.465 193.802 284.056 193.913Z" fill="#454B69"/>
<g opacity="0.1">
<path opacity="0.1" d="M377.419 174.497C377.003 175.395 376.444 176.219 375.762 176.935C374.502 178.277 372.788 179.31 371.472 180.633C367.547 184.564 367.629 190.303 364.498 194.7C364.204 195.197 363.741 195.57 363.194 195.752C361.99 196.061 360.97 194.978 360.466 194.02C359.854 192.855 359.394 191.617 359.099 190.335C359.032 190.654 358.969 190.975 358.91 191.299C358.371 194.554 358.918 197.897 360.466 200.811C360.97 201.769 361.99 202.852 363.194 202.544C363.741 202.359 364.204 201.983 364.498 201.485C367.648 197.075 367.547 191.355 371.472 187.418C372.788 186.101 374.483 185.068 375.762 183.726C376.73 182.749 377.439 181.547 377.828 180.227C378.216 178.907 378.27 177.512 377.986 176.167C377.851 175.593 377.661 175.034 377.419 174.497Z" fill="black"/>
<path opacity="0.1" d="M368.857 147.295C368.31 147.558 367.833 147.947 367.465 148.429C367.279 148.902 367.279 149.429 367.465 149.903C367.828 151.331 368.293 152.731 368.857 154.092C369.939 153.377 370.719 152.288 371.048 151.034C371.377 149.78 371.232 148.448 370.64 147.295C370.463 146.919 370.252 146.561 370.01 146.224C369.682 146.636 369.293 146.998 368.857 147.295Z" fill="black"/>
<path opacity="0.1" d="M287.842 155.787C284.593 153.101 282.451 149.309 281.826 145.14C281.663 145.971 281.571 146.814 281.549 147.66C281.347 151.663 282.404 155.629 284.573 159C285.232 157.564 286.396 156.421 287.842 155.787Z" fill="black"/>
<path opacity="0.1" d="M358.91 184.507C359.262 182.441 360.037 180.242 358.985 178.346C357.82 176.242 354.84 175.316 352.112 174.787C349.384 174.258 346.405 173.804 344.502 172.103C343.557 171.128 342.782 170.002 342.209 168.771C340.949 166.477 339.116 164.191 336.312 163.202C331.833 161.627 326.636 163.888 321.867 163.101C320.487 162.874 319.183 162.395 317.804 162.162C315.477 161.815 313.1 162.031 310.874 162.792C304.335 164.947 300.082 170.352 298.136 175.959C296.189 181.565 296.145 187.462 295.528 193.264C295.377 194.681 294.438 196.571 292.768 196.219C292.598 193.957 292.39 191.595 290.998 189.642C289.606 187.689 286.633 186.297 284.069 187.122C283.292 186.946 282.604 186.5 282.128 185.862C282.216 186.7 282.203 187.546 282.09 188.382C281.939 189.434 281.574 190.467 281.662 191.532C281.777 192.122 282.067 192.665 282.494 193.089C282.92 193.514 283.465 193.801 284.056 193.913C286.576 193.094 289.581 194.48 290.986 196.433C292.39 198.386 292.586 200.748 292.756 203.01C294.425 203.363 295.364 201.473 295.515 200.055C296.145 194.253 296.177 188.344 298.123 182.75C300.07 177.156 304.322 171.738 310.861 169.583C313.085 168.812 315.462 168.585 317.791 168.922C319.171 169.155 320.475 169.634 321.854 169.86C326.623 170.648 331.821 168.386 336.3 169.961C339.103 170.95 340.911 173.237 342.196 175.53C342.769 176.761 343.544 177.888 344.489 178.863C346.379 180.564 349.378 181.011 352.1 181.546C354.821 182.082 357.587 182.939 358.834 184.892C358.866 184.785 358.884 184.646 358.91 184.507Z" fill="black"/>
<path opacity="0.1" d="M282.103 181.647C282.251 179.936 282.149 178.213 281.801 176.532C281.531 178.306 281.472 180.105 281.624 181.893C281.662 182.353 281.725 182.806 281.788 183.266C281.864 182.724 282.002 182.189 282.103 181.647Z" fill="black"/>
</g>
<path d="M572.478 251.165H515.78V290.507H572.478V251.165Z" fill="white"/>
<path opacity="0.1" d="M567.426 280.849C566.617 282.21 565.371 283.256 563.891 283.817C563.955 284.32 563.966 284.829 563.923 285.335L558.253 284.995L563.772 286.204C563.403 287.887 562.436 289.378 561.05 290.4H553.377V290.601H545.553C545.553 290.532 545.553 290.469 545.603 290.4C545.771 289.759 546.03 289.146 546.372 288.579C547.18 287.221 548.423 286.176 549.9 285.612C549.698 284.043 550.03 282.452 550.843 281.094C551.655 279.737 552.901 278.692 554.379 278.128C554.335 277.807 554.316 277.482 554.322 277.158L557.97 278.594L554.36 276.477C554.462 275.521 554.759 274.595 555.232 273.758C555.706 272.92 556.346 272.188 557.113 271.608L560.433 276.988L557.944 271.066C559.3 270.328 560.861 270.055 562.387 270.289C563.913 270.523 565.32 271.251 566.393 272.361C567.465 273.472 568.144 274.903 568.325 276.436C568.506 277.97 568.179 279.52 567.394 280.849H567.426Z" fill="#33D69F"/>
<path opacity="0.1" d="M562.946 288.353C562.464 289.163 561.821 289.866 561.056 290.419H553.377V290.621H545.553C545.553 290.551 545.553 290.488 545.603 290.419C545.771 289.778 546.03 289.165 546.372 288.598C547.18 287.24 548.423 286.195 549.9 285.631C549.837 285.121 551.355 285.19 553.377 285.53C557.333 286.198 563.217 287.905 562.946 288.353Z" fill="#33D69F"/>
<path opacity="0.1" d="M517.934 280.849C518.743 282.21 519.989 283.256 521.469 283.817C521.405 284.32 521.394 284.829 521.437 285.335L527.107 284.995L521.588 286.204C521.957 287.887 522.924 289.378 524.31 290.4H532.002V290.601H539.833C539.833 290.532 539.795 290.469 539.782 290.4C539.609 289.761 539.35 289.149 539.014 288.579C538.201 287.222 536.957 286.177 535.479 285.612C535.681 284.043 535.349 282.452 534.536 281.094C533.724 279.737 532.478 278.692 531 278.128C531.043 277.806 531.064 277.482 531.063 277.158L527.416 278.594L531.019 276.477C530.917 275.521 530.62 274.595 530.147 273.758C529.673 272.92 529.033 272.188 528.266 271.608L524.946 276.988L527.435 271.066C526.079 270.328 524.518 270.055 522.992 270.289C521.466 270.523 520.059 271.251 518.986 272.361C517.914 273.472 517.235 274.903 517.054 276.436C516.873 277.97 517.2 279.52 517.985 280.849H517.934Z" fill="#33D69F"/>
<path opacity="0.1" d="M522.414 288.353C522.896 289.163 523.539 289.866 524.304 290.419H531.996V290.621H539.826C539.826 290.551 539.788 290.488 539.776 290.419C539.602 289.78 539.344 289.168 539.007 288.598C538.195 287.241 536.95 286.196 535.473 285.631C535.536 285.121 534.018 285.19 531.996 285.53C528.027 286.198 522.124 287.905 522.414 288.353Z" fill="#33D69F"/>
<path d="M549.729 259.833H537.061V273.945H549.729V259.833Z" fill="#464353"/>
<path opacity="0.1" d="M549.729 259.833H537.061V273.945H549.729V259.833Z" fill="black"/>
<path d="M531.662 286.859L531.403 290.526H535.019L535.246 285.681L531.662 286.859Z" fill="#A1616A"/>
<path d="M550.712 286.859L550.164 290.526H553.478L553.686 285.681L550.712 286.859Z" fill="#A1616A"/>
<path d="M540.223 266.896C540.223 266.896 540.097 268.729 539.656 269.208C539.215 269.686 543.594 273.926 547.04 269.737C547.04 269.737 545.559 268.477 545.906 267.066C546.252 265.654 540.223 266.896 540.223 266.896Z" fill="#A1616A"/>
<path opacity="0.1" d="M540.223 266.896C540.223 266.896 540.097 268.729 539.656 269.208C539.215 269.686 543.594 273.926 547.04 269.737C547.04 269.737 545.559 268.477 545.906 267.066C546.252 265.654 540.223 266.896 540.223 266.896Z" fill="black"/>
<path d="M543.392 268.533C546.892 268.533 549.729 265.696 549.729 262.196C549.729 258.696 546.892 255.858 543.392 255.858C539.892 255.858 537.054 258.696 537.054 262.196C537.054 265.696 539.892 268.533 543.392 268.533Z" fill="#A1616A"/>
<path d="M543.064 270.826C543.064 270.826 540.406 270.782 540.009 268.357C539.482 268.812 538.927 269.233 538.346 269.617C538.087 269.705 535.549 271.141 535.07 271.23C534.601 271.325 534.167 271.542 533.81 271.86C533.184 272.352 532.672 272.974 532.31 273.683C531.947 274.392 531.743 275.171 531.712 275.967C531.624 278.808 531.277 284.358 531.277 284.358L531.41 286.368V287.678C531.41 287.678 533.766 288.308 535.189 287.048C535.189 287.048 535.189 286.57 535.454 286.418C535.719 286.267 535.756 285.631 535.712 285.366C535.69 284.974 535.69 284.581 535.712 284.188C535.758 284.402 535.884 284.589 536.065 284.711C536.17 285.067 536.2 285.44 536.153 285.807C536.021 286.066 535.889 286.677 536.021 286.809C536.088 286.926 536.115 287.061 536.099 287.195C536.083 287.329 536.025 287.454 535.933 287.552C535.693 287.889 535.502 288.258 535.366 288.648C535.366 288.648 535.234 289.43 535.101 289.518C534.952 289.837 534.85 290.177 534.799 290.526H550.548C550.27 289.728 550.06 288.908 549.918 288.075C549.962 287.685 549.528 286.066 549.83 285.631C550.275 285.055 550.521 284.349 550.529 283.621L550.706 285.322L550.227 289.102C550.227 289.102 553.15 290.022 553.459 289.449C553.786 288.451 554.034 287.429 554.202 286.393C554.202 286.393 554.901 283.243 555.078 282.809C555.254 282.374 555.645 273.636 553.282 272.37C550.92 271.104 546.466 268.924 546.353 269.031C546.101 269.667 545.634 270.195 545.033 270.523C544.432 270.851 543.736 270.958 543.064 270.826Z" fill="#33D69F"/>
<path opacity="0.1" d="M535.473 279.369C535.023 280.013 534.83 280.801 534.932 281.58C535.038 282.352 535.29 283.096 535.675 283.773" stroke="black" stroke-miterlimit="10"/>
<path opacity="0.1" d="M550.775 279.968C550.888 280.288 550.977 280.616 551.04 280.95C551.153 281.368 551.175 281.804 551.103 282.231C551.031 282.657 550.868 283.063 550.624 283.42" stroke="black" stroke-miterlimit="10"/>
<path d="M540.557 257.862C541.053 257.729 541.579 257.783 542.038 258.013C542.489 258.245 542.961 258.433 543.449 258.574C543.776 258.643 544.079 258.643 544.444 258.693C545.053 258.804 545.614 259.094 546.057 259.526C546.499 259.958 546.802 260.513 546.926 261.119C547.21 262.668 546.296 264.193 546.296 265.774C546.3 266.679 546.618 267.554 547.197 268.25C547.683 268.693 548.107 269.199 548.457 269.756C548.64 270.159 548.678 270.619 548.854 271.016C549.239 271.729 549.878 272.273 550.643 272.54C551.402 272.795 552.135 273.124 552.829 273.523C554.089 274.361 554.833 275.967 556.294 276.314C556.367 276.345 556.445 276.361 556.524 276.361C556.603 276.361 556.681 276.345 556.754 276.314C556.82 276.261 556.874 276.194 556.911 276.118C556.948 276.041 556.968 275.957 556.968 275.873C557.004 275.564 556.971 275.252 556.869 274.958C556.768 274.665 556.601 274.398 556.382 274.178C556.023 273.819 555.5 273.548 555.387 273.063C555.273 272.578 555.576 272.162 555.74 271.721C556.263 270.291 555.393 268.735 554.404 267.576C553.415 266.417 552.231 265.27 551.991 263.796C551.935 263.298 551.916 262.797 551.935 262.297C551.916 261.265 551.738 260.243 551.405 259.266C551.246 258.739 550.989 258.245 550.649 257.811C550.335 257.433 549.931 257.143 549.604 256.778C549.169 256.177 548.777 255.545 548.432 254.888C547.931 254.109 547.247 253.465 546.44 253.012C545.633 252.558 544.727 252.309 543.802 252.286C542.031 252.286 540.356 253.068 538.856 254.006C538.305 254.307 537.827 254.727 537.458 255.235C536.828 256.236 537.017 257.559 536.651 258.693C536.286 259.827 535.423 260.665 535.121 261.774C535.028 262.1 535.012 262.443 535.077 262.775C535.189 263.127 535.339 263.464 535.524 263.783C535.858 264.595 536.048 265.458 536.084 266.335C536.179 267.393 536.223 268.533 535.669 269.434C535.238 269.98 534.703 270.435 534.094 270.77C534.712 271.271 535.5 271.513 536.292 271.444C537.489 271.494 538.875 271.444 539.619 270.499C540.063 269.82 540.243 269.002 540.123 268.2C540.064 267.323 539.886 266.458 539.593 265.629C539.184 264.464 538.554 263.361 538.371 262.139C538.3 261.698 538.319 261.248 538.427 260.814C538.535 260.381 538.731 259.975 539.001 259.619C539.228 259.336 539.631 259.191 539.82 258.889C540.06 258.485 539.99 258.063 540.557 257.862Z" fill="#464353"/>
<g opacity="0.1">
<path opacity="0.1" d="M535.524 263.702C535.858 264.513 536.048 265.376 536.084 266.253C536.084 266.53 536.128 266.814 536.135 267.097C536.201 266.481 536.201 265.861 536.135 265.245C536.096 264.379 535.906 263.526 535.574 262.725C535.393 262.406 535.243 262.071 535.127 261.723C535.033 262.047 535.018 262.388 535.083 262.719C535.195 263.061 535.342 263.39 535.524 263.702Z" fill="black"/>
<path opacity="0.1" d="M539.675 269.51C538.932 270.449 537.546 270.505 536.349 270.461C535.842 270.463 535.339 270.386 534.856 270.234C534.616 270.43 534.358 270.612 534.106 270.789C534.724 271.29 535.512 271.532 536.305 271.463C537.502 271.513 538.887 271.463 539.631 270.518C540.057 269.888 540.24 269.125 540.147 268.37C540.091 268.784 539.929 269.177 539.675 269.51Z" fill="black"/>
<path opacity="0.1" d="M555.431 272.03C555.448 272.102 555.473 272.171 555.506 272.238C555.582 272.061 555.67 271.879 555.739 271.696C555.89 271.281 555.934 270.834 555.865 270.398C555.844 270.498 555.816 270.597 555.783 270.694C555.619 271.135 555.323 271.576 555.431 272.03Z" fill="black"/>
<path opacity="0.1" d="M546.964 261.421C547.036 260.989 547.036 260.549 546.964 260.117C546.84 259.511 546.537 258.956 546.095 258.523C545.652 258.091 545.091 257.801 544.482 257.692C544.148 257.635 543.814 257.635 543.486 257.572C543 257.429 542.527 257.241 542.075 257.011C541.618 256.779 541.091 256.723 540.595 256.854C540.028 257.055 540.097 257.484 539.845 257.899C539.662 258.202 539.253 258.353 539.026 258.63C538.527 259.296 538.301 260.128 538.396 260.955C538.475 260.473 538.677 260.019 538.982 259.638C539.209 259.355 539.612 259.21 539.801 258.907C540.053 258.485 539.984 258.063 540.551 257.862C541.046 257.729 541.573 257.783 542.031 258.013C542.482 258.245 542.955 258.433 543.442 258.574C543.77 258.643 544.072 258.643 544.438 258.693C545.046 258.804 545.608 259.094 546.05 259.526C546.492 259.958 546.795 260.513 546.92 261.119C546.941 261.218 546.955 261.319 546.964 261.421Z" fill="black"/>
<path opacity="0.1" d="M556.773 275.287C556.625 275.345 556.46 275.345 556.313 275.287C554.851 274.94 554.095 273.334 552.848 272.496C552.151 272.102 551.419 271.773 550.662 271.513C549.897 271.249 549.258 270.707 548.873 269.995C548.696 269.585 548.658 269.132 548.476 268.735C548.125 268.179 547.701 267.672 547.216 267.229C546.691 266.604 546.374 265.832 546.309 265.018C546.271 265.262 546.252 265.508 546.252 265.755C546.263 266.672 546.598 267.556 547.197 268.25C547.683 268.693 548.107 269.199 548.457 269.755C548.64 270.159 548.677 270.619 548.854 271.015C549.239 271.729 549.877 272.273 550.643 272.54C551.402 272.795 552.134 273.124 552.829 273.523C554.089 274.361 554.832 275.967 556.294 276.314C556.366 276.345 556.445 276.361 556.524 276.361C556.603 276.361 556.681 276.345 556.754 276.314C556.82 276.26 556.873 276.193 556.91 276.117C556.947 276.041 556.967 275.957 556.968 275.873C556.996 275.635 556.984 275.394 556.93 275.161C556.89 275.216 556.835 275.259 556.773 275.287Z" fill="black"/>
</g>
<path opacity="0.1" d="M529.664 254.057H521.563V265.629H529.664V254.057Z" fill="#33D69F"/>
<path opacity="0.1" d="M528.506 255.713H522.723V263.979H528.506V255.713Z" fill="#33D69F"/>
<path opacity="0.1" d="M569.58 255.795H556.275V262.738H569.58V255.795Z" fill="#33D69F"/>
<path opacity="0.1" d="M567.848 256.703H558.014V261.837H567.848V256.703Z" fill="#33D69F"/>
</g>
<defs>
<clipPath id="clip0">
<rect width="728" height="439.477" fill="white"/>
</clipPath>
</defs>
</svg>
