<svg width="112" height="112" viewBox="0 0 112 112" fill="none" xmlns="http://www.w3.org/2000/svg">
<circle cx="56" cy="56" r="54.25" stroke="#33D69F" stroke-width="3.5"/>
<path d="M40.7622 47.1384C40.7622 38.7914 47.5983 32 56 32C64.4018 32 71.2379 38.7913 71.2379 47.1383C71.2379 55.4852 64.4018 62.2766 56 62.2766C47.5983 62.2766 40.7622 55.4854 40.7622 47.1384Z" fill="#33D69F"/>
<path d="M77.1765 70.1401C72.3377 76.5402 64.6592 80.7059 56 80.7059C47.3408 80.7059 39.6623 76.54 34.8235 70.1399C40.1237 67.6064 47.695 64.9094 56 64.9094C64.3045 64.9094 71.8752 67.606 77.1765 70.1401Z" fill="#33D69F"/>
<path d="M11.7612 50.8302C11.7612 45.5075 16.0907 41.1768 21.4118 41.1768C26.7329 41.1768 31.0625 45.5074 31.0625 50.8301C31.0625 56.1529 26.7329 60.4836 21.4118 60.4836C16.0907 60.4836 11.7612 56.1529 11.7612 50.8302Z" fill="#33D69F"/>
<path d="M34.8235 65.498C31.759 69.5792 26.8959 72.2356 21.4118 72.2356C15.9276 72.2356 11.0646 69.5791 8.00002 65.4978C11.3568 63.8823 16.1519 62.1624 21.4118 62.1624C26.6713 62.1624 31.4661 63.882 34.8235 65.498Z" fill="#33D69F"/>
<path d="M80.9376 50.8302C80.9376 45.5075 85.2672 41.1768 90.5883 41.1768C95.9094 41.1768 100.239 45.5074 100.239 50.8301C100.239 56.1529 95.9094 60.4836 90.5883 60.4836C85.2672 60.4836 80.9376 56.1529 80.9376 50.8302Z" fill="#33D69F"/>
<path d="M104 65.498C100.935 69.5792 96.0724 72.2356 90.5883 72.2356C85.1041 72.2356 80.241 69.5791 77.1765 65.4978C80.5332 63.8823 85.3284 62.1624 90.5883 62.1624C95.8478 62.1624 100.643 63.882 104 65.498Z" fill="#33D69F"/>
</svg>
