<svg width="450" height="62" viewBox="0 0 450 62" fill="none" xmlns="http://www.w3.org/2000/svg">
<path d="M41.7047 19.2704C41.7047 8.64509 50.4067 0 61.1017 0C71.7966 0 80.4987 8.64493 80.4987 19.2702C80.4987 29.8955 71.7966 38.5406 61.1017 38.5406C50.4067 38.5406 41.7047 29.8956 41.7047 19.2704Z" fill="#33D69F"/>
<path d="M88.0581 48.5503C81.8986 56.6973 72.1242 62 61.1017 62C50.0789 62 40.3046 56.6971 34.1451 48.55C40.8919 45.325 50.5297 41.8919 61.1017 41.8919C71.6728 41.8919 81.3099 45.3245 88.0581 48.5503Z" fill="#33D69F"/>
<g opacity="0.6">
<path d="M4.78783 23.969C4.78783 17.1935 10.2991 11.6807 17.0726 11.6807C23.8461 11.6807 29.3574 17.1934 29.3574 23.9689C29.3574 30.7444 23.8461 36.2572 17.0726 36.2572C10.2991 36.2572 4.78783 30.7445 4.78783 23.969Z" fill="#33D69F"/>
<path d="M34.145 42.6403C30.244 47.8354 24.0536 51.2169 17.0726 51.2169C10.0915 51.2169 3.90113 47.8353 9.15527e-05 42.6401C4.27308 40.5836 10.3771 38.3943 17.0726 38.3943C23.7677 38.3943 29.8711 40.5833 34.145 42.6403Z" fill="#33D69F"/>
</g>
<g opacity="0.6">
<path d="M92.8459 23.0706C92.8459 16.295 98.3572 10.7822 105.131 10.7822C111.904 10.7822 117.415 16.2949 117.415 23.0705C117.415 29.846 111.904 35.3588 105.131 35.3588C98.3572 35.3588 92.8459 29.8461 92.8459 23.0706Z" fill="#33D69F"/>
<path d="M122.203 41.7418C118.302 46.937 112.112 50.3185 105.131 50.3185C98.1496 50.3185 91.9592 46.9369 88.0582 41.7417C92.3312 39.6851 98.4352 37.4959 105.131 37.4959C111.826 37.4959 117.929 39.6848 122.203 41.7418Z" fill="#33D69F"/>
</g>
<path d="M144.32 47V19.28H161.84V23.56H149.36V30.64H160.44V34.92H149.36V47H144.32Z" fill="white"/>
<path d="M181.173 46.36C180.24 46.6 179.026 46.84 177.533 47.08C176.04 47.3466 174.4 47.48 172.613 47.48C170.933 47.48 169.52 47.24 168.373 46.76C167.253 46.28 166.346 45.6133 165.653 44.76C164.986 43.9066 164.506 42.8933 164.213 41.72C163.92 40.52 163.773 39.2133 163.773 37.8V26.08H168.613V37.04C168.613 39.28 168.933 40.88 169.573 41.84C170.24 42.8 171.386 43.28 173.013 43.28C173.6 43.28 174.213 43.2533 174.853 43.2C175.52 43.1466 176.013 43.08 176.333 43V26.08H181.173V46.36Z" fill="white"/>
<path d="M185.893 20.56L190.733 19.76V26.08H198.173V30.12H190.733V38.64C190.733 40.32 191 41.52 191.533 42.24C192.067 42.96 192.973 43.32 194.253 43.32C195.133 43.32 195.907 43.2266 196.573 43.04C197.267 42.8533 197.813 42.68 198.213 42.52L199.013 46.36C198.453 46.6 197.72 46.84 196.813 47.08C195.907 47.3466 194.84 47.48 193.613 47.48C192.12 47.48 190.867 47.28 189.853 46.88C188.867 46.48 188.08 45.9066 187.493 45.16C186.907 44.3866 186.493 43.4666 186.253 42.4C186.013 41.3066 185.893 40.0666 185.893 38.68V20.56Z" fill="white"/>
<path d="M218.812 46.36C217.879 46.6 216.666 46.84 215.172 47.08C213.679 47.3466 212.039 47.48 210.252 47.48C208.572 47.48 207.159 47.24 206.012 46.76C204.892 46.28 203.986 45.6133 203.292 44.76C202.626 43.9066 202.146 42.8933 201.852 41.72C201.559 40.52 201.412 39.2133 201.412 37.8V26.08H206.252V37.04C206.252 39.28 206.572 40.88 207.212 41.84C207.879 42.8 209.026 43.28 210.652 43.28C211.239 43.28 211.852 43.2533 212.492 43.2C213.159 43.1466 213.652 43.08 213.972 43V26.08H218.812V46.36Z" fill="white"/>
<path d="M235.692 30.44C235.292 30.3066 234.732 30.1733 234.012 30.04C233.319 29.88 232.506 29.8 231.572 29.8C231.039 29.8 230.466 29.8533 229.853 29.96C229.266 30.0666 228.852 30.16 228.612 30.24V47H223.772V27.08C224.706 26.7333 225.866 26.4133 227.252 26.12C228.666 25.8 230.226 25.64 231.932 25.64C232.252 25.64 232.626 25.6666 233.052 25.72C233.479 25.7466 233.906 25.8 234.332 25.88C234.759 25.9333 235.172 26.0133 235.572 26.12C235.972 26.2 236.293 26.28 236.533 26.36L235.692 30.44Z" fill="white"/>
<path d="M237.545 36.64C237.545 34.8 237.812 33.1866 238.345 31.8C238.905 30.4133 239.639 29.2666 240.545 28.36C241.452 27.4266 242.492 26.7333 243.665 26.28C244.839 25.8 246.039 25.56 247.265 25.56C250.145 25.56 252.385 26.4533 253.985 28.24C255.612 30.0266 256.425 32.6933 256.425 36.24C256.425 36.5066 256.412 36.8133 256.385 37.16C256.385 37.48 256.372 37.7733 256.345 38.04H242.545C242.679 39.72 243.265 41.0266 244.305 41.96C245.372 42.8666 246.905 43.32 248.905 43.32C250.079 43.32 251.145 43.2133 252.105 43C253.092 42.7866 253.865 42.56 254.425 42.32L255.065 46.28C254.799 46.4133 254.425 46.56 253.945 46.72C253.492 46.8533 252.959 46.9733 252.345 47.08C251.759 47.2133 251.119 47.32 250.425 47.4C249.732 47.48 249.025 47.52 248.305 47.52C246.465 47.52 244.865 47.2533 243.505 46.72C242.145 46.16 241.025 45.4 240.145 44.44C239.265 43.4533 238.612 42.3066 238.185 41C237.759 39.6666 237.545 38.2133 237.545 36.64ZM251.585 34.48C251.585 33.8133 251.492 33.1866 251.305 32.6C251.119 31.9866 250.839 31.4666 250.465 31.04C250.119 30.5866 249.679 30.24 249.145 30C248.639 29.7333 248.025 29.6 247.305 29.6C246.559 29.6 245.905 29.7466 245.345 30.04C244.785 30.3066 244.305 30.6666 243.905 31.12C243.532 31.5733 243.239 32.0933 243.025 32.68C242.812 33.2666 242.665 33.8666 242.585 34.48H251.585Z" fill="white"/>
<path d="M288.053 19.28V23.64H279.533V47H274.453V23.64H265.933V19.28H288.053Z" fill="white"/>
<path d="M296.215 43.6C297.709 43.6 298.842 43.52 299.615 43.36V38C299.349 37.92 298.962 37.84 298.455 37.76C297.949 37.68 297.389 37.64 296.775 37.64C296.242 37.64 295.695 37.68 295.135 37.76C294.602 37.84 294.109 37.9866 293.655 38.2C293.229 38.4133 292.882 38.72 292.615 39.12C292.349 39.4933 292.215 39.9733 292.215 40.56C292.215 41.7066 292.575 42.5066 293.295 42.96C294.015 43.3866 294.989 43.6 296.215 43.6ZM295.815 25.56C297.415 25.56 298.762 25.76 299.855 26.16C300.949 26.56 301.815 27.12 302.455 27.84C303.122 28.56 303.589 29.44 303.855 30.48C304.149 31.4933 304.295 32.6133 304.295 33.84V46.52C303.549 46.68 302.415 46.8666 300.895 47.08C299.402 47.32 297.709 47.44 295.815 47.44C294.562 47.44 293.415 47.32 292.375 47.08C291.335 46.84 290.442 46.4533 289.695 45.92C288.975 45.3866 288.402 44.6933 287.975 43.84C287.575 42.9866 287.375 41.9333 287.375 40.68C287.375 39.48 287.602 38.4666 288.055 37.64C288.535 36.8133 289.175 36.1466 289.975 35.64C290.775 35.1066 291.695 34.7333 292.735 34.52C293.802 34.28 294.909 34.16 296.055 34.16C296.589 34.16 297.149 34.2 297.735 34.28C298.322 34.3333 298.949 34.44 299.615 34.6V33.8C299.615 33.24 299.549 32.7066 299.415 32.2C299.282 31.6933 299.042 31.2533 298.695 30.88C298.375 30.48 297.935 30.1733 297.375 29.96C296.842 29.7466 296.162 29.64 295.335 29.64C294.215 29.64 293.189 29.72 292.255 29.88C291.322 30.04 290.562 30.2266 289.975 30.44L289.375 26.52C289.989 26.3066 290.882 26.0933 292.055 25.88C293.229 25.6666 294.482 25.56 295.815 25.56Z" fill="white"/>
<path d="M316.302 47.4C314.862 47.3733 313.663 47.2133 312.702 46.92C311.769 46.6266 311.022 46.2133 310.462 45.68C309.902 45.12 309.503 44.44 309.262 43.64C309.049 42.8133 308.942 41.88 308.942 40.84V16.76L313.783 15.96V39.92C313.783 40.5066 313.822 41 313.902 41.4C314.009 41.8 314.182 42.1466 314.423 42.44C314.663 42.7066 314.982 42.92 315.382 43.08C315.809 43.2133 316.342 43.32 316.982 43.4L316.302 47.4Z" fill="white"/>
<path d="M318.538 36.64C318.538 34.8 318.804 33.1866 319.337 31.8C319.897 30.4133 320.631 29.2666 321.538 28.36C322.444 27.4266 323.484 26.7333 324.658 26.28C325.831 25.8 327.031 25.56 328.258 25.56C331.138 25.56 333.377 26.4533 334.977 28.24C336.604 30.0266 337.417 32.6933 337.417 36.24C337.417 36.5066 337.404 36.8133 337.378 37.16C337.378 37.48 337.364 37.7733 337.337 38.04H323.538C323.671 39.72 324.258 41.0266 325.298 41.96C326.364 42.8666 327.898 43.32 329.898 43.32C331.071 43.32 332.137 43.2133 333.098 43C334.084 42.7866 334.857 42.56 335.417 42.32L336.057 46.28C335.791 46.4133 335.417 46.56 334.938 46.72C334.484 46.8533 333.951 46.9733 333.337 47.08C332.751 47.2133 332.111 47.32 331.417 47.4C330.724 47.48 330.018 47.52 329.298 47.52C327.458 47.52 325.857 47.2533 324.497 46.72C323.137 46.16 322.018 45.4 321.137 44.44C320.257 43.4533 319.604 42.3066 319.178 41C318.751 39.6666 318.538 38.2133 318.538 36.64ZM332.577 34.48C332.577 33.8133 332.484 33.1866 332.298 32.6C332.111 31.9866 331.831 31.4666 331.458 31.04C331.111 30.5866 330.671 30.24 330.137 30C329.631 29.7333 329.018 29.6 328.298 29.6C327.551 29.6 326.897 29.7466 326.337 30.04C325.777 30.3066 325.298 30.6666 324.898 31.12C324.524 31.5733 324.231 32.0933 324.018 32.68C323.804 33.2666 323.658 33.8666 323.577 34.48H332.577Z" fill="white"/>
<path d="M341.349 26.76C342.282 26.4933 343.496 26.24 344.989 26C346.482 25.76 348.136 25.64 349.949 25.64C351.656 25.64 353.082 25.88 354.229 26.36C355.376 26.8133 356.282 27.4666 356.949 28.32C357.642 29.1466 358.122 30.16 358.389 31.36C358.682 32.5333 358.829 33.8266 358.829 35.24V47H353.989V36C353.989 34.88 353.909 33.9333 353.749 33.16C353.616 32.36 353.376 31.72 353.029 31.24C352.709 30.7333 352.256 30.3733 351.669 30.16C351.109 29.92 350.416 29.8 349.589 29.8C348.976 29.8 348.336 29.84 347.669 29.92C347.002 30 346.509 30.0666 346.189 30.12V47H341.349V26.76Z" fill="white"/>
<path d="M363.308 20.56L368.148 19.76V26.08H375.588V30.12H368.148V38.64C368.148 40.32 368.414 41.52 368.948 42.24C369.481 42.96 370.388 43.32 371.668 43.32C372.548 43.32 373.321 43.2266 373.988 43.04C374.681 42.8533 375.228 42.68 375.628 42.52L376.428 46.36C375.868 46.6 375.134 46.84 374.228 47.08C373.321 47.3466 372.254 47.48 371.028 47.48C369.534 47.48 368.281 47.28 367.268 46.88C366.281 46.48 365.494 45.9066 364.908 45.16C364.321 44.3866 363.908 43.4666 363.668 42.4C363.428 41.3066 363.308 40.0666 363.308 38.68V20.56Z" fill="white"/>
<path d="M387.442 47V19.28H404.962V23.56H392.482V30.64H403.562V34.92H392.482V47H387.442Z" fill="white"/>
<path d="M413.597 43.6C415.09 43.6 416.223 43.52 416.997 43.36V38C416.73 37.92 416.343 37.84 415.837 37.76C415.33 37.68 414.77 37.64 414.157 37.64C413.623 37.64 413.077 37.68 412.517 37.76C411.983 37.84 411.49 37.9866 411.037 38.2C410.61 38.4133 410.263 38.72 409.997 39.12C409.73 39.4933 409.597 39.9733 409.597 40.56C409.597 41.7066 409.957 42.5066 410.677 42.96C411.397 43.3866 412.37 43.6 413.597 43.6ZM413.197 25.56C414.797 25.56 416.143 25.76 417.237 26.16C418.33 26.56 419.197 27.12 419.837 27.84C420.503 28.56 420.97 29.44 421.237 30.48C421.53 31.4933 421.677 32.6133 421.677 33.84V46.52C420.93 46.68 419.797 46.8666 418.277 47.08C416.783 47.32 415.09 47.44 413.197 47.44C411.943 47.44 410.797 47.32 409.757 47.08C408.717 46.84 407.823 46.4533 407.077 45.92C406.357 45.3866 405.783 44.6933 405.357 43.84C404.957 42.9866 404.757 41.9333 404.757 40.68C404.757 39.48 404.983 38.4666 405.437 37.64C405.917 36.8133 406.557 36.1466 407.357 35.64C408.157 35.1066 409.077 34.7333 410.117 34.52C411.183 34.28 412.29 34.16 413.437 34.16C413.97 34.16 414.53 34.2 415.117 34.28C415.703 34.3333 416.33 34.44 416.997 34.6V33.8C416.997 33.24 416.93 32.7066 416.797 32.2C416.663 31.6933 416.423 31.2533 416.077 30.88C415.757 30.48 415.317 30.1733 414.757 29.96C414.223 29.7466 413.543 29.64 412.717 29.64C411.597 29.64 410.57 29.72 409.637 29.88C408.703 30.04 407.943 30.2266 407.357 30.44L406.757 26.52C407.37 26.3066 408.263 26.0933 409.437 25.88C410.61 25.6666 411.863 25.56 413.197 25.56Z" fill="white"/>
<path d="M431.284 47H426.444V26.08H431.284V47ZM431.804 19.96C431.804 20.8666 431.51 21.5866 430.924 22.12C430.337 22.6533 429.644 22.92 428.844 22.92C428.017 22.92 427.31 22.6533 426.724 22.12C426.137 21.5866 425.844 20.8666 425.844 19.96C425.844 19.0266 426.137 18.2933 426.724 17.76C427.31 17.2266 428.017 16.96 428.844 16.96C429.644 16.96 430.337 17.2266 430.924 17.76C431.51 18.2933 431.804 19.0266 431.804 19.96Z" fill="white"/>
<path d="M448.178 30.44C447.778 30.3066 447.218 30.1733 446.498 30.04C445.805 29.88 444.992 29.8 444.058 29.8C443.525 29.8 442.952 29.8533 442.338 29.96C441.752 30.0666 441.338 30.16 441.098 30.24V47H436.258V27.08C437.192 26.7333 438.352 26.4133 439.738 26.12C441.152 25.8 442.712 25.64 444.418 25.64C444.738 25.64 445.112 25.6666 445.538 25.72C445.965 25.7466 446.392 25.8 446.818 25.88C447.245 25.9333 447.658 26.0133 448.058 26.12C448.458 26.2 448.778 26.28 449.018 26.36L448.178 30.44Z" fill="white"/>
</svg>
