<svg width="403" height="72" viewBox="0 0 403 72" fill="none" xmlns="http://www.w3.org/2000/svg">
<path d="M97.3203 51V23.28H114.84V27.56H102.36V34.64H113.44V38.92H102.36V51H97.3203Z" fill="white"/>
<path d="M134.173 50.36C133.24 50.6 132.026 50.84 130.533 51.08C129.04 51.3466 127.4 51.48 125.613 51.48C123.933 51.48 122.52 51.24 121.373 50.76C120.253 50.28 119.346 49.6133 118.653 48.76C117.986 47.9066 117.506 46.8933 117.213 45.72C116.92 44.52 116.773 43.2133 116.773 41.8V30.08H121.613V41.04C121.613 43.28 121.933 44.88 122.573 45.84C123.24 46.8 124.386 47.28 126.013 47.28C126.6 47.28 127.213 47.2533 127.853 47.2C128.52 47.1466 129.013 47.08 129.333 47V30.08H134.173V50.36Z" fill="white"/>
<path d="M138.893 24.56L143.733 23.76V30.08H151.173V34.12H143.733V42.64C143.733 44.32 144 45.52 144.533 46.24C145.067 46.96 145.973 47.32 147.253 47.32C148.133 47.32 148.907 47.2266 149.573 47.04C150.267 46.8533 150.813 46.68 151.213 46.52L152.013 50.36C151.453 50.6 150.72 50.84 149.813 51.08C148.907 51.3466 147.84 51.48 146.613 51.48C145.12 51.48 143.867 51.28 142.853 50.88C141.867 50.48 141.08 49.9066 140.493 49.16C139.907 48.3866 139.493 47.4666 139.253 46.4C139.013 45.3066 138.893 44.0666 138.893 42.68V24.56Z" fill="white"/>
<path d="M171.812 50.36C170.879 50.6 169.666 50.84 168.172 51.08C166.679 51.3466 165.039 51.48 163.252 51.48C161.572 51.48 160.159 51.24 159.012 50.76C157.892 50.28 156.986 49.6133 156.292 48.76C155.626 47.9066 155.146 46.8933 154.852 45.72C154.559 44.52 154.412 43.2133 154.412 41.8V30.08H159.252V41.04C159.252 43.28 159.572 44.88 160.212 45.84C160.879 46.8 162.026 47.28 163.652 47.28C164.239 47.28 164.852 47.2533 165.492 47.2C166.159 47.1466 166.652 47.08 166.972 47V30.08H171.812V50.36Z" fill="white"/>
<path d="M188.692 34.44C188.292 34.3066 187.732 34.1733 187.012 34.04C186.319 33.88 185.506 33.8 184.572 33.8C184.039 33.8 183.466 33.8533 182.853 33.96C182.266 34.0666 181.852 34.16 181.612 34.24V51H176.772V31.08C177.706 30.7333 178.866 30.4133 180.252 30.12C181.666 29.8 183.226 29.64 184.932 29.64C185.252 29.64 185.626 29.6666 186.052 29.72C186.479 29.7466 186.906 29.8 187.332 29.88C187.759 29.9333 188.172 30.0133 188.572 30.12C188.972 30.2 189.293 30.28 189.533 30.36L188.692 34.44Z" fill="white"/>
<path d="M190.545 40.64C190.545 38.8 190.812 37.1866 191.345 35.8C191.905 34.4133 192.639 33.2666 193.545 32.36C194.452 31.4266 195.492 30.7333 196.665 30.28C197.839 29.8 199.039 29.56 200.265 29.56C203.145 29.56 205.385 30.4533 206.985 32.24C208.612 34.0266 209.425 36.6933 209.425 40.24C209.425 40.5066 209.412 40.8133 209.385 41.16C209.385 41.48 209.372 41.7733 209.345 42.04H195.545C195.679 43.72 196.265 45.0266 197.305 45.96C198.372 46.8666 199.905 47.32 201.905 47.32C203.079 47.32 204.145 47.2133 205.105 47C206.092 46.7866 206.865 46.56 207.425 46.32L208.065 50.28C207.799 50.4133 207.425 50.56 206.945 50.72C206.492 50.8533 205.959 50.9733 205.345 51.08C204.759 51.2133 204.119 51.32 203.425 51.4C202.732 51.48 202.025 51.52 201.305 51.52C199.465 51.52 197.865 51.2533 196.505 50.72C195.145 50.16 194.025 49.4 193.145 48.44C192.265 47.4533 191.612 46.3066 191.185 45C190.759 43.6666 190.545 42.2133 190.545 40.64ZM204.585 38.48C204.585 37.8133 204.492 37.1866 204.305 36.6C204.119 35.9866 203.839 35.4666 203.465 35.04C203.119 34.5866 202.679 34.24 202.145 34C201.639 33.7333 201.025 33.6 200.305 33.6C199.559 33.6 198.905 33.7466 198.345 34.04C197.785 34.3066 197.305 34.6666 196.905 35.12C196.532 35.5733 196.239 36.0933 196.025 36.68C195.812 37.2666 195.665 37.8666 195.585 38.48H204.585Z" fill="white"/>
<path d="M241.053 23.28V27.64H232.533V51H227.453V27.64H218.933V23.28H241.053Z" fill="white"/>
<path d="M249.215 47.6C250.709 47.6 251.842 47.52 252.615 47.36V42C252.349 41.92 251.962 41.84 251.455 41.76C250.949 41.68 250.389 41.64 249.775 41.64C249.242 41.64 248.695 41.68 248.135 41.76C247.602 41.84 247.109 41.9866 246.655 42.2C246.229 42.4133 245.882 42.72 245.615 43.12C245.349 43.4933 245.215 43.9733 245.215 44.56C245.215 45.7066 245.575 46.5066 246.295 46.96C247.015 47.3866 247.989 47.6 249.215 47.6ZM248.815 29.56C250.415 29.56 251.762 29.76 252.855 30.16C253.949 30.56 254.815 31.12 255.455 31.84C256.122 32.56 256.589 33.44 256.855 34.48C257.149 35.4933 257.295 36.6133 257.295 37.84V50.52C256.549 50.68 255.415 50.8666 253.895 51.08C252.402 51.32 250.709 51.44 248.815 51.44C247.562 51.44 246.415 51.32 245.375 51.08C244.335 50.84 243.442 50.4533 242.695 49.92C241.975 49.3866 241.402 48.6933 240.975 47.84C240.575 46.9866 240.375 45.9333 240.375 44.68C240.375 43.48 240.602 42.4666 241.055 41.64C241.535 40.8133 242.175 40.1466 242.975 39.64C243.775 39.1066 244.695 38.7333 245.735 38.52C246.802 38.28 247.909 38.16 249.055 38.16C249.589 38.16 250.149 38.2 250.735 38.28C251.322 38.3333 251.949 38.44 252.615 38.6V37.8C252.615 37.24 252.549 36.7066 252.415 36.2C252.282 35.6933 252.042 35.2533 251.695 34.88C251.375 34.48 250.935 34.1733 250.375 33.96C249.842 33.7466 249.162 33.64 248.335 33.64C247.215 33.64 246.189 33.72 245.255 33.88C244.322 34.04 243.562 34.2266 242.975 34.44L242.375 30.52C242.989 30.3066 243.882 30.0933 245.055 29.88C246.229 29.6666 247.482 29.56 248.815 29.56Z" fill="white"/>
<path d="M269.302 51.4C267.862 51.3733 266.663 51.2133 265.702 50.92C264.769 50.6266 264.022 50.2133 263.462 49.68C262.902 49.12 262.503 48.44 262.262 47.64C262.049 46.8133 261.942 45.88 261.942 44.84V20.76L266.783 19.96V43.92C266.783 44.5066 266.822 45 266.902 45.4C267.009 45.8 267.182 46.1466 267.423 46.44C267.663 46.7066 267.982 46.92 268.382 47.08C268.809 47.2133 269.342 47.32 269.982 47.4L269.302 51.4Z" fill="white"/>
<path d="M271.538 40.64C271.538 38.8 271.804 37.1866 272.337 35.8C272.897 34.4133 273.631 33.2666 274.538 32.36C275.444 31.4266 276.484 30.7333 277.658 30.28C278.831 29.8 280.031 29.56 281.258 29.56C284.138 29.56 286.377 30.4533 287.977 32.24C289.604 34.0266 290.417 36.6933 290.417 40.24C290.417 40.5066 290.404 40.8133 290.378 41.16C290.378 41.48 290.364 41.7733 290.337 42.04H276.538C276.671 43.72 277.258 45.0266 278.298 45.96C279.364 46.8666 280.898 47.32 282.898 47.32C284.071 47.32 285.137 47.2133 286.098 47C287.084 46.7866 287.857 46.56 288.417 46.32L289.057 50.28C288.791 50.4133 288.417 50.56 287.938 50.72C287.484 50.8533 286.951 50.9733 286.337 51.08C285.751 51.2133 285.111 51.32 284.417 51.4C283.724 51.48 283.018 51.52 282.298 51.52C280.458 51.52 278.857 51.2533 277.497 50.72C276.137 50.16 275.018 49.4 274.137 48.44C273.257 47.4533 272.604 46.3066 272.178 45C271.751 43.6666 271.538 42.2133 271.538 40.64ZM285.577 38.48C285.577 37.8133 285.484 37.1866 285.298 36.6C285.111 35.9866 284.831 35.4666 284.458 35.04C284.111 34.5866 283.671 34.24 283.137 34C282.631 33.7333 282.018 33.6 281.298 33.6C280.551 33.6 279.897 33.7466 279.337 34.04C278.777 34.3066 278.298 34.6666 277.898 35.12C277.524 35.5733 277.231 36.0933 277.018 36.68C276.804 37.2666 276.658 37.8666 276.577 38.48H285.577Z" fill="white"/>
<path d="M294.349 30.76C295.282 30.4933 296.496 30.24 297.989 30C299.482 29.76 301.136 29.64 302.949 29.64C304.656 29.64 306.082 29.88 307.229 30.36C308.376 30.8133 309.282 31.4666 309.949 32.32C310.642 33.1466 311.122 34.16 311.389 35.36C311.682 36.5333 311.829 37.8266 311.829 39.24V51H306.989V40C306.989 38.88 306.909 37.9333 306.749 37.16C306.616 36.36 306.376 35.72 306.029 35.24C305.709 34.7333 305.256 34.3733 304.669 34.16C304.109 33.92 303.416 33.8 302.589 33.8C301.976 33.8 301.336 33.84 300.669 33.92C300.002 34 299.509 34.0666 299.189 34.12V51H294.349V30.76Z" fill="white"/>
<path d="M316.308 24.56L321.148 23.76V30.08H328.588V34.12H321.148V42.64C321.148 44.32 321.414 45.52 321.948 46.24C322.481 46.96 323.388 47.32 324.668 47.32C325.548 47.32 326.321 47.2266 326.988 47.04C327.681 46.8533 328.228 46.68 328.628 46.52L329.428 50.36C328.868 50.6 328.134 50.84 327.228 51.08C326.321 51.3466 325.254 51.48 324.028 51.48C322.534 51.48 321.281 51.28 320.268 50.88C319.281 50.48 318.494 49.9066 317.908 49.16C317.321 48.3866 316.908 47.4666 316.668 46.4C316.428 45.3066 316.308 44.0666 316.308 42.68V24.56Z" fill="white"/>
<path d="M340.442 51V23.28H357.962V27.56H345.482V34.64H356.562V38.92H345.482V51H340.442Z" fill="white"/>
<path d="M366.597 47.6C368.09 47.6 369.223 47.52 369.997 47.36V42C369.73 41.92 369.343 41.84 368.837 41.76C368.33 41.68 367.77 41.64 367.157 41.64C366.623 41.64 366.077 41.68 365.517 41.76C364.983 41.84 364.49 41.9866 364.037 42.2C363.61 42.4133 363.263 42.72 362.997 43.12C362.73 43.4933 362.597 43.9733 362.597 44.56C362.597 45.7066 362.957 46.5066 363.677 46.96C364.397 47.3866 365.37 47.6 366.597 47.6ZM366.197 29.56C367.797 29.56 369.143 29.76 370.237 30.16C371.33 30.56 372.197 31.12 372.837 31.84C373.503 32.56 373.97 33.44 374.237 34.48C374.53 35.4933 374.677 36.6133 374.677 37.84V50.52C373.93 50.68 372.797 50.8666 371.277 51.08C369.783 51.32 368.09 51.44 366.197 51.44C364.943 51.44 363.797 51.32 362.757 51.08C361.717 50.84 360.823 50.4533 360.077 49.92C359.357 49.3866 358.783 48.6933 358.357 47.84C357.957 46.9866 357.757 45.9333 357.757 44.68C357.757 43.48 357.983 42.4666 358.437 41.64C358.917 40.8133 359.557 40.1466 360.357 39.64C361.157 39.1066 362.077 38.7333 363.117 38.52C364.183 38.28 365.29 38.16 366.437 38.16C366.97 38.16 367.53 38.2 368.117 38.28C368.703 38.3333 369.33 38.44 369.997 38.6V37.8C369.997 37.24 369.93 36.7066 369.797 36.2C369.663 35.6933 369.423 35.2533 369.077 34.88C368.757 34.48 368.317 34.1733 367.757 33.96C367.223 33.7466 366.543 33.64 365.717 33.64C364.597 33.64 363.57 33.72 362.637 33.88C361.703 34.04 360.943 34.2266 360.357 34.44L359.757 30.52C360.37 30.3066 361.263 30.0933 362.437 29.88C363.61 29.6666 364.863 29.56 366.197 29.56Z" fill="white"/>
<path d="M384.284 51H379.444V30.08H384.284V51ZM384.804 23.96C384.804 24.8666 384.51 25.5866 383.924 26.12C383.337 26.6533 382.644 26.92 381.844 26.92C381.017 26.92 380.31 26.6533 379.724 26.12C379.137 25.5866 378.844 24.8666 378.844 23.96C378.844 23.0266 379.137 22.2933 379.724 21.76C380.31 21.2266 381.017 20.96 381.844 20.96C382.644 20.96 383.337 21.2266 383.924 21.76C384.51 22.2933 384.804 23.0266 384.804 23.96Z" fill="white"/>
<path d="M401.178 34.44C400.778 34.3066 400.218 34.1733 399.498 34.04C398.805 33.88 397.992 33.8 397.058 33.8C396.525 33.8 395.952 33.8533 395.338 33.96C394.752 34.0666 394.338 34.16 394.098 34.24V51H389.258V31.08C390.192 30.7333 391.352 30.4133 392.738 30.12C394.152 29.8 395.712 29.64 397.418 29.64C397.738 29.64 398.112 29.6666 398.538 29.72C398.965 29.7466 399.392 29.8 399.818 29.88C400.245 29.9333 400.658 30.0133 401.058 30.12C401.458 30.2 401.778 30.28 402.018 30.36L401.178 34.44Z" fill="white"/>
<circle cx="36" cy="36" r="34.25" stroke="#33D69F" stroke-opacity="0.6" stroke-width="3.5"/>
<path d="M26.2036 30.3036C26.2036 24.9377 30.5983 20.5718 35.9994 20.5718C41.4005 20.5718 45.7952 24.9376 45.7952 30.3035C45.7952 35.6694 41.4005 40.0353 35.9994 40.0353C30.5983 40.0353 26.2036 35.6695 26.2036 30.3036Z" fill="#33D69F"/>
<path d="M49.6128 45.0904C46.5021 49.2047 41.566 51.8827 35.9994 51.8827C30.4327 51.8827 25.4966 49.2047 22.3859 45.0903C25.7931 43.4616 30.6604 41.7278 35.9994 41.7278C41.338 41.7278 46.2048 43.4613 49.6128 45.0904Z" fill="#33D69F"/>
<g opacity="0.6">
<path d="M7.56041 32.6765C7.56041 29.2548 10.3437 26.4707 13.7644 26.4707C17.1851 26.4707 19.9684 29.2547 19.9684 32.6764C19.9684 36.0982 17.1851 38.8822 13.7644 38.8822C10.3437 38.8822 7.56041 36.0982 7.56041 32.6765Z" fill="#33D69F"/>
<path d="M22.3862 42.1058C20.4161 44.7294 17.2899 46.4371 13.7644 46.4371C10.2389 46.4371 7.11262 44.7294 5.14253 42.1057C7.30045 41.0671 10.3831 39.9615 13.7644 39.9615C17.1455 39.9615 20.2279 41.0669 22.3862 42.1058Z" fill="#33D69F"/>
</g>
<g opacity="0.6">
<path d="M52.0311 32.6765C52.0311 29.2548 54.8144 26.4707 58.2351 26.4707C61.6558 26.4707 64.4391 29.2547 64.4391 32.6764C64.4391 36.0982 61.6558 38.8822 58.2351 38.8822C54.8144 38.8822 52.0311 36.0982 52.0311 32.6765Z" fill="#33D69F"/>
<path d="M66.8569 42.1058C64.8869 44.7294 61.7606 46.4371 58.2351 46.4371C54.7096 46.4371 51.5833 44.7294 49.6132 42.1057C51.7712 41.0671 54.8538 39.9615 58.2351 39.9615C61.6162 39.9615 64.6986 41.0669 66.8569 42.1058Z" fill="#33D69F"/>
</g>
</svg>
