<svg width="748" height="522" viewBox="0 0 748 522" fill="none" xmlns="http://www.w3.org/2000/svg">
<g clip-path="url(#clip0)">
<path d="M703.783 304.363C677.791 340.045 686.368 390.977 701.393 431.554C706.425 445.137 712.142 459.504 709.533 474.283C706.346 492.349 691.368 505.886 675.799 513.259C647.416 526.696 613.888 524.551 588.5 507.62C566.59 493.007 551.168 468.723 528.833 454.808C491.454 431.527 442.928 441.929 401.327 459.703C371.896 472.277 339.656 488.47 310.974 476.86C290.791 468.69 277.2 447.894 270.05 425.662C266.598 414.929 264.181 403.278 257.303 394.876C253.213 389.881 247.809 386.401 242.252 383.491C191.535 356.923 126.298 373.528 77.1279 343.884C43.9318 323.865 23.2706 285.015 14.6861 244.172C6.1016 203.33 8.22615 160.215 11.6453 117.838C14.0753 87.723 17.9194 55.5417 36.0179 31.8757C55.1587 6.84812 87.2394 -3.10182 115.927 0.823695C144.615 4.74921 170.329 20.7103 192.836 39.7068C220.966 63.4525 246.866 93.2559 281.874 102.263C305.716 108.4 331.044 104.056 355.829 102.136C397.257 98.9349 438.54 102.621 479.57 106.786C518.848 110.771 558.398 115.221 595.597 128.287C621.922 137.532 642.789 155.008 667.573 166.951C683.726 174.735 701.499 176.542 716.703 186.598C735.465 198.986 752.422 220.931 746.918 247.267C741.719 272.295 717.579 285.427 703.783 304.363Z" fill="#E4F5F2"/>
<path d="M382.751 105.55H259.102C255.578 105.55 252.722 108.408 252.722 111.933V190.855C252.722 194.381 255.578 197.239 259.102 197.239H382.751C386.274 197.239 389.131 194.381 389.131 190.855V111.933C389.131 108.408 386.274 105.55 382.751 105.55Z" fill="#474059"/>
<path d="M385.971 116.257H255.59V191.161H385.971V116.257Z" fill="white"/>
<path d="M320.78 113.627C321.414 113.627 321.929 113.071 321.929 112.385C321.929 111.699 321.414 111.143 320.78 111.143C320.146 111.143 319.631 111.699 319.631 112.385C319.631 113.071 320.146 113.627 320.78 113.627Z" fill="white"/>
<path d="M332.518 193.917H308.617V219.158H332.518V193.917Z" fill="#474059"/>
<path d="M306.625 217.165H335.838C336.894 217.165 337.907 217.585 338.654 218.332C339.401 219.08 339.821 220.093 339.821 221.15H302.642C302.642 220.093 303.061 219.08 303.808 218.332C304.555 217.585 305.569 217.165 306.625 217.165Z" fill="#474059"/>
<path d="M252.848 238.42H154.587V272.295H252.848V238.42Z" fill="#B0B9C7"/>
<path d="M576.841 221.814H555.596V406.466H576.841V221.814Z" fill="#B0B9C7"/>
<path opacity="0.1" d="M252.848 238.42H154.587V240.413H252.848V238.42Z" fill="black"/>
<path opacity="0.1" d="M576.841 221.814H555.596V240.412H576.841V221.814Z" fill="black"/>
<path d="M252.848 270.966H154.587V304.841H252.848V270.966Z" fill="#B0B9C7"/>
<path d="M203.717 293.55C207.018 293.55 209.693 290.873 209.693 287.572C209.693 284.27 207.018 281.594 203.717 281.594C200.417 281.594 197.742 284.27 197.742 287.572C197.742 290.873 200.417 293.55 203.717 293.55Z" fill="#33D69F"/>
<path d="M203.717 261.003C207.018 261.003 209.693 258.327 209.693 255.025C209.693 251.724 207.018 249.047 203.717 249.047C200.417 249.047 197.742 251.724 197.742 255.025C197.742 258.327 200.417 261.003 203.717 261.003Z" fill="#33D69F"/>
<path d="M252.848 304.841H154.587V338.716H252.848V304.841Z" fill="#B0B9C7"/>
<path d="M203.717 326.761C207.018 326.761 209.693 324.084 209.693 320.783C209.693 317.481 207.018 314.805 203.717 314.805C200.417 314.805 197.742 317.481 197.742 320.783C197.742 324.084 200.417 326.761 203.717 326.761Z" fill="#33D69F"/>
<path d="M252.848 338.716H154.587V372.591H252.848V338.716Z" fill="#B0B9C7"/>
<path d="M203.717 360.636C207.018 360.636 209.693 357.959 209.693 354.658C209.693 351.356 207.018 348.68 203.717 348.68C200.417 348.68 197.742 351.356 197.742 354.658C197.742 357.959 200.417 360.636 203.717 360.636Z" fill="#33D69F"/>
<path d="M252.848 372.591H154.587V406.466H252.848V372.591Z" fill="#B0B9C7"/>
<path d="M203.717 394.511C207.018 394.511 209.693 391.834 209.693 388.533C209.693 385.231 207.018 382.555 203.717 382.555C200.417 382.555 197.742 385.231 197.742 388.533C197.742 391.834 200.417 394.511 203.717 394.511Z" fill="#33D69F"/>
<path opacity="0.1" d="M252.848 302.849H154.587V305.506H252.848V302.849Z" fill="#373B53"/>
<path opacity="0.1" d="M252.848 269.638H154.587V272.295H252.848V269.638Z" fill="#373B53"/>
<path opacity="0.1" d="M252.848 336.724H154.587V339.38H252.848V336.724Z" fill="#373B53"/>
<path opacity="0.1" d="M252.848 370.599H154.587V373.255H252.848V370.599Z" fill="#373B53"/>
<path d="M100.657 382.083C100.657 382.083 98.4661 317.149 63.3513 280.458C48.6123 265.061 38.9323 245.507 36.3696 224.345C35.1716 214.302 34.896 204.17 35.5463 194.077" stroke="#535461" stroke-width="2" stroke-miterlimit="10"/>
<path d="M13.5505 170.843C15.9539 178.096 36.0442 194.755 36.0442 194.755C36.0442 194.755 42.1987 169.375 39.7953 162.128C38.6411 158.647 36.1516 155.766 32.8745 154.121C29.5974 152.475 25.8012 152.199 22.3209 153.354C18.8406 154.509 15.9614 156.999 14.3166 160.278C12.6719 163.556 12.3963 167.354 13.5505 170.836V170.843Z" fill="#33D69F"/>
<path d="M5.1717 218.195C11.147 222.977 37.0399 226.046 37.0399 226.046C37.0399 226.046 28.4089 201.397 22.4336 196.621C19.5732 194.326 15.9184 193.261 12.2734 193.662C8.62842 194.062 5.29171 195.895 2.99735 198.757C0.702994 201.618 -0.361078 205.275 0.0392191 208.921C0.439517 212.568 2.27139 215.906 5.13186 218.202L5.1717 218.195Z" fill="#33D69F"/>
<path d="M28.8741 286.51C36.4295 287.625 60.3506 277.21 60.3506 277.21C60.3506 277.21 40.4662 260.266 32.9174 259.144C29.2901 258.607 25.5984 259.535 22.6543 261.721C19.7103 263.908 17.7551 267.175 17.219 270.804C16.6828 274.433 17.6095 278.126 19.7953 281.072C21.9811 284.017 25.2468 285.973 28.8741 286.51Z" fill="#33D69F"/>
<path d="M58.4315 334.16C65.6882 336.538 91.03 330.294 91.03 330.294C91.03 330.294 74.2926 310.255 67.0359 307.877C63.5521 306.732 59.7564 307.018 56.4836 308.673C53.2109 310.328 50.7293 313.216 49.5848 316.701C48.4402 320.186 48.7265 323.984 50.3806 327.258C52.0347 330.532 54.9212 333.015 58.405 334.16H58.4315Z" fill="#33D69F"/>
<path d="M65.0707 218.308C61.5453 225.083 39.0649 238.354 39.0649 238.354C39.0649 238.354 37.02 212.323 40.5454 205.541C41.3833 203.93 42.5302 202.5 43.9205 201.333C45.3108 200.165 46.9175 199.283 48.6486 198.736C50.3798 198.19 52.2016 197.99 54.01 198.148C55.8184 198.305 57.578 198.818 59.1883 199.656C60.7987 200.495 62.2282 201.642 63.3954 203.033C64.5625 204.424 65.4444 206.031 65.9906 207.763C66.5368 209.495 66.7367 211.318 66.5789 213.127C66.421 214.936 65.9086 216.697 65.0707 218.308Z" fill="#33D69F"/>
<path d="M98.9373 274.474C93.5462 279.887 68.1313 285.812 68.1313 285.812C68.1313 285.812 73.9672 260.359 79.3516 254.946C81.9391 252.347 85.4524 250.884 89.1186 250.877C92.7848 250.87 96.3035 252.321 98.9008 254.909C101.498 257.498 102.961 261.013 102.968 264.681C102.975 268.348 101.525 271.869 98.9373 274.467V274.474Z" fill="#33D69F"/>
<path d="M124.366 333.582C119.97 339.826 95.9165 349.968 95.9165 349.968C95.9165 349.968 97.3639 323.898 101.766 317.647C102.784 316.098 104.104 314.769 105.646 313.74C107.188 312.711 108.921 312.003 110.742 311.658C112.564 311.313 114.436 311.337 116.247 311.731C118.059 312.124 119.772 312.878 121.287 313.947C122.801 315.017 124.085 316.38 125.062 317.956C126.039 319.532 126.689 321.288 126.974 323.121C127.259 324.953 127.172 326.824 126.72 328.622C126.267 330.421 125.457 332.11 124.339 333.589L124.366 333.582Z" fill="#33D69F"/>
<path d="M92.9424 355.209C92.9424 355.209 112.86 326.223 109.368 298.95C107.829 287.52 110.037 275.899 115.662 265.832C118.367 261.067 121.502 256.561 125.03 252.369" stroke="#535461" stroke-width="2" stroke-miterlimit="10"/>
<path d="M122.932 235.192C121.65 239.124 125.036 252.847 125.036 252.847C125.036 252.847 135.878 243.774 137.16 239.848C137.465 238.913 137.583 237.928 137.507 236.947C137.432 235.967 137.164 235.011 136.719 234.135C136.274 233.258 135.661 232.477 134.915 231.838C134.169 231.198 133.304 230.711 132.369 230.406C130.483 229.79 128.428 229.948 126.658 230.847C124.889 231.746 123.548 233.311 122.932 235.199V235.192Z" fill="#33D69F"/>
<path d="M104.056 253.112C105.112 257.097 115.416 266.788 115.416 266.788C115.416 266.788 119.585 253.278 118.53 249.28C118.278 248.329 117.842 247.437 117.246 246.655C116.65 245.873 115.906 245.216 115.056 244.721C114.206 244.227 113.267 243.905 112.293 243.774C111.319 243.642 110.328 243.704 109.378 243.956C108.427 244.207 107.536 244.644 106.754 245.24C105.972 245.837 105.316 246.581 104.822 247.431C104.327 248.282 104.005 249.221 103.874 250.196C103.743 251.17 103.805 252.161 104.056 253.112Z" fill="#33D69F"/>
<path d="M92.411 290.488C95.3389 293.403 109.115 296.558 109.115 296.558C109.115 296.558 105.902 282.789 102.967 279.873C101.559 278.473 99.6516 277.69 97.6657 277.696C95.6797 277.702 93.7776 278.497 92.3778 279.907C90.9779 281.316 90.195 283.224 90.2012 285.211C90.2074 287.197 91.0023 289.1 92.411 290.501V290.488Z" fill="#33D69F"/>
<path d="M89.9679 320.783C92.3647 324.15 105.411 329.59 105.411 329.59C105.411 329.59 104.568 315.475 102.171 312.108C101.021 310.489 99.2754 309.393 97.3181 309.062C95.3609 308.731 93.3522 309.191 91.734 310.341C90.1158 311.491 89.0206 313.238 88.6894 315.196C88.3582 317.154 88.8181 319.164 89.9679 320.783Z" fill="#33D69F"/>
<path d="M130.102 272.441C126.391 274.261 112.335 272.8 112.335 272.8C112.335 272.8 119.811 260.804 123.529 259.011C124.412 258.578 125.371 258.324 126.352 258.263C127.333 258.202 128.316 258.334 129.246 258.653C130.176 258.972 131.034 259.471 131.77 260.122C132.507 260.772 133.109 261.562 133.541 262.445C133.973 263.328 134.227 264.287 134.288 265.269C134.35 266.25 134.217 267.234 133.898 268.164C133.58 269.094 133.081 269.952 132.431 270.69C131.78 271.427 130.991 272.029 130.109 272.461L130.102 272.441Z" fill="#33D69F"/>
<path d="M126.795 307.798C122.706 308.415 109.759 302.849 109.759 302.849C109.759 302.849 120.482 293.643 124.571 293.019C126.534 292.72 128.534 293.214 130.133 294.391C131.732 295.568 132.798 297.332 133.096 299.296C133.395 301.259 132.901 303.26 131.725 304.86C130.548 306.459 128.784 307.525 126.822 307.824L126.795 307.798Z" fill="#33D69F"/>
<path d="M118.862 341.719C114.938 343.047 101.202 339.726 101.202 339.726C101.202 339.726 110.218 328.839 114.141 327.531C116.026 326.905 118.081 327.053 119.856 327.943C121.631 328.833 122.98 330.392 123.606 332.277C124.232 334.162 124.084 336.218 123.194 337.994C122.304 339.769 120.746 341.119 118.862 341.745V341.719Z" fill="#33D69F"/>
<path opacity="0.5" d="M122.932 235.192C121.65 239.124 125.036 252.847 125.036 252.847C125.036 252.847 135.878 243.774 137.16 239.848C137.465 238.913 137.583 237.928 137.507 236.947C137.432 235.967 137.164 235.011 136.719 234.135C136.274 233.258 135.661 232.477 134.915 231.838C134.169 231.198 133.304 230.711 132.369 230.406C130.483 229.79 128.428 229.948 126.658 230.847C124.889 231.746 123.548 233.311 122.932 235.199V235.192Z" fill="white"/>
<path opacity="0.5" d="M104.056 253.112C105.112 257.097 115.416 266.788 115.416 266.788C115.416 266.788 119.585 253.278 118.53 249.28C118.278 248.329 117.842 247.437 117.246 246.655C116.65 245.873 115.906 245.216 115.056 244.721C114.206 244.227 113.267 243.905 112.293 243.774C111.319 243.642 110.328 243.704 109.378 243.956C108.427 244.207 107.536 244.644 106.754 245.24C105.972 245.837 105.316 246.581 104.822 247.431C104.327 248.282 104.005 249.221 103.874 250.196C103.743 251.17 103.805 252.161 104.056 253.112Z" fill="white"/>
<path opacity="0.5" d="M92.411 290.488C95.3389 293.403 109.115 296.558 109.115 296.558C109.115 296.558 105.902 282.789 102.967 279.873C101.559 278.473 99.6516 277.69 97.6657 277.696C95.6797 277.702 93.7776 278.497 92.3778 279.907C90.9779 281.316 90.195 283.224 90.2012 285.211C90.2074 287.197 91.0023 289.1 92.411 290.501V290.488Z" fill="white"/>
<path opacity="0.5" d="M89.9679 320.783C92.3647 324.15 105.411 329.59 105.411 329.59C105.411 329.59 104.568 315.475 102.171 312.108C101.021 310.489 99.2754 309.393 97.3181 309.062C95.3609 308.731 93.3522 309.191 91.734 310.341C90.1158 311.491 89.0206 313.238 88.6894 315.196C88.3582 317.154 88.8181 319.164 89.9679 320.783Z" fill="white"/>
<path opacity="0.5" d="M130.102 272.441C126.391 274.261 112.335 272.8 112.335 272.8C112.335 272.8 119.811 260.804 123.529 259.011C124.412 258.578 125.371 258.324 126.352 258.263C127.333 258.202 128.316 258.334 129.246 258.653C130.176 258.972 131.034 259.471 131.77 260.122C132.507 260.772 133.109 261.562 133.541 262.445C133.973 263.328 134.227 264.287 134.288 265.269C134.35 266.25 134.217 267.234 133.898 268.164C133.58 269.094 133.081 269.952 132.431 270.69C131.78 271.427 130.991 272.029 130.109 272.461L130.102 272.441Z" fill="white"/>
<path opacity="0.5" d="M126.795 307.798C122.706 308.415 109.759 302.849 109.759 302.849C109.759 302.849 120.482 293.643 124.571 293.019C126.534 292.72 128.534 293.214 130.133 294.391C131.732 295.568 132.798 297.332 133.096 299.296C133.395 301.259 132.901 303.26 131.725 304.86C130.548 306.459 128.784 307.525 126.822 307.824L126.795 307.798Z" fill="white"/>
<path opacity="0.5" d="M118.862 341.719C114.938 343.047 101.202 339.726 101.202 339.726C101.202 339.726 110.218 328.839 114.141 327.531C116.026 326.905 118.081 327.053 119.856 327.943C121.631 328.833 122.98 330.392 123.606 332.277C124.232 334.162 124.084 336.218 123.194 337.994C122.304 339.769 120.746 341.119 118.862 341.745V341.719Z" fill="white"/>
<path d="M129.797 433.805H73.1443L58.9829 347.371H143.965L129.797 433.805Z" fill="#474059"/>
<path opacity="0.1" d="M133.116 347.371L119.884 428.14H72.2148L73.1443 433.805H129.797L143.965 347.371H133.116Z" fill="black"/>
<path d="M579.497 219.158H152.596V239.084H579.497V219.158Z" fill="#B0B9C7"/>
<path d="M319.904 121.438H258.823V186.02H319.904V121.438Z" fill="#E8EAF1"/>
<path d="M318.576 122.847H260.151V184.619H318.576V122.847Z" fill="white"/>
<path d="M312.255 167.867C313.072 161.397 311.439 160.992 311.439 160.992L309.095 159.87C309.133 159.49 309.148 159.109 309.141 158.727C309.16 158.411 309.16 158.094 309.141 157.777C308.909 155.227 307.395 153.002 306.32 150.677C305.332 148.53 304.708 146.234 304.474 143.882C304.189 140.979 304.474 137.964 303.478 135.247C302.551 133.063 301.136 131.12 299.342 129.568C297.44 127.653 295.185 126.124 292.703 125.065C290.187 124.007 287.367 123.926 284.796 124.839C282.538 125.729 280.812 127.496 279.099 129.243C277.864 130.408 276.783 131.724 275.879 133.162C274.932 135.015 274.318 137.02 274.067 139.086C273.527 142.367 273.155 145.672 272.951 148.99C272.772 151.753 272.5 154.895 270.295 156.595C269.213 157.425 267.7 157.89 267.202 159.146C267.064 159.524 267.01 159.927 267.042 160.328C267.029 160.664 267.051 161 267.109 161.331C267.109 161.524 267.182 161.716 267.222 161.909C266.588 163.6 266.055 165.328 265.628 167.083C264.127 173.066 263.034 179.145 262.355 185.276H301.739C302.111 185.321 302.488 185.321 302.861 185.276H313.105L312.255 167.867Z" fill="url(#paint0_linear)"/>
<path d="M300.79 141.04H278.183V158.103H300.79V141.04Z" fill="#B96B6B"/>
<path opacity="0.1" d="M300.79 141.04H278.183V158.103H300.79V141.04Z" fill="black"/>
<path d="M301.586 158.894L292.862 171.195L283.707 170.404C283.707 170.404 271.809 171.195 279.723 162.068C283.534 157.685 284.782 154.031 285.034 151.441C285.257 149.94 285.062 148.408 284.47 147.011L294.389 145.822C293.943 147.158 293.888 148.593 294.23 149.96C295.518 155.101 301.586 158.894 301.586 158.894Z" fill="#FFB9B9"/>
<path opacity="0.1" d="M294.283 149.94C292.988 150.918 291.473 151.564 289.871 151.82C288.269 152.076 286.629 151.934 285.094 151.408C285.316 149.907 285.121 148.374 284.53 146.978L294.449 145.789C293.998 147.128 293.941 148.569 294.283 149.94Z" fill="black"/>
<path d="M288.294 151.554C293.773 151.554 298.213 147.111 298.213 141.63C298.213 136.15 293.773 131.707 288.294 131.707C282.816 131.707 278.375 136.15 278.375 141.63C278.375 147.111 282.816 151.554 288.294 151.554Z" fill="#FFB9B9"/>
<path opacity="0.1" d="M288.892 168.013C288.892 168.013 292.464 163.649 292.464 160.076C292.953 159.128 293.626 158.288 294.443 157.604C295.261 156.919 296.206 156.405 297.224 156.09C300.796 154.901 300.398 156.09 300.398 156.09L302.775 165.615L301.985 182.679L302.383 184.672H273.024L275.016 176.734L274.611 170.006L276.198 159.69L280.958 156.914L284.53 161.676L288.892 168.013Z" fill="black"/>
<path d="M288.892 168.418C288.892 168.418 292.464 164.054 292.464 160.481C292.953 159.534 293.626 158.693 294.443 158.009C295.261 157.325 296.206 156.81 297.224 156.496C300.796 155.307 300.398 156.496 300.398 156.496L302.775 166.021L301.985 183.084L302.383 185.077H273.024L275.016 177.139L274.618 170.391L276.205 160.076L280.965 157.299L284.537 162.062L288.892 168.418Z" fill="#FEC5D9"/>
<path opacity="0.1" d="M283.342 156.117L271.046 158.11C271.046 158.11 269.054 157.711 266.684 167.236C265.229 173.11 264.168 179.075 263.51 185.09H278.847C278.847 185.09 279.77 169.216 282.166 168.027L285.486 162.892C285.486 162.892 280.175 162.474 280.958 159.697C281.741 156.921 283.342 156.117 283.342 156.117Z" fill="black"/>
<path d="M282.943 156.117L270.647 158.11C270.647 158.11 268.655 157.711 266.285 167.236C264.835 173.108 263.779 179.071 263.125 185.084H278.462C278.462 185.084 279.384 169.209 281.781 168.02L285.101 162.886C285.101 162.886 279.789 162.467 280.573 159.691C281.356 156.914 282.943 156.117 282.943 156.117Z" fill="#747B9C"/>
<path opacity="0.1" d="M297.224 154.928L310.31 161.278C310.31 161.278 311.897 161.677 311.1 168.027L311.89 185.09H297.815C298.885 179.735 299.087 174.243 298.413 168.824C297.72 164.222 297.323 159.581 297.224 154.928Z" fill="black"/>
<path d="M297.649 154.928L310.735 161.278C310.735 161.278 312.322 161.677 311.525 168.027L312.315 185.09H298.213C299.284 179.735 299.485 174.243 298.811 168.824C298.127 164.221 297.739 159.58 297.649 154.928Z" fill="#747B9C"/>
<path opacity="0.1" d="M285.035 137.3C284.862 138.908 283.76 140.229 282.844 141.564C281.928 142.899 281.131 144.547 281.642 146.081C281.841 146.679 282.233 147.21 282.372 147.828C282.611 148.891 282.074 149.987 282.167 151.069C282.293 152.557 283.554 153.66 284.251 154.975C285.725 157.758 284.596 161.205 283.003 163.915C281.41 166.625 279.325 169.196 278.8 172.298C278.316 175.167 279.245 178.07 280.248 180.8C280.51 181.328 280.59 181.928 280.474 182.507C280.168 183.423 279.02 183.696 278.05 183.762C276.991 183.828 275.929 183.828 274.87 183.762C274.469 183.769 274.072 183.685 273.708 183.516C272.978 183.118 272.759 182.188 272.487 181.417C272.214 180.647 271.617 179.77 270.787 179.856C270.243 179.916 269.818 180.381 269.28 180.474C269.031 180.497 268.78 180.459 268.549 180.364C268.318 180.27 268.113 180.12 267.952 179.929C266.963 178.86 267.202 177.133 267.852 175.831C268.503 174.529 269.499 173.394 269.93 172.005C270.999 168.551 268.324 165.131 267.759 161.557C267.635 160.975 267.667 160.37 267.852 159.804C268.337 158.568 269.804 158.11 270.853 157.3C272.998 155.632 273.263 152.544 273.436 149.834C273.618 146.579 273.964 143.336 274.472 140.116C274.714 138.092 275.307 136.125 276.224 134.305C277.098 132.896 278.147 131.604 279.345 130.459C280.978 128.758 282.664 127.018 284.869 126.141C287.359 125.245 290.096 125.323 292.53 126.361C294.948 127.413 297.138 128.927 298.977 130.817C300.71 132.348 302.073 134.254 302.961 136.39C303.937 139.08 303.624 142.043 303.923 144.892C304.152 147.189 304.755 149.433 305.709 151.534C306.752 153.819 308.219 156.004 308.445 158.509C308.624 160.501 307.973 162.494 307.641 164.453C307.057 167.887 307.409 171.401 307.754 174.862C307.803 175.7 307.977 176.526 308.272 177.312C308.849 178.415 309.655 179.382 310.635 180.149C310.746 180.226 310.839 180.325 310.911 180.439C310.983 180.553 311.032 180.68 311.054 180.813C311.046 180.927 311.015 181.038 310.961 181.139C310.907 181.24 310.832 181.328 310.742 181.397C309.54 182.467 307.462 181.676 306.161 182.626C305.797 182.943 305.466 183.294 305.171 183.676C304.618 184.277 303.911 184.714 303.126 184.941C302.342 185.168 301.51 185.174 300.722 184.961C299.933 184.747 299.219 184.321 298.656 183.729C298.093 183.137 297.704 182.402 297.53 181.603C297.191 180.049 297.696 178.455 297.888 176.874C298.486 171.886 295.936 167.143 293.905 162.554C292.949 160.408 292.079 158.083 292.431 155.759C292.716 153.892 293.759 152.252 294.522 150.525C296.056 147.077 296.514 143.039 295.186 139.499C294.192 136.799 292.173 134.601 289.569 133.381C288.626 132.956 287.285 132.372 286.296 132.943C284.67 133.873 285.167 135.812 285.035 137.3Z" fill="black"/>
<path d="M285.035 136.901C284.862 138.508 283.76 139.83 282.844 141.165C281.928 142.5 281.131 144.148 281.642 145.682C281.841 146.28 282.233 146.811 282.372 147.429C282.611 148.492 282.074 149.588 282.167 150.67C282.293 152.158 283.554 153.261 284.251 154.576C285.725 157.359 284.596 160.806 283.003 163.516C281.41 166.226 279.325 168.797 278.8 171.899C278.316 174.768 279.245 177.671 280.248 180.4C280.51 180.929 280.59 181.529 280.474 182.108C280.168 183.024 279.02 183.296 278.05 183.363C276.991 183.429 275.929 183.429 274.87 183.363C274.469 183.37 274.072 183.286 273.708 183.117C272.978 182.719 272.759 181.789 272.487 181.018C272.214 180.248 271.617 179.371 270.787 179.457C270.243 179.517 269.818 179.982 269.28 180.075C269.031 180.098 268.78 180.06 268.549 179.965C268.318 179.87 268.113 179.721 267.952 179.53C266.963 178.461 267.202 176.734 267.852 175.432C268.503 174.13 269.499 172.994 269.93 171.606C270.999 168.152 268.324 164.732 267.759 161.158C267.635 160.576 267.667 159.971 267.852 159.405C268.337 158.169 269.804 157.711 270.853 156.901C272.998 155.233 273.263 152.145 273.436 149.435C273.631 146.177 273.99 142.932 274.512 139.711C274.754 137.686 275.347 135.72 276.264 133.899C277.138 132.49 278.187 131.198 279.385 130.053C281.018 128.353 282.704 126.612 284.909 125.736C287.399 124.839 290.135 124.917 292.57 125.955C294.98 126.997 297.165 128.497 299.004 130.372C300.737 131.903 302.099 133.809 302.987 135.945C303.963 138.635 303.651 141.597 303.95 144.446C304.178 146.743 304.782 148.987 305.736 151.089C306.778 153.374 308.245 155.559 308.471 158.063C308.65 160.056 308 162.048 307.668 164.008C307.083 167.442 307.435 170.955 307.781 174.416C307.824 175.258 307.994 176.089 308.285 176.88C308.863 177.983 309.668 178.95 310.649 179.716C310.759 179.794 310.853 179.892 310.925 180.006C310.996 180.12 311.045 180.248 311.067 180.381C311.06 180.495 311.028 180.606 310.974 180.706C310.92 180.807 310.846 180.895 310.755 180.965C309.553 182.034 307.475 181.244 306.174 182.194C305.811 182.51 305.479 182.862 305.185 183.243C304.632 183.844 303.924 184.282 303.14 184.509C302.355 184.735 301.523 184.742 300.735 184.528C299.947 184.315 299.232 183.889 298.669 183.296C298.106 182.704 297.717 181.969 297.543 181.171C297.204 179.617 297.709 178.023 297.901 176.442C298.499 171.453 295.95 166.711 293.918 162.121C292.962 159.976 292.092 157.651 292.444 155.326C292.73 153.46 293.772 151.819 294.535 150.092C296.069 146.645 296.527 142.607 295.199 139.066C294.205 136.367 292.187 134.169 289.583 132.949C288.64 132.524 287.299 131.939 286.309 132.511C284.67 133.474 285.167 135.42 285.035 136.901Z" fill="#B96B6B"/>
<path d="M380.32 125.503H332.518V127.496H380.32V125.503Z" fill="#E8EAF1"/>
<path d="M380.32 130.817H332.518V132.81H380.32V130.817Z" fill="#E8EAF1"/>
<path d="M380.32 136.131H332.518V138.123H380.32V136.131Z" fill="#E8EAF1"/>
<path d="M380.32 141.444H332.518V143.437H380.32V141.444Z" fill="#E8EAF1"/>
<path d="M380.32 146.758H332.518V148.751H380.32V146.758Z" fill="#E8EAF1"/>
<path d="M380.32 152.072H332.518V154.064H380.32V152.072Z" fill="#E8EAF1"/>
<path d="M380.32 157.386H332.518V159.378H380.32V157.386Z" fill="#E8EAF1"/>
<path d="M380.32 162.699H332.518V164.692H380.32V162.699Z" fill="#E8EAF1"/>
<path d="M380.32 168.013H332.518V170.006H380.32V168.013Z" fill="#E8EAF1"/>
<path d="M380.32 173.327H332.518V175.319H380.32V173.327Z" fill="#E8EAF1"/>
<path d="M380.32 178.641H332.518V180.633H380.32V178.641Z" fill="#E8EAF1"/>
<path d="M502.051 282.809C505.966 273.628 506.954 263.461 504.879 253.697C502.455 242.036 500.873 230.215 500.145 218.327C499.388 206.936 497.728 199.557 495.916 194.774C495.916 194.774 496.613 179.271 486.116 171.188C475.62 163.104 451.121 150.298 451.121 150.298L453.571 140.289H453.471C454.209 140.054 454.916 139.73 455.576 139.326C456.275 138.889 456.911 138.359 457.468 137.751C461.611 134.125 461.671 127.469 463.636 122.169C465.15 118.091 467.985 114.597 470.016 110.731C473.714 103.69 474.577 95.049 471.138 87.8888C467.699 80.7285 459.553 75.5809 451.42 76.5041C448.792 76.9026 446.218 77.5955 443.745 78.5698C437.856 80.6422 433.209 74.7772 427.32 76.8562C424.365 77.899 413.337 79.0282 410.947 82.0636C410.4 82.4208 409.999 82.963 409.819 83.5913C409.195 86.5404 414.592 92.4453 418.596 97.1612C415.414 101.027 413.673 105.877 413.669 110.884C413.669 110.997 413.669 111.11 413.669 111.223C413.669 111.336 413.669 111.448 413.669 111.561C413.676 114.465 414.264 117.338 415.399 120.011C416.533 122.684 418.191 125.103 420.275 127.124C419.937 130.086 419.432 133.421 418.709 136.835H418.224C418.224 136.835 415.422 148.963 406.326 148.963C403.896 148.963 400.577 148.817 397.032 148.611C386.317 148.069 375.587 149.306 365.276 152.271C361.731 153.261 357.827 153.347 354.56 150.989C346.753 145.35 338.348 130.99 337.199 128.99C338.075 123.165 337.956 112.498 325.866 110.558C311.691 108.287 312.468 124.72 320.621 135.174C320.419 135.695 320.285 136.24 320.222 136.795C319.525 145.556 327.924 161.73 330.022 163.749C332.12 165.768 332.173 178.567 346.846 181.962C361.518 185.356 372.075 186.677 372.739 203.529C373.403 220.38 387.438 237.895 380.44 257.443C376.238 269.173 377.333 275.317 378.88 278.352C378.754 278.751 378.634 279.143 378.501 279.548C376.908 284.39 374.93 289.252 372.739 292.168C372.234 292.832 371.743 293.55 371.271 294.294C365.575 297.987 359.626 302.118 357.329 304.635C352.429 310.029 354.527 331.589 357.329 340.35C360.131 349.111 377.625 402.348 377.625 402.348H378.289L378.501 403.677L379.205 408.087C378.976 407.963 378.754 407.825 378.541 407.675C378.405 407.58 378.25 407.516 378.087 407.487C377.924 407.459 377.756 407.466 377.596 407.509C377.436 407.552 377.287 407.63 377.16 407.737C377.034 407.843 376.932 407.976 376.862 408.127L373.442 415.765C373.442 415.765 359.447 409.714 358.73 423.869C358.73 424.433 358.73 424.971 358.73 425.489C358.697 433.015 362.84 435.818 366.392 436.828C369.654 437.703 372.74 439.137 375.514 441.065C378.88 443.483 384.005 445.954 389.835 444.612C391.013 444.349 392.22 444.237 393.426 444.28C395.943 444.353 400.198 443.616 400.066 437.997C400.093 437.554 400.093 437.111 400.066 436.668C400.066 436.668 397.111 425.29 396.985 420.063C396.971 419.531 397.066 419.002 397.264 418.508C397.762 417.552 397.928 415.745 397.881 413.812C397.882 412.124 397.795 410.437 397.622 408.758C397.602 408.6 397.535 408.451 397.428 408.332C397.321 408.214 397.181 408.13 397.026 408.094C396.871 408.057 396.708 408.068 396.56 408.126C396.411 408.185 396.284 408.287 396.195 408.419L396.082 408.572C395.631 407.077 395.106 405.33 394.615 403.683L394.21 402.355H395.153C395.153 402.355 389.542 369.27 391.64 366.613C393.015 364.853 390.797 343.791 389.098 329.417C406.147 330.5 433.321 327.484 451.911 326.555C455.464 326.382 458.933 325.415 462.063 323.725C460.383 337.355 457.262 364.594 458.829 366.607C460.927 369.303 455.33 402.322 455.33 402.322H456.174L455.868 403.331H455.974C455.457 405.078 454.892 406.958 454.408 408.559L454.295 408.406C454.206 408.273 454.079 408.171 453.93 408.113C453.782 408.055 453.619 408.044 453.464 408.08C453.309 408.117 453.168 408.201 453.062 408.319C452.955 408.438 452.887 408.586 452.867 408.745C452.694 410.424 452.608 412.111 452.608 413.799C452.608 415.732 452.735 417.539 453.226 418.495C453.424 418.989 453.519 419.518 453.505 420.049C453.378 425.31 450.424 436.655 450.424 436.655C450.397 437.097 450.397 437.541 450.424 437.983C450.285 443.629 454.54 444.346 457.063 444.267C458.27 444.224 459.477 444.335 460.655 444.599C466.484 445.927 471.61 443.463 474.976 441.052C477.75 439.124 480.836 437.69 484.098 436.814C487.65 435.805 491.793 433.002 491.76 425.476C491.76 424.958 491.76 424.42 491.76 423.855C491.023 409.714 477.027 415.765 477.027 415.765L473.588 408.1C473.518 407.95 473.416 407.817 473.289 407.71C473.162 407.603 473.014 407.526 472.854 407.483C472.694 407.44 472.526 407.432 472.363 407.461C472.199 407.489 472.044 407.554 471.909 407.649C471.696 407.799 471.474 407.936 471.245 408.06L472.167 402.302H472.831C472.831 402.302 490.326 349.065 493.127 340.304C495.929 331.543 498.027 309.976 493.127 304.589C490.81 302.038 484.749 297.841 478.993 294.114C483.913 297.069 488.635 300.344 493.127 303.918L502.051 282.809ZM471.829 289.564L469.605 288.236C469.143 287.437 468.578 286.703 467.925 286.051C467.308 285.451 466.736 284.807 466.212 284.124C464.844 279.986 459.792 262.87 466.531 254.042C471.424 247.613 471.796 235.192 471.411 226.995C474.73 243.275 479.378 266.184 479.829 270.887C480.38 276.758 474.365 285.998 471.829 289.564Z" fill="url(#paint1_linear)"/>
<path d="M469.605 397.5L466.949 414.769L451.015 411.448C451.015 411.448 454.335 400.157 454.999 397.5C455.663 394.843 455.663 397.5 455.663 397.5H469.605Z" fill="#4A4E68"/>
<path d="M397.901 411.448L381.967 414.769L380.128 402.813L379.312 397.5H393.254C393.254 397.5 393.254 394.843 393.918 397.5C394.157 398.456 394.741 400.542 395.398 402.813C396.573 406.839 397.901 411.448 397.901 411.448Z" fill="#4A4E68"/>
<path opacity="0.1" d="M395.411 402.813H380.141L379.325 397.5H393.267C393.267 397.5 393.267 394.843 393.931 397.5C394.17 398.456 394.754 400.542 395.411 402.813Z" fill="black"/>
<path opacity="0.1" d="M453.531 402.481H468.801L469.618 397.168H455.662C455.662 397.168 455.662 394.511 454.999 397.168C454.773 398.124 454.189 400.21 453.531 402.481Z" fill="black"/>
<path d="M484.875 188.271C484.875 188.271 493.506 188.936 495.497 220.154C496.197 231.868 497.708 243.52 500.019 255.025C501.991 264.633 501.067 274.611 497.363 283.693L488.858 304.509C488.858 304.509 472.924 291.225 467.613 291.889C467.613 291.889 476.908 279.269 476.244 271.963C475.58 264.656 464.957 212.183 464.957 212.183L484.875 188.271Z" fill="#D6E6F9"/>
<path d="M385.286 287.24C385.286 287.24 364.705 299.86 360.057 305.174C355.41 310.487 357.402 331.742 360.057 340.377C362.713 349.012 379.311 401.485 379.311 401.485H395.909C395.909 401.485 390.598 368.938 392.59 366.281C394.581 363.624 388.606 316.465 388.606 316.465L385.286 287.24Z" fill="#5F546F"/>
<path d="M463.63 287.24C463.63 287.24 484.211 299.86 488.859 305.174C493.506 310.487 491.514 331.742 488.859 340.377C486.203 349.012 469.605 401.485 469.605 401.485H453.007C453.007 401.485 458.318 368.938 456.326 366.281C454.335 363.624 460.31 316.465 460.31 316.465L463.63 287.24Z" fill="#5F546F"/>
<path opacity="0.1" d="M385.286 287.24C385.286 287.24 364.705 299.86 360.057 305.174C355.41 310.487 357.402 331.742 360.057 340.377C362.713 349.012 379.311 401.485 379.311 401.485H395.909C395.909 401.485 390.598 368.938 392.59 366.281C394.581 363.624 388.606 316.465 388.606 316.465L385.286 287.24Z" fill="black"/>
<path opacity="0.1" d="M463.63 287.24C463.63 287.24 484.211 299.86 488.859 305.174C493.506 310.487 491.514 331.742 488.859 340.377C486.203 349.012 469.605 401.485 469.605 401.485H453.007C453.007 401.485 458.318 368.938 456.326 366.281C454.335 363.624 460.31 316.465 460.31 316.465L463.63 287.24Z" fill="black"/>
<path d="M420.475 119.194C420.475 119.194 420.475 145.098 411.18 158.382C401.885 171.667 453.671 160.375 453.671 160.375C451.313 158.638 449.569 156.195 448.691 153.401C445.956 143.657 444.92 126.493 449.023 119.194C454.999 108.566 420.475 119.194 420.475 119.194Z" fill="#FFCED8"/>
<path opacity="0.1" d="M435.426 136.795C447.526 136.795 457.335 126.982 457.335 114.876C457.335 102.771 447.526 92.957 435.426 92.957C423.326 92.957 413.517 102.771 413.517 114.876C413.517 126.982 423.326 136.795 435.426 136.795Z" fill="black"/>
<path d="M435.426 136.131C447.526 136.131 457.335 126.317 457.335 114.212C457.335 102.106 447.526 92.2925 435.426 92.2925C423.326 92.2925 413.517 102.106 413.517 114.212C413.517 126.317 423.326 136.131 435.426 136.131Z" fill="#FFCED8"/>
<path d="M451.055 340.27C427.306 341.32 387.803 345.744 381.815 339.181C372.155 328.6 375.58 319.075 380.566 313.277C382.518 310.998 384.271 307.186 385.692 303.38C386.17 302.091 386.615 300.809 387.02 299.587C388.553 294.851 393.659 291.583 399.435 291.583H447.39C453.199 291.583 458.312 294.905 459.819 299.64C460.492 301.863 461.523 303.961 462.873 305.851C463.58 306.832 464.402 307.724 465.323 308.508C467.739 310.56 469.306 314.984 470.322 319.852C472.466 330.161 463.384 339.726 451.055 340.27Z" fill="#5F546F"/>
<path opacity="0.1" d="M451.055 340.27C427.306 341.32 387.803 345.744 381.815 339.181C372.155 328.6 375.58 319.075 380.566 313.277C382.518 310.998 384.271 307.186 385.692 303.38C386.17 302.091 386.615 300.809 387.02 299.587C388.553 294.851 393.659 291.583 399.435 291.583H447.39C453.199 291.583 458.312 294.905 459.819 299.64C460.492 301.863 461.523 303.961 462.873 305.851C463.58 306.832 464.402 307.724 465.323 308.508C467.739 310.56 469.306 314.984 470.322 319.852C472.466 330.161 463.384 339.726 451.055 340.27Z" fill="black"/>
<path opacity="0.1" d="M389.781 409.96C387.703 409.542 382.279 408.346 380.174 406.746C380.046 406.652 379.897 406.589 379.741 406.561C379.584 406.532 379.423 406.54 379.27 406.583C379.117 406.626 378.975 406.703 378.856 406.808C378.737 406.913 378.643 407.044 378.581 407.191L375.328 414.769C375.328 414.769 362.049 408.791 361.385 422.74C361 430.876 365.13 433.812 368.642 434.848C371.758 435.712 374.696 437.122 377.319 439.013C380.513 441.391 385.38 443.829 390.903 442.514C392.019 442.253 393.164 442.141 394.309 442.181C396.786 442.261 401.055 441.517 400.583 435.347C400.583 435.347 396.6 419.405 397.928 416.749C398.764 415.075 398.545 410.771 398.273 407.808C398.254 407.662 398.192 407.524 398.094 407.413C397.996 407.303 397.867 407.224 397.724 407.188C397.581 407.151 397.43 407.158 397.291 407.209C397.152 407.259 397.032 407.35 396.945 407.47C396.394 408.318 395.633 409.008 394.736 409.474C393.839 409.94 392.836 410.164 391.826 410.126C391.14 410.147 390.455 410.091 389.781 409.96Z" fill="black"/>
<path d="M389.781 410.624C387.703 410.206 382.279 409.01 380.174 407.41C380.046 407.316 379.897 407.253 379.741 407.225C379.584 407.197 379.423 407.204 379.27 407.247C379.117 407.29 378.975 407.367 378.856 407.472C378.737 407.577 378.643 407.708 378.581 407.855L375.328 415.433C375.328 415.433 362.049 409.455 361.385 423.404C361 431.541 365.13 434.476 368.642 435.513C371.758 436.376 374.696 437.786 377.319 439.677C380.513 442.055 385.38 444.493 390.903 443.178C392.019 442.917 393.164 442.805 394.309 442.845C396.786 442.925 401.055 442.181 400.583 436.011C400.583 436.011 396.6 420.07 397.928 417.413C398.764 415.739 398.545 411.435 398.273 408.472C398.254 408.326 398.192 408.188 398.094 408.078C397.996 407.967 397.867 407.888 397.724 407.852C397.581 407.815 397.43 407.822 397.291 407.873C397.152 407.923 397.032 408.014 396.945 408.134C396.394 408.982 395.633 409.672 394.736 410.138C393.839 410.604 392.836 410.828 391.826 410.79C391.14 410.811 390.455 410.755 389.781 410.624Z" fill="#543F40"/>
<path opacity="0.1" d="M459.155 409.96C461.233 409.542 466.657 408.346 468.762 406.746C468.89 406.652 469.039 406.589 469.195 406.561C469.352 406.532 469.513 406.54 469.666 406.583C469.819 406.626 469.961 406.703 470.08 406.808C470.199 406.913 470.293 407.044 470.355 407.191L473.588 414.769C473.588 414.769 486.867 408.791 487.531 422.74C487.916 430.876 483.786 433.812 480.274 434.848C477.173 435.721 474.251 437.135 471.643 439.026C468.45 441.404 463.583 443.842 458.059 442.527C456.944 442.266 455.798 442.154 454.653 442.195C452.177 442.274 447.908 441.53 448.379 435.36C448.379 435.36 452.363 419.419 451.035 416.762C450.198 415.088 450.417 410.784 450.69 407.822C450.708 407.675 450.771 407.537 450.869 407.427C450.967 407.316 451.095 407.237 451.239 407.201C451.382 407.164 451.532 407.172 451.671 407.222C451.81 407.272 451.931 407.363 452.018 407.483C452.568 408.331 453.329 409.021 454.226 409.487C455.124 409.953 456.126 410.178 457.136 410.14C457.814 410.154 458.49 410.094 459.155 409.96Z" fill="black"/>
<path d="M459.155 410.624C461.233 410.206 466.657 409.01 468.762 407.41C468.89 407.316 469.039 407.253 469.195 407.225C469.352 407.197 469.513 407.204 469.666 407.247C469.819 407.29 469.961 407.367 470.08 407.472C470.199 407.577 470.293 407.708 470.355 407.855L473.588 415.433C473.588 415.433 486.867 409.455 487.531 423.404C487.916 431.541 483.786 434.476 480.274 435.512C477.173 436.385 474.251 437.8 471.643 439.69C468.45 442.068 463.583 444.506 458.059 443.191C456.944 442.93 455.798 442.818 454.653 442.859C452.177 442.938 447.908 442.194 448.379 436.024C448.379 436.024 452.363 420.083 451.035 417.426C450.198 415.752 450.417 411.448 450.69 408.486C450.708 408.339 450.771 408.202 450.869 408.091C450.967 407.98 451.095 407.901 451.239 407.865C451.382 407.828 451.532 407.836 451.671 407.886C451.81 407.936 451.931 408.027 452.018 408.147C452.568 408.995 453.329 409.685 454.226 410.151C455.124 410.617 456.126 410.842 457.136 410.804C457.814 410.818 458.49 410.758 459.155 410.624Z" fill="#543F40"/>
<path d="M340.14 135.799C340.14 135.799 346.116 116.536 330.181 113.88C314.247 111.223 318.231 134.47 330.181 143.105C342.132 151.74 340.14 135.799 340.14 135.799Z" fill="#FFCED8"/>
<path opacity="0.1" d="M463.629 287.904C445.039 318.458 382.631 283.919 382.631 283.919C382.631 283.919 381.15 283.108 380.128 280.465C380.639 278.851 381.111 277.237 381.535 275.702C382.337 272.808 384.066 270.257 386.458 268.441C388.85 266.625 391.772 265.646 394.774 265.653H445.896C448.908 265.646 451.838 266.634 454.231 268.463C456.625 270.292 458.348 272.86 459.135 275.769C459.832 278.513 460.928 281.141 462.388 283.567C463.045 286.244 463.629 287.904 463.629 287.904Z" fill="black"/>
<path d="M421.802 139.784H417.819C417.819 139.784 415.163 151.74 406.532 151.74C404.228 151.74 401.081 151.601 397.695 151.388C387.52 150.854 377.329 152.074 367.567 154.995C364.2 155.971 360.502 156.057 357.402 153.733C349.435 147.755 340.804 131.814 340.804 131.814C340.804 131.814 325.534 131.149 324.87 139.784C324.206 148.419 332.173 164.36 334.165 166.353C336.156 168.345 336.156 180.965 350.099 184.287C364.041 187.608 374 188.936 374.664 205.541C375.328 222.147 388.606 239.416 381.967 258.679C375.328 277.941 382.631 281.926 382.631 281.926C382.631 281.926 445.039 316.465 463.629 285.911C463.629 285.911 456.326 265.321 463.629 255.358C470.932 245.394 467.613 220.818 467.613 220.818L491.514 196.907C491.514 196.907 492.178 181.63 482.219 173.659C472.26 165.689 449.023 153.068 449.023 153.068L451.347 143.198L421.802 139.784Z" fill="#D6E6F9"/>
<path opacity="0.1" d="M422.519 120.921C422.015 127.171 422.214 134.305 426.835 138.549C429.105 140.635 432.146 141.677 435.127 142.401C438.266 143.164 441.469 143.637 444.694 143.816C447.642 143.976 450.782 143.816 453.259 142.242C458.331 138.967 458.212 131.688 460.243 125.995C461.677 121.97 464.373 118.536 466.298 114.704C469.804 107.769 470.627 99.2473 467.36 92.1933C464.094 85.1394 456.373 80.0781 448.658 81.0013C446.153 81.3947 443.702 82.079 441.355 83.0405C435.764 85.0862 431.363 79.3009 425.772 81.3467C422.718 82.4626 410.582 83.6914 409.838 87.3246C408.955 91.642 420.7 102.409 421.968 106.188C423.635 111.057 422.519 115.939 422.519 120.921Z" fill="black"/>
<path d="M423.183 120.256C422.679 126.506 422.878 133.64 427.499 137.884C429.769 139.97 432.81 141.013 435.791 141.737C438.93 142.499 442.133 142.973 445.358 143.152C448.306 143.311 451.446 143.152 453.923 141.577C458.995 138.303 458.876 131.023 460.907 125.331C462.341 121.306 465.037 117.872 466.962 114.039C470.468 107.105 471.291 98.5828 468.025 91.5288C464.758 84.4748 457.037 79.4135 449.322 80.3368C446.817 80.7301 444.366 81.4145 442.019 82.3759C436.429 84.4217 432.027 78.6364 426.437 80.6822C423.382 81.798 411.246 83.0268 410.502 86.6601C409.619 90.9775 421.364 101.744 422.632 105.524C424.299 110.392 423.183 115.274 423.183 120.256Z" fill="#AE767A"/>
<path opacity="0.1" d="M413.517 148.412C413.517 148.412 417.5 150.079 428.787 153.4C440.073 156.721 448.704 153.4 448.704 153.4" fill="black"/>
<path opacity="0.1" d="M383.627 243.335C383.627 243.335 402.217 244.398 408.192 252.369C414.167 260.339 416.159 262.996 423.462 262.996C430.765 262.996 454.003 264.325 457.322 265.653" fill="black"/>
<path d="M433.673 444.619H422.572V457.312H433.673V444.619Z" fill="#C0BCCF"/>
<path d="M501.074 288.342H492.351V352.598H501.074V288.342Z" fill="#373B53"/>
<path d="M497.104 351.801H478.076V354.179H497.104V351.801Z" fill="#373B53"/>
<path d="M364.685 288.342H355.961V352.598H364.685V288.342Z" fill="#373B53"/>
<path d="M376.576 351.801H357.548V354.179H376.576V351.801Z" fill="#373B53"/>
<path d="M438.427 355.773H420.189V433.52H438.427V355.773Z" fill="#C0BCCF"/>
<path d="M429.71 327.896C478.84 329.61 480.46 310.78 480.46 310.78L477.286 258.566C476.496 177.246 429.71 189.228 429.71 189.228C429.71 189.228 382.923 177.272 382.133 258.566L378.959 310.78C378.959 310.78 380.546 329.61 429.71 327.896Z" fill="#4A4E68"/>
<path opacity="0.1" d="M429.71 327.896C478.84 329.61 480.46 310.78 480.46 310.78L477.286 258.566C476.496 177.246 429.71 189.228 429.71 189.228C429.71 189.228 382.923 177.272 382.133 258.566L378.959 310.78C378.959 310.78 380.546 329.61 429.71 327.896Z" fill="white"/>
<path d="M428.382 324.635C475.241 326.269 476.748 308.315 476.748 308.315L473.728 258.546C472.971 181.038 428.382 192.463 428.382 192.463C428.382 192.463 383.793 181.038 383.036 258.546L380.015 308.315C380.015 308.315 381.522 326.269 428.382 324.635Z" fill="#4A4E68"/>
<path d="M430.135 303.414H426.908C422.324 303.414 418.609 307.131 418.609 311.716V329.225C418.609 333.81 422.324 337.528 426.908 337.528H430.135C434.718 337.528 438.434 333.81 438.434 329.225V311.716C438.434 307.131 434.718 303.414 430.135 303.414Z" fill="#C0BCCF"/>
<path opacity="0.1" d="M438.4 430.75V433.52H420.189V430.77L421.776 430.352H436.84L438.4 430.75Z" fill="black"/>
<path d="M355.171 457.312C355.171 457.312 347.237 450.969 421.802 431.135H436.866C436.866 431.135 501.074 446.983 501.864 457.312H492.35C492.35 457.312 457.461 446.983 441.6 446.983C425.739 446.983 378.163 448.571 363.921 457.299L355.171 457.312Z" fill="#C0BCCF"/>
<path d="M358.252 278.818H361.604C363.893 278.818 366.089 279.728 367.707 281.347C369.326 282.966 370.235 285.163 370.235 287.453V291.511H349.621V287.453C349.621 285.163 350.53 282.966 352.149 281.347C353.767 279.728 355.963 278.818 358.252 278.818Z" fill="#4A4E68"/>
<path d="M494.621 278.818H497.974C500.263 278.818 502.458 279.728 504.077 281.347C505.696 282.966 506.605 285.163 506.605 287.453V291.511H485.99V287.453C485.99 285.163 486.9 282.966 488.518 281.347C490.137 279.728 492.332 278.818 494.621 278.818Z" fill="#4A4E68"/>
<path d="M359.135 468.418C362.2 468.418 364.685 465.932 364.685 462.865C364.685 459.798 362.2 457.312 359.135 457.312C356.069 457.312 353.584 459.798 353.584 462.865C353.584 465.932 356.069 468.418 359.135 468.418Z" fill="#5A5773"/>
<path d="M428.123 468.418C431.188 468.418 433.673 465.932 433.673 462.865C433.673 459.798 431.188 457.312 428.123 457.312C425.057 457.312 422.572 459.798 422.572 462.865C422.572 465.932 425.057 468.418 428.123 468.418Z" fill="#5A5773"/>
<path d="M497.901 468.418C500.966 468.418 503.451 465.932 503.451 462.865C503.451 459.798 500.966 457.312 497.901 457.312C494.836 457.312 492.351 459.798 492.351 462.865C492.351 465.932 494.836 468.418 497.901 468.418Z" fill="#5A5773"/>
<path opacity="0.1" d="M438.427 355.773H420.189V358.948H438.427V355.773Z" fill="black"/>
<path d="M429.71 357.361H482.823L486.807 349.43C489.184 335.946 480.466 335.149 480.466 335.149H378.959C378.959 335.149 370.236 335.94 372.619 349.43L376.603 357.361H429.71Z" fill="#4A4E68"/>
<path opacity="0.1" d="M429.71 357.361H482.823L486.807 349.43C489.184 335.946 480.466 335.149 480.466 335.149H378.959C378.959 335.149 370.236 335.94 372.619 349.43L376.603 357.361H429.71Z" fill="white"/>
<path d="M429.71 357.361H482.823L486.807 350.56C489.184 339.002 480.466 338.318 480.466 338.318H378.959C378.959 338.318 370.236 338.983 372.619 350.56L376.603 357.361H429.71Z" fill="#373B53"/>
<path d="M536.661 199.543C536.661 199.543 530.599 197.491 527.684 202.865C526.914 204.313 526.522 205.933 526.544 207.573C526.566 209.214 527.002 210.822 527.81 212.25C529.729 215.717 533.673 220.22 541.155 219.815C547.502 219.477 549.607 214.634 550.185 210.124C550.396 208.438 550.172 206.725 549.535 205.149C548.897 203.573 547.867 202.187 546.543 201.122C545.219 200.057 543.644 199.348 541.969 199.064C540.294 198.779 538.574 198.928 536.973 199.497L536.661 199.543Z" fill="#33D69F"/>
<path opacity="0.1" d="M529.105 212.701C528.296 211.274 527.861 209.666 527.839 208.025C527.817 206.384 528.209 204.765 528.979 203.316C531.894 198.002 537.955 199.995 537.955 199.995L538.267 199.882C540.579 199.045 543.119 199.102 545.391 200.042C544.137 199.294 542.732 198.834 541.279 198.695C539.825 198.556 538.359 198.741 536.986 199.238L536.674 199.351C536.674 199.351 530.612 197.298 527.698 202.672C526.928 204.121 526.535 205.74 526.558 207.381C526.58 209.021 527.015 210.63 527.824 212.057C529.323 214.92 531.731 217.203 534.669 218.547C532.316 217.142 530.392 215.121 529.105 212.701Z" fill="white"/>
<path opacity="0.2" d="M533.54 202.114C533.54 202.114 535.784 203.881 541.248 202.114H533.54Z" fill="black"/>
<path d="M533.062 189.268C533.062 189.268 536.913 199.71 536.595 202.439L539.642 202.121C539.642 202.121 534.503 192.968 535.791 189.275L533.062 189.268Z" fill="#33D69F"/>
<path opacity="0.2" d="M533.062 189.268C533.062 189.268 536.913 199.71 536.595 202.439L539.642 202.121C539.642 202.121 534.503 192.968 535.791 189.275L533.062 189.268Z" fill="black"/>
<path d="M548.784 190.138C548.784 190.138 542.722 187.037 540.007 189.6C537.291 192.164 536.88 198.713 536.88 198.713C536.88 198.713 546.766 200.075 548.784 190.138Z" fill="#33D69F"/>
<path opacity="0.1" d="M548.784 190.138C548.784 190.138 542.722 187.037 540.007 189.6C537.291 192.164 536.88 198.713 536.88 198.713C536.88 198.713 546.766 200.075 548.784 190.138Z" fill="white"/>
<path d="M536.88 198.713C536.88 198.713 538.473 191.108 548.784 190.138" stroke="#33D69F" stroke-miterlimit="10"/>
</g>
<defs>
<linearGradient id="paint0_linear" x1="287.703" y1="185.283" x2="287.703" y2="124.175" gradientUnits="userSpaceOnUse">
<stop stop-color="#808080" stop-opacity="0.25"/>
<stop offset="0.54" stop-color="#808080" stop-opacity="0.12"/>
<stop offset="1" stop-color="#808080" stop-opacity="0.1"/>
</linearGradient>
<linearGradient id="paint1_linear" x1="125474" y1="268044" x2="125474" y2="63474.5" gradientUnits="userSpaceOnUse">
<stop stop-color="#808080" stop-opacity="0.25"/>
<stop offset="0.54" stop-color="#808080" stop-opacity="0.12"/>
<stop offset="1" stop-color="#808080" stop-opacity="0.1"/>
</linearGradient>
<clipPath id="clip0">
<rect width="748" height="522" fill="white"/>
</clipPath>
</defs>
</svg>
