<svg width="748" height="315" viewBox="0 0 748 315" fill="none" xmlns="http://www.w3.org/2000/svg">
<g clip-path="url(#clip0)">
<path d="M374 314.103C580.555 314.103 748 308.128 748 300.757C748 293.386 580.555 287.411 374 287.411C167.446 287.411 0 293.386 0 300.757C0 308.128 167.446 314.103 374 314.103Z" fill="#3F3D56"/>
<path d="M665.701 226.129C667.089 223.704 667.807 220.953 667.779 218.159C667.779 210.959 663.33 205.119 657.814 205.119C652.298 205.119 647.856 210.959 647.856 218.159C647.828 220.953 648.545 223.704 649.934 226.129C648.571 228.564 647.856 231.308 647.856 234.098C647.856 236.888 648.571 239.632 649.934 242.067C648.571 244.501 647.856 247.244 647.856 250.034C647.856 252.823 648.571 255.566 649.934 258C648.571 260.435 647.856 263.179 647.856 265.969C647.856 268.76 648.571 271.503 649.934 273.938C648.545 276.363 647.828 279.114 647.856 281.908C647.856 289.108 652.304 294.949 657.814 294.949C663.324 294.949 667.779 289.108 667.779 281.908C667.807 279.114 667.089 276.363 665.701 273.938C667.064 271.503 667.779 268.76 667.779 265.969C667.779 263.179 667.064 260.435 665.701 258C667.064 255.566 667.779 252.823 667.779 250.034C667.779 247.244 667.064 244.501 665.701 242.067C667.064 239.632 667.779 236.888 667.779 234.098C667.779 231.308 667.064 228.564 665.701 226.129Z" fill="#3F3D56"/>
<path d="M657.789 215.261C663.289 215.261 667.747 209.423 667.747 202.221C667.747 195.018 663.289 189.18 657.789 189.18C652.289 189.18 647.83 195.018 647.83 202.221C647.83 209.423 652.289 215.261 657.789 215.261Z" fill="#3F3D56"/>
<path d="M657.789 199.323C663.289 199.323 667.747 193.484 667.747 186.282C667.747 179.08 663.289 173.241 657.789 173.241C652.289 173.241 647.83 179.08 647.83 186.282C647.83 193.484 652.289 199.323 657.789 199.323Z" fill="#3F3D56"/>
<path d="M620.503 77.2148C619.142 75.4826 617.902 73.6586 616.792 71.7558L642.969 67.4597L614.657 67.6694C611.942 61.7608 610.461 55.3604 610.305 48.8597C610.148 42.3591 611.32 35.8949 613.748 29.8627L651.726 49.5636L616.703 23.8189C619.98 18.1428 624.392 13.2027 629.662 9.30675C634.933 5.41079 640.95 2.6425 647.338 1.17453C653.726 -0.293437 660.347 -0.429606 666.79 0.774504C673.233 1.97861 679.358 4.49718 684.785 8.17316C690.211 11.8491 694.822 16.6037 698.33 22.1403C701.838 27.6769 704.167 33.8769 705.173 40.3535C706.179 46.8302 705.84 53.4446 704.177 59.7844C702.514 66.1242 699.562 72.0534 695.507 77.2021C697.632 79.8974 699.456 82.8169 700.947 85.9087L666.972 103.57L703.196 91.4122C705.739 98.9314 706.367 106.966 705.024 114.789C703.68 122.612 700.407 129.976 695.5 136.216C701.039 143.253 704.485 151.707 705.444 160.611C706.404 169.515 704.839 178.509 700.927 186.565C697.016 194.621 690.916 201.414 683.325 206.166C675.735 210.919 666.96 213.439 658.005 213.439C649.049 213.439 640.275 210.919 632.684 206.166C625.094 201.414 618.994 194.621 615.083 186.565C611.171 178.509 609.606 169.515 610.565 160.611C611.525 151.707 614.971 143.253 620.51 136.216C613.894 127.806 610.297 117.416 610.297 106.715C610.297 96.0149 613.894 85.625 620.51 77.2148H620.503Z" fill="#57B894"/>
<path opacity="0.1" d="M705.738 106.716C705.755 117.419 702.156 127.814 695.526 136.216C701.064 143.254 704.51 151.708 705.47 160.612C706.43 169.515 704.864 178.51 700.953 186.566C697.041 194.622 690.941 201.414 683.351 206.167C675.76 210.919 666.986 213.439 658.03 213.439C649.075 213.439 640.3 210.919 632.71 206.167C625.119 201.414 619.02 194.622 615.108 186.566C611.196 178.51 609.631 169.515 610.591 160.612C611.55 151.708 614.997 143.254 620.535 136.216C614.11 128.101 705.738 101.365 705.738 106.716Z" fill="black"/>
<path d="M626.032 4.44873H121.968C114.801 4.44873 108.991 10.2588 108.991 17.4259V281.266C108.991 288.433 114.801 294.243 121.968 294.243H626.032C633.199 294.243 639.009 288.433 639.009 281.266V17.4259C639.009 10.2588 633.199 4.44873 626.032 4.44873Z" fill="#F2F2F2"/>
<path d="M109.309 18.7476H279.626V294.561H122.286C118.844 294.561 115.543 293.193 113.11 290.76C110.676 288.326 109.309 285.025 109.309 281.583V18.7476Z" fill="#C9CED6"/>
<path d="M639.009 17.4259V24.7915H108.991V17.4259C108.991 15.722 109.326 14.0348 109.979 12.4607C110.631 10.8866 111.587 9.45644 112.792 8.2519C113.997 7.04736 115.428 6.09207 117.002 5.44059C118.577 4.78912 120.264 4.45424 121.968 4.45508H626.032C627.736 4.45424 629.423 4.78912 630.998 5.44059C632.572 6.09207 634.003 7.04736 635.208 8.2519C636.413 9.45644 637.369 10.8866 638.021 12.4607C638.674 14.0348 639.009 15.722 639.009 17.4259Z" fill="#3F3D56"/>
<path d="M122.654 18.7478C124.76 18.7478 126.467 17.0406 126.467 14.9347C126.467 12.8288 124.76 11.1216 122.654 11.1216C120.548 11.1216 118.841 12.8288 118.841 14.9347C118.841 17.0406 120.548 18.7478 122.654 18.7478Z" fill="#33D69F"/>
<path d="M132.187 18.7478C134.293 18.7478 136 17.0406 136 14.9347C136 12.8288 134.293 11.1216 132.187 11.1216C130.081 11.1216 128.374 12.8288 128.374 14.9347C128.374 17.0406 130.081 18.7478 132.187 18.7478Z" fill="#33D69F"/>
<path d="M141.72 18.7478C143.826 18.7478 145.533 17.0406 145.533 14.9347C145.533 12.8288 143.826 11.1216 141.72 11.1216C139.614 11.1216 137.907 12.8288 137.907 14.9347C137.907 17.0406 139.614 18.7478 141.72 18.7478Z" fill="#33D69F"/>
<path opacity="0.3" d="M607.717 59.1792H388.769C388.334 59.1792 387.981 59.532 387.981 59.9672V65.3818C387.981 65.817 388.334 66.1699 388.769 66.1699H607.717C608.152 66.1699 608.505 65.817 608.505 65.3818V59.9672C608.505 59.532 608.152 59.1792 607.717 59.1792Z" fill="#33D69F"/>
<path d="M604.539 72.5249H559.723C559.287 72.5249 558.935 72.8777 558.935 73.3129V87.6247C558.935 88.0599 559.287 88.4127 559.723 88.4127H604.539C604.974 88.4127 605.327 88.0599 605.327 87.6247V73.3129C605.327 72.8777 604.974 72.5249 604.539 72.5249Z" fill="#33D69F"/>
<path opacity="0.3" d="M607.717 144.186H388.769C388.334 144.186 387.981 144.538 387.981 144.974V150.388C387.981 150.823 388.334 151.176 388.769 151.176H607.717C608.152 151.176 608.505 150.823 608.505 150.388V144.974C608.505 144.538 608.152 144.186 607.717 144.186Z" fill="#33D69F"/>
<path d="M604.539 157.531H559.723C559.287 157.531 558.935 157.884 558.935 158.319V172.631C558.935 173.066 559.287 173.419 559.723 173.419H604.539C604.974 173.419 605.327 173.066 605.327 172.631V158.319C605.327 157.884 604.974 157.531 604.539 157.531Z" fill="#33D69F"/>
<path opacity="0.3" d="M607.717 230.615H388.769C388.334 230.615 387.981 230.968 387.981 231.404V236.818C387.981 237.253 388.334 237.606 388.769 237.606H607.717C608.152 237.606 608.505 237.253 608.505 236.818V231.404C608.505 230.968 608.152 230.615 607.717 230.615Z" fill="#33D69F"/>
<path d="M604.539 243.961H559.723C559.287 243.961 558.935 244.314 558.935 244.749V259.061C558.935 259.496 559.287 259.849 559.723 259.849H604.539C604.974 259.849 605.327 259.496 605.327 259.061V244.749C605.327 244.314 604.974 243.961 604.539 243.961Z" fill="#33D69F"/>
<path d="M340.121 190.273C357.502 190.273 371.592 176.183 371.592 158.802C371.592 141.421 357.502 127.332 340.121 127.332C322.74 127.332 308.65 141.421 308.65 158.802C308.65 176.183 322.74 190.273 340.121 190.273Z" fill="#3F3D56"/>
<path d="M367.893 175.402C367.859 175.478 367.814 175.548 367.759 175.612C367.417 176.179 367.045 176.728 366.647 177.258C363.157 182.089 358.362 185.826 352.825 188.03C352.278 188.258 351.719 188.468 351.153 188.665C350.63 188.246 350.145 187.78 349.704 187.273C348.392 185.782 347.513 183.96 347.162 182.005C346.325 182.167 345.473 182.247 344.62 182.246C344.536 182.253 344.451 182.253 344.366 182.246C337.82 182.132 332.202 177.34 329.692 170.502L329.59 170.21C328.059 165.755 327.887 160.946 329.095 156.394C329.127 156.241 329.177 156.089 329.222 155.943C331.37 148.564 337.039 143.188 343.781 142.762C343.991 142.762 344.201 142.762 344.417 142.762C344.633 142.762 344.76 142.762 344.932 142.762H345.237C353.778 143.073 360.654 151.335 360.972 161.668C362.718 162.815 364.1 164.436 364.957 166.34C365.813 168.245 366.109 170.355 365.808 172.421C366.66 173.295 367.365 174.302 367.893 175.402Z" fill="#192534"/>
<path opacity="0.1" d="M367.759 175.612C367.416 176.179 367.045 176.728 366.647 177.257C366.187 176.432 365.616 175.673 364.95 175.001C365.023 174.477 365.061 173.948 365.065 173.419C365.065 171.6 364.612 169.809 363.748 168.208C362.884 166.607 361.635 165.247 360.114 164.249C359.764 153.699 352.589 145.272 343.8 145.272C337.521 145.272 332.075 149.555 329.336 155.847C329.266 156.012 329.202 156.171 329.126 156.343C328.897 156.889 328.694 157.442 328.491 158.02C328.715 156.859 329.027 155.716 329.425 154.601L329.514 154.512C331.961 147.77 337.426 142.984 343.845 142.698C344.054 142.698 344.264 142.698 344.48 142.698C344.696 142.698 344.823 142.698 344.995 142.698H345.3C353.721 143.207 360.463 151.43 360.788 161.656C362.537 162.799 363.923 164.419 364.783 166.324C365.642 168.229 365.938 170.34 365.637 172.409C366.529 173.341 367.248 174.426 367.759 175.612Z" fill="black"/>
<path d="M334.598 166.587C334.676 167.231 334.602 167.884 334.382 168.494C334.007 169.365 333.111 170.146 333.359 171.036C333.485 171.315 333.675 171.561 333.913 171.753C334.151 171.945 334.432 172.078 334.731 172.142C337.47 173.07 340.451 172.517 343.349 172.644C344.315 172.728 345.284 172.762 346.253 172.745C347.228 172.724 348.171 172.395 348.948 171.805C347.442 171.074 346.021 170.181 344.709 169.142C344.39 168.906 344.102 168.63 343.851 168.322C343.312 167.451 343.053 166.435 343.107 165.412C343.107 164.401 343.107 163.391 343.107 162.387C341.036 162.387 338.97 162.355 336.898 162.355C336.263 162.355 334.21 162.196 333.975 162.914C333.861 163.27 334.306 164.319 334.375 164.719C334.482 165.337 334.556 165.961 334.598 166.587Z" fill="#A0616A"/>
<path opacity="0.1" d="M334.598 166.587C334.676 167.231 334.602 167.884 334.382 168.494C334.007 169.365 333.111 170.146 333.359 171.036C333.485 171.315 333.675 171.561 333.913 171.753C334.151 171.945 334.432 172.078 334.731 172.142C337.47 173.07 340.451 172.517 343.349 172.644C344.315 172.728 345.284 172.762 346.253 172.745C347.228 172.724 348.171 172.395 348.948 171.805C347.442 171.074 346.021 170.181 344.709 169.142C344.39 168.906 344.102 168.63 343.851 168.322C343.312 167.451 343.053 166.435 343.107 165.412C343.107 164.401 343.107 163.391 343.107 162.387C341.036 162.387 338.97 162.355 336.898 162.355C336.263 162.355 334.21 162.196 333.975 162.914C333.861 163.27 334.306 164.319 334.375 164.719C334.482 165.337 334.556 165.961 334.598 166.587Z" fill="black"/>
<path d="M338.856 165.672C342.889 165.672 346.158 162.403 346.158 158.37C346.158 154.337 342.889 151.068 338.856 151.068C334.823 151.068 331.554 154.337 331.554 158.37C331.554 162.403 334.823 165.672 338.856 165.672Z" fill="#A0616A"/>
<path d="M352.704 179.552C352.704 179.749 352.666 179.958 352.634 180.187C352.398 181.371 352.051 182.531 351.598 183.651C351.33 184.41 351.007 185.149 350.632 185.862C350.359 186.352 349.997 186.803 349.704 187.279L349.285 187.959C349.017 188.418 348.79 188.898 348.605 189.396C347.379 189.71 346.132 189.937 344.874 190.076C343.645 190.223 342.408 190.298 341.169 190.298C334.528 190.298 327.366 188.576 322.288 185.055C322.288 185.055 323.032 184.54 322.924 184.42C322.924 184.127 322.892 183.841 322.892 183.549C322.884 182.796 323.007 182.048 323.254 181.337C323.47 180.656 323.847 180.037 324.354 179.533C324.989 178.897 325.841 178.503 326.521 177.893C327.39 177.053 328.004 175.984 328.294 174.811C328.453 174.302 328.567 173.762 328.675 173.241C328.772 172.528 328.968 171.833 329.26 171.176C329.3 171.092 329.347 171.011 329.399 170.934C329.496 170.771 329.611 170.62 329.743 170.483C330.391 169.851 331.149 169.343 331.98 168.983C332.672 168.627 333.645 168.347 334.128 168.939V168.983C334.286 169.347 334.42 169.72 334.528 170.101C334.916 170.902 335.996 171.004 336.873 170.985C339.975 170.92 343.07 170.661 346.139 170.21L347.626 169.968C348.7 169.79 349.45 170.731 350.054 171.646C351.617 174.004 352.939 176.717 352.704 179.552Z" fill="#33D69F"/>
<path opacity="0.1" d="M330.404 180.048C329.724 180.2 329.33 180.886 329.012 181.509C328.409 182.533 328.145 183.72 328.256 184.903C328.237 185.367 328.286 185.832 328.402 186.282C328.519 186.735 328.806 187.127 329.203 187.375" stroke="black" stroke-miterlimit="10"/>
<path d="M348.637 155.147C349.188 152.991 346.092 150.338 341.723 149.22C337.353 148.103 333.364 148.946 332.813 151.102C332.262 153.257 335.357 155.911 339.727 157.028C344.097 158.145 348.086 157.303 348.637 155.147Z" fill="#192534"/>
<path opacity="0.1" d="M340.134 155.498C336.251 154.506 333.378 152.32 333.143 150.312C332.963 150.538 332.833 150.8 332.762 151.081C332.209 153.235 335.304 155.885 339.67 157.004C344.036 158.122 348.027 157.277 348.567 155.097C348.628 154.857 348.645 154.607 348.618 154.36C347.455 155.962 343.94 156.47 340.134 155.498Z" fill="black"/>
<path d="M352.895 184.731C352.895 185.837 352.895 186.937 352.825 188.03C352.278 188.259 351.719 188.468 351.153 188.665C350.32 188.955 349.472 189.196 348.611 189.39C347.385 189.704 346.139 189.931 344.881 190.07C344.658 187.439 344.156 184.903 344.404 182.234C344.61 180.189 345.313 178.226 346.45 176.514C346.896 175.765 347.535 175.148 348.3 174.728C348.682 174.526 349.113 174.436 349.545 174.47C349.976 174.503 350.388 174.659 350.734 174.919C351.166 175.371 351.469 175.931 351.611 176.54C352.04 177.732 352.384 178.953 352.64 180.194C352.64 180.327 352.685 180.473 352.704 180.613C352.88 181.978 352.944 183.356 352.895 184.731Z" fill="#A0616A"/>
<path d="M371.585 245.232C371.6 250.495 370.289 255.678 367.772 260.3C367.493 260.809 367.2 261.323 366.87 261.832C366.835 261.908 366.79 261.978 366.736 262.042C366.394 262.609 366.022 263.158 365.624 263.688C363.21 267.036 360.153 269.871 356.632 272.026L356.447 272.153C355.29 272.847 354.091 273.469 352.857 274.015C352.513 274.167 352.158 274.313 351.802 274.46C351.446 274.606 351.115 274.739 350.759 274.854C350.582 274.93 350.391 274.993 350.207 275.057C350.186 275.054 350.164 275.054 350.143 275.057C349.755 275.197 349.355 275.318 348.961 275.438L348.662 275.508C348.306 275.616 347.951 275.705 347.595 275.781C346.367 276.096 345.118 276.323 343.858 276.461C342.637 276.609 341.408 276.684 340.178 276.684C340.051 276.684 339.924 276.684 339.797 276.684C338.092 276.679 336.39 276.521 334.713 276.214L334.408 276.163C334.096 276.112 333.772 276.048 333.473 275.972L332.882 275.839C332.256 275.701 331.636 275.532 331.027 275.33C329.785 274.958 328.569 274.506 327.385 273.977L327.252 273.919C325.519 273.134 323.862 272.192 322.301 271.104C322.168 271.026 322.041 270.939 321.92 270.843C317.526 267.711 314.012 263.502 311.715 258.62C309.417 253.738 308.414 248.347 308.801 242.965C309.189 237.584 310.953 232.392 313.926 227.889C316.898 223.386 320.979 219.723 325.775 217.252C330.572 214.781 335.923 213.585 341.316 213.779C346.708 213.973 351.959 215.55 356.566 218.36C361.173 221.169 364.98 225.115 367.621 229.82C370.262 234.525 371.649 239.83 371.649 245.226L371.585 245.232Z" fill="#3F3D56"/>
<path d="M347.734 237.65C347.659 239.37 346.924 240.994 345.68 242.184C344.437 243.374 342.783 244.038 341.062 244.038C339.341 244.038 337.686 243.374 336.443 242.184C335.2 240.994 334.464 239.37 334.389 237.65C334.389 237.542 334.389 237.434 334.389 237.333C334.389 235.563 335.092 233.866 336.343 232.614C337.595 231.363 339.292 230.66 341.062 230.66C342.831 230.66 344.529 231.363 345.78 232.614C347.031 233.866 347.734 235.563 347.734 237.333C347.728 237.434 347.734 237.542 347.734 237.65Z" fill="#192534"/>
<path opacity="0.1" d="M347.734 237.651C347.659 239.37 346.924 240.994 345.68 242.184C344.437 243.374 342.783 244.039 341.062 244.039C339.341 244.039 337.686 243.374 336.443 242.184C335.2 240.994 334.464 239.37 334.389 237.651C334.389 237.543 334.389 237.435 334.389 237.333C336.271 235.792 338.629 234.951 341.062 234.951C343.494 234.951 345.852 235.792 347.734 237.333C347.728 237.435 347.734 237.543 347.734 237.651Z" fill="black"/>
<path d="M341.055 256.627C346.878 256.627 351.598 251.907 351.598 246.084C351.598 240.261 346.878 235.541 341.055 235.541C335.232 235.541 330.512 240.261 330.512 246.084C330.512 251.907 335.232 256.627 341.055 256.627Z" fill="#192534"/>
<path d="M334.668 236.176C334.669 234.558 335.257 232.996 336.323 231.78C337.389 230.563 338.861 229.774 340.464 229.56C339.52 229.433 338.559 229.508 337.647 229.782C336.734 230.056 335.891 230.523 335.173 231.149C334.456 231.776 333.881 232.55 333.487 233.417C333.093 234.285 332.889 235.226 332.889 236.179C332.889 237.132 333.093 238.074 333.487 238.941C333.881 239.809 334.456 240.582 335.173 241.209C335.891 241.836 336.734 242.302 337.647 242.576C338.559 242.85 339.52 242.926 340.464 242.798C338.859 242.584 337.387 241.795 336.321 240.577C335.255 239.358 334.668 237.795 334.668 236.176Z" fill="#192534"/>
<path d="M329.158 250.367C327.945 249.296 327.163 247.82 326.956 246.216C326.749 244.611 327.132 242.985 328.033 241.641C327.809 241.84 327.596 242.052 327.398 242.277C326.793 242.931 326.325 243.699 326.021 244.536C325.717 245.373 325.584 246.262 325.629 247.152C325.674 248.041 325.897 248.913 326.284 249.715C326.671 250.517 327.214 251.234 327.882 251.823C328.55 252.412 329.329 252.861 330.173 253.145C331.017 253.429 331.91 253.541 332.798 253.474C333.686 253.408 334.552 253.165 335.344 252.759C336.137 252.353 336.84 251.792 337.413 251.111C337.608 250.889 337.788 250.656 337.954 250.411C336.731 251.47 335.165 252.05 333.547 252.041C331.93 252.033 330.37 251.438 329.158 250.367Z" fill="#192534"/>
<path d="M335.539 259.455C334.99 259.563 334.459 259.749 333.963 260.008C333.086 260.643 333.118 261.914 333.378 262.95C333.975 265.314 335.437 267.583 337.674 268.549C339.059 269.06 340.535 269.276 342.008 269.185C343.603 269.185 345.408 268.969 346.4 267.71C346.846 267.047 347.151 266.298 347.296 265.511C347.785 263.605 348.281 261.635 348.103 259.665C347.137 259.747 346.057 259.804 345.294 259.194C344.531 258.584 344.36 257.421 344.023 256.455C343.986 256.3 343.899 256.161 343.775 256.061C343.636 255.998 343.482 255.976 343.33 255.998C342.316 256.041 341.3 255.999 340.293 255.871C339.657 255.788 338.119 255.133 337.649 255.686C337.306 256.087 337.522 257.307 337.255 257.873C337.088 258.237 336.85 258.564 336.556 258.836C336.261 259.108 335.915 259.318 335.539 259.455Z" fill="#FFC1C7"/>
<path opacity="0.05" d="M335.539 259.455C334.99 259.563 334.459 259.749 333.963 260.008C333.086 260.643 333.118 261.914 333.378 262.95C333.975 265.314 335.437 267.583 337.674 268.549C339.059 269.06 340.535 269.276 342.008 269.185C343.603 269.185 345.408 268.969 346.4 267.71C346.846 267.047 347.151 266.298 347.296 265.511C347.785 263.605 348.281 261.635 348.103 259.665C347.137 259.747 346.057 259.804 345.294 259.194C344.531 258.584 344.36 257.421 344.023 256.455C343.986 256.3 343.899 256.161 343.775 256.061C343.636 255.998 343.482 255.976 343.33 255.998C342.316 256.041 341.3 255.999 340.293 255.871C339.657 255.788 338.119 255.133 337.649 255.686C337.306 256.087 337.522 257.307 337.255 257.873C337.088 258.237 336.85 258.564 336.556 258.836C336.261 259.108 335.915 259.318 335.539 259.455Z" fill="black"/>
<path d="M340.909 258.546C344.98 258.546 348.281 255.246 348.281 251.174C348.281 247.103 344.98 243.802 340.909 243.802C336.837 243.802 333.537 247.103 333.537 251.174C333.537 255.246 336.837 258.546 340.909 258.546Z" fill="#FFC1C7"/>
<path d="M357.07 267.145C357.019 267.208 356.968 267.284 356.911 267.348L356.6 267.755C355.03 269.636 353.759 271.747 352.831 274.015C352.488 274.167 352.132 274.313 351.776 274.459C351.42 274.606 351.09 274.739 350.734 274.853C350.556 274.93 350.365 274.993 350.181 275.057C350.16 275.054 350.139 275.054 350.118 275.057C349.73 275.197 349.33 275.317 348.936 275.438L348.637 275.508C348.281 275.616 347.925 275.705 347.569 275.781C346.341 276.096 345.092 276.323 343.832 276.461C342.611 276.609 341.383 276.683 340.153 276.684C340.026 276.684 339.899 276.684 339.771 276.684C338.066 276.679 336.365 276.521 334.687 276.213L334.382 276.163C334.071 276.112 333.747 276.048 333.448 275.972L332.857 275.838C332.23 275.701 331.611 275.531 331.001 275.33C331.172 274.265 331.646 273.272 332.368 272.47C330.938 270.761 328.586 270.087 327.068 268.473C326.935 268.319 326.812 268.158 326.699 267.99C326.62 267.868 326.554 267.738 326.502 267.602C326.457 267.495 326.429 267.381 326.419 267.265C326.371 267.031 326.352 266.792 326.362 266.554C326.324 264.749 326.407 262.69 327.805 261.558C328.491 261.078 329.264 260.733 330.08 260.542C331.499 260.098 332.88 259.541 334.211 258.877C334.332 259.16 334.414 259.46 334.452 259.766C334.579 260.504 334.567 261.279 334.738 262.01C335.071 263.313 335.878 264.446 337.001 265.187C338.12 265.921 339.395 266.384 340.725 266.541C342.034 266.732 343.076 266.052 344.309 265.588C344.855 265.413 345.359 265.128 345.79 264.749C346.347 264.106 346.643 263.279 346.622 262.429C346.622 261.59 346.527 260.751 346.578 259.887C346.579 259.799 346.59 259.712 346.61 259.627C346.611 259.405 346.682 259.19 346.812 259.012C346.942 258.833 347.124 258.699 347.334 258.629C347.572 258.609 347.811 258.653 348.027 258.756L350.404 259.665C351.434 260.021 352.426 260.479 353.365 261.031C354.403 261.705 355.276 262.605 355.917 263.664C356.559 264.722 356.953 265.912 357.07 267.145Z" fill="#33D69F"/>
<path opacity="0.1" d="M334.655 276.22L334.35 276.169C334.039 276.118 333.715 276.054 333.416 275.978L332.825 275.845C332.198 275.707 331.579 275.538 330.969 275.336C329.728 274.964 328.511 274.512 327.328 273.983C326.733 272.047 326.517 270.014 326.692 267.996C326.77 267.131 326.949 266.277 327.226 265.454C328.561 266.725 330.836 266.007 332.348 267.024C332.759 267.314 333.094 267.697 333.327 268.142C333.75 268.957 334.038 269.835 334.179 270.742C334.274 271.237 334.363 271.739 334.439 272.241C334.439 272.33 334.439 272.4 334.439 272.477C334.439 272.553 334.439 272.635 334.439 272.718C334.49 273.074 334.535 273.443 334.554 273.805C334.655 274.625 334.655 275.413 334.655 276.22Z" fill="black"/>
<path d="M334.35 276.169C334.039 276.118 333.715 276.055 333.416 275.978L332.825 275.845C332.198 275.708 331.579 275.538 330.969 275.337C329.728 274.964 328.511 274.512 327.328 273.983L327.194 273.926C326.465 271.788 326.19 269.522 326.387 267.272C326.478 266.46 326.653 265.659 326.908 264.882C328.243 266.153 330.518 265.448 332.031 266.465C332.613 266.884 333.056 267.468 333.302 268.143C333.549 268.795 333.734 269.47 333.855 270.157C333.994 270.901 334.128 271.644 334.217 272.4C334.237 272.505 334.247 272.612 334.249 272.718C334.249 272.788 334.249 272.877 334.249 272.947C334.249 273.017 334.249 273.125 334.249 273.22C334.369 274.193 334.363 275.184 334.35 276.169Z" fill="#33D69F"/>
<path opacity="0.1" d="M356.422 272.153C355.265 272.847 354.065 273.469 352.831 274.015C352.488 274.167 352.132 274.313 351.776 274.46C351.42 274.606 351.09 274.739 350.734 274.854C350.556 274.93 350.365 274.993 350.181 275.057C350.16 275.054 350.139 275.054 350.117 275.057C349.73 275.197 349.329 275.318 348.935 275.438L348.637 275.508C348.637 274.943 348.637 274.358 348.7 273.786C348.745 273.335 348.796 272.883 348.859 272.432C348.859 272.35 348.859 272.267 348.891 272.184C348.897 272.132 348.897 272.078 348.891 272.026C348.967 271.593 349.05 271.155 349.132 270.723C349.264 269.814 349.552 268.934 349.984 268.124C350.222 267.687 350.56 267.313 350.969 267.03C352.482 266.014 354.782 266.706 356.053 265.461C356.303 266.199 356.476 266.962 356.568 267.736C356.74 269.207 356.691 270.696 356.422 272.153Z" fill="black"/>
<path d="M356.606 272.025L356.422 272.153C355.265 272.847 354.066 273.469 352.831 274.015C352.488 274.167 352.132 274.313 351.776 274.46C351.42 274.606 351.09 274.739 350.734 274.854C350.556 274.93 350.365 274.993 350.181 275.057C350.16 275.054 350.139 275.054 350.118 275.057C349.73 275.197 349.33 275.317 348.936 275.438C348.936 274.688 348.936 273.945 348.999 273.201C348.999 273.011 348.999 272.814 349.05 272.623C349.05 272.54 349.05 272.445 349.05 272.362C349.05 272.28 349.05 272.223 349.05 272.165C349.145 271.479 349.26 270.812 349.399 270.138C349.52 269.451 349.705 268.776 349.952 268.123C350.198 267.449 350.641 266.865 351.223 266.446C352.736 265.429 355.036 266.122 356.308 264.863C356.581 265.662 356.76 266.489 356.841 267.329C357.012 268.897 356.933 270.482 356.606 272.025Z" fill="#33D69F"/>
<path d="M340.762 250.138C345.648 250.138 349.609 247.498 349.609 244.241C349.609 240.984 345.648 238.343 340.762 238.343C335.877 238.343 331.916 240.984 331.916 244.241C331.916 247.498 335.877 250.138 340.762 250.138Z" fill="#192534"/>
<path opacity="0.05" d="M333.41 275.089C333.41 275.222 333.41 275.362 333.41 275.508C333.41 275.654 333.41 275.788 333.41 275.927C333.407 275.944 333.407 275.961 333.41 275.978L332.819 275.845C332.809 275.733 332.809 275.62 332.819 275.508C332.818 274.919 332.944 274.336 333.189 273.8C333.433 273.264 333.791 272.786 334.236 272.4C334.294 272.339 334.36 272.285 334.433 272.241C334.774 271.964 335.161 271.749 335.577 271.606C335.958 271.459 336.363 271.381 336.772 271.377C336.827 271.371 336.882 271.371 336.937 271.377C337.038 271.371 337.14 271.371 337.242 271.377H337.032C336.059 271.48 335.156 271.931 334.49 272.648C334.416 272.717 334.35 272.794 334.293 272.877C333.785 273.51 333.477 274.28 333.41 275.089Z" fill="black"/>
<path d="M339.879 275.508C339.878 275.906 339.832 276.303 339.739 276.69C338.034 276.685 336.333 276.528 334.655 276.22L334.35 276.169C334.039 276.118 333.715 276.055 333.416 275.978V275.928C333.416 275.788 333.416 275.654 333.416 275.508C333.416 275.362 333.416 275.222 333.416 275.089C333.47 274.236 333.76 273.415 334.255 272.718C334.312 272.631 334.378 272.55 334.452 272.477C334.748 272.107 335.13 271.815 335.564 271.625C335.897 271.466 336.262 271.384 336.632 271.384C336.674 271.377 336.717 271.377 336.759 271.384C336.846 271.377 336.933 271.377 337.019 271.384C338.627 271.657 339.879 273.398 339.879 275.508Z" fill="#33D69F"/>
<path opacity="0.05" d="M350.734 274.854C350.556 274.93 350.365 274.993 350.181 275.057C350.09 274.147 349.691 273.295 349.049 272.642L348.859 272.451C348.224 271.882 347.43 271.52 346.584 271.416H346.374C346.471 271.409 346.569 271.409 346.666 271.416C346.723 271.409 346.781 271.409 346.838 271.416C347.248 271.425 347.654 271.503 348.039 271.644C348.345 271.749 348.637 271.89 348.91 272.064C348.98 272.1 349.045 272.147 349.1 272.204C349.534 272.516 349.902 272.91 350.182 273.365C350.462 273.82 350.65 274.326 350.734 274.854Z" fill="black"/>
<path d="M350.181 275.057C350.16 275.054 350.138 275.054 350.117 275.057C349.73 275.197 349.329 275.318 348.935 275.438L348.637 275.508C348.281 275.616 347.925 275.705 347.569 275.782C346.341 276.096 345.092 276.323 343.832 276.462C343.768 276.142 343.736 275.816 343.737 275.489C343.737 273.379 345.008 271.638 346.603 271.396C346.688 271.39 346.773 271.39 346.857 271.396C346.897 271.39 346.938 271.39 346.978 271.396C347.352 271.395 347.721 271.477 348.058 271.638C348.374 271.778 348.663 271.974 348.91 272.216C348.98 272.269 349.044 272.328 349.101 272.394C349.738 273.142 350.117 274.076 350.181 275.057Z" fill="#33D69F"/>
<path opacity="0.1" d="M340.762 249.554C336.021 249.554 332.151 247.075 331.922 243.955C331.922 244.05 331.922 244.146 331.922 244.247C331.922 247.507 335.888 250.145 340.775 250.145C345.662 250.145 349.621 247.507 349.621 244.247C349.621 244.146 349.621 244.05 349.621 243.955C349.367 247.075 345.497 249.554 340.762 249.554Z" fill="black"/>
<path d="M308.65 73.8021C308.639 79.0629 309.95 84.242 312.463 88.8638C312.749 89.3786 313.041 89.8933 313.365 90.3954C313.402 90.4713 313.449 90.5419 313.505 90.6051C313.855 91.1672 314.235 91.7103 314.643 92.232C315.963 94.0682 317.485 95.7502 319.18 97.2462C319.495 97.5479 319.826 97.8322 320.172 98.0978C321.26 99.0075 322.416 99.8339 323.629 100.57L323.82 100.697C324.977 101.39 326.173 102.014 327.404 102.565L328.465 103.004C328.815 103.15 329.145 103.29 329.508 103.404C329.685 103.474 329.87 103.538 330.06 103.601H330.149C330.535 103.741 330.929 103.868 331.331 103.983L331.624 104.053C331.98 104.161 332.342 104.256 332.698 104.326C333.181 104.453 333.657 104.561 334.153 104.65C334.897 104.796 335.666 104.923 336.428 105.012C337.649 105.158 338.878 105.23 340.108 105.228H340.483C342.188 105.218 343.889 105.058 345.567 104.752C345.67 104.741 345.772 104.724 345.872 104.701C346.183 104.65 346.508 104.586 346.806 104.51C347.01 104.472 347.194 104.428 347.397 104.377C348.033 104.237 348.668 104.072 349.253 103.875C349.628 103.754 349.997 103.639 350.365 103.512C351.109 103.252 351.852 102.972 352.564 102.654C352.675 102.618 352.783 102.573 352.888 102.521L353.028 102.457C353.968 102.034 354.884 101.561 355.773 101.04C356.53 100.608 357.267 100.138 357.979 99.6421H358.023C358.139 99.5746 358.249 99.4981 358.354 99.4133C362.752 96.2842 366.272 92.0761 368.574 87.1937C370.876 82.3112 371.883 76.9186 371.499 71.5343C371.114 66.15 369.351 60.9551 366.379 56.4492C363.406 51.9433 359.325 48.2779 354.526 45.8053C349.728 43.3328 344.374 42.1364 338.98 42.331C333.585 42.5257 328.331 44.1049 323.724 46.9168C319.116 49.7288 315.309 53.6789 312.669 58.3873C310.029 63.0957 308.645 68.4041 308.65 73.8021Z" fill="#3F3D56"/>
<path d="M347.105 86.2708C347.569 86.6793 347.892 87.2244 348.027 87.8278C347.112 88.0693 346.177 87.6181 345.326 87.1923C342.682 85.9521 339.891 85.053 337.02 84.5168C336.79 84.4955 336.57 84.412 336.384 84.2753C336.24 84.0807 336.165 83.8434 336.172 83.6014C336.179 83.3594 336.267 83.1267 336.422 82.9407C336.74 82.6102 337.337 82.6547 337.769 82.6357C339.492 82.5475 341.214 82.8235 342.822 83.4454C344.431 84.0674 345.89 85.0215 347.105 86.2454V86.2708Z" fill="#33D69F"/>
<path d="M337.807 83.7418C337.617 84.2178 337.333 84.6506 336.971 85.0142C336.61 85.3778 336.179 85.6648 335.704 85.858C335.189 86.0423 334.636 86.0741 334.115 86.2203C333.848 86.2759 333.598 86.3926 333.384 86.5614C333.17 86.7301 332.998 86.9462 332.882 87.1926C332.812 87.4145 332.78 87.6465 332.787 87.879C332.704 90.0715 332.641 92.3276 333.518 94.3612C334.274 96.1025 335.659 97.4752 337.032 98.778C338.634 100.31 340.33 101.86 342.44 102.547C343.673 102.947 345.129 102.991 346.152 102.197C346.553 101.849 346.902 101.444 347.188 100.996C347.901 100.061 348.499 99.0433 348.967 97.9646C349.838 95.7276 349.545 93.2236 349.24 90.8405C349.238 90.6989 349.184 90.563 349.088 90.4591C348.955 90.3765 348.795 90.3492 348.643 90.3829C348.097 90.4384 347.548 90.321 347.072 90.0473C346.597 89.7736 346.219 89.3575 345.993 88.8577C345.862 88.404 345.812 87.9305 345.847 87.4595L345.891 84.7395C345.912 84.4476 345.878 84.1543 345.789 83.8752C345.54 83.4219 345.136 83.0726 344.652 82.8902C343.167 82.1467 341.618 81.5363 340.025 81.0663C339.326 80.8629 338.792 80.5197 338.481 81.2696C338.17 82.0195 338.17 82.9537 337.807 83.7418Z" fill="#FBBEBE"/>
<path opacity="0.1" d="M337.807 83.7418C337.617 84.2178 337.333 84.6506 336.971 85.0142C336.61 85.3778 336.179 85.6648 335.704 85.858C335.189 86.0423 334.636 86.0741 334.115 86.2203C333.848 86.2759 333.598 86.3926 333.384 86.5614C333.17 86.7301 332.998 86.9462 332.882 87.1926C332.812 87.4145 332.78 87.6465 332.787 87.879C332.704 90.0715 332.641 92.3276 333.518 94.3612C334.274 96.1025 335.659 97.4752 337.032 98.778C338.634 100.31 340.33 101.86 342.44 102.547C343.673 102.947 345.129 102.991 346.152 102.197C346.553 101.849 346.902 101.444 347.188 100.996C347.901 100.061 348.499 99.0433 348.967 97.9646C349.838 95.7276 349.545 93.2236 349.24 90.8405C349.238 90.6989 349.184 90.563 349.088 90.4591C348.955 90.3765 348.795 90.3492 348.643 90.3829C348.097 90.4384 347.548 90.321 347.072 90.0473C346.597 89.7736 346.219 89.3575 345.993 88.8577C345.862 88.404 345.812 87.9305 345.847 87.4595L345.891 84.7395C345.912 84.4476 345.878 84.1543 345.789 83.8752C345.54 83.4219 345.136 83.0726 344.652 82.8902C343.167 82.1467 341.618 81.5363 340.025 81.0663C339.326 80.8629 338.792 80.5197 338.481 81.2696C338.17 82.0195 338.17 82.9537 337.807 83.7418Z" fill="black"/>
<path d="M345.167 85.9468C349.751 85.9468 353.467 82.2308 353.467 77.647C353.467 73.0631 349.751 69.3472 345.167 69.3472C340.583 69.3472 336.867 73.0631 336.867 77.647C336.867 82.2308 340.583 85.9468 345.167 85.9468Z" fill="#FBBEBE"/>
<path d="M334.14 104.688C334.884 104.834 335.653 104.961 336.416 105.05C337.637 105.196 338.865 105.268 340.095 105.266H340.47C342.175 105.256 343.877 105.096 345.554 104.79C345.657 104.78 345.759 104.763 345.859 104.739C346.171 104.688 346.495 104.625 346.793 104.548C346.997 104.51 347.181 104.466 347.385 104.415C348.02 104.275 348.656 104.11 349.24 103.913C349.615 103.792 349.984 103.678 350.352 103.551C351.096 103.29 351.839 103.01 352.551 102.693C352.368 102.128 352.217 101.553 352.1 100.97C351.895 99.7274 351.814 98.4671 351.859 97.2081C351.859 96.1976 351.903 95.1935 351.859 94.1894C351.874 93.3749 351.756 92.5633 351.509 91.7872C351.383 91.3994 351.181 91.0407 350.915 90.7319C350.648 90.4231 350.323 90.1704 349.958 89.9887C349.011 89.5692 347.588 89.3531 346.654 89.8234C346.547 89.8808 346.445 89.9467 346.349 90.0204C346.145 90.1906 345.988 90.4091 345.891 90.6559C345.586 91.4186 345.256 92.1875 344.963 92.9502C344.775 93.4814 344.525 93.989 344.22 94.4627C343.758 95.0857 343.115 95.5504 342.379 95.7928C341.642 96.0352 340.849 96.0434 340.108 95.8163C340.015 95.7859 339.923 95.7498 339.835 95.7083C338.564 95.1935 337.401 94.0814 336.072 94.3801C335.705 94.4778 335.365 94.658 335.077 94.9068C334.79 95.1557 334.563 95.4667 334.414 95.8163C334.395 95.8529 334.38 95.8912 334.369 95.9307C334.102 96.5953 333.947 97.2998 333.912 98.0152C333.719 100.241 333.796 102.481 334.14 104.688Z" fill="#F2F2F2"/>
<path d="M319.181 97.2656C319.495 97.5673 319.826 97.8516 320.172 98.1172C321.261 99.0269 322.416 99.8533 323.629 100.589L323.82 100.716C324.977 101.409 326.174 102.033 327.404 102.585L328.466 103.023C328.815 103.17 329.146 103.309 329.508 103.424C329.686 103.494 329.87 103.557 330.061 103.621H330.15C330.535 103.761 330.929 103.888 331.332 104.002L331.624 104.072C331.98 104.18 332.342 104.275 332.698 104.345C333.181 104.472 333.658 104.58 334.153 104.669C334.897 104.816 335.666 104.943 336.429 105.032C337.65 105.178 338.878 105.25 340.108 105.248H340.483C342.188 105.237 343.89 105.078 345.567 104.771C345.67 104.761 345.772 104.744 345.872 104.72C346.184 104.669 346.508 104.606 346.806 104.53C347.01 104.491 347.194 104.447 347.397 104.396C348.033 104.256 348.669 104.091 349.253 103.894C349.628 103.773 349.997 103.659 350.365 103.532C351.109 103.271 351.852 102.992 352.564 102.674C352.675 102.637 352.784 102.592 352.888 102.54L353.028 102.477C353.969 102.053 354.884 101.581 355.774 101.06C356.398 99.3959 356.928 97.6986 357.362 95.9755C357.36 95.9417 357.36 95.9077 357.362 95.8738C356.371 94.1135 355.494 92.2832 354.509 90.5228C354.229 89.86 353.779 89.283 353.204 88.85C352.629 88.417 351.95 88.1435 351.236 88.057C350.547 87.8299 349.831 87.6973 349.107 87.663C348.695 87.6247 348.288 87.5545 347.887 87.4533C347.061 87.269 346.146 87.091 345.84 87.4533C345.827 87.4628 345.816 87.4752 345.809 87.4895C345.801 87.5038 345.797 87.5196 345.796 87.5359C345.682 87.9628 345.734 88.4171 345.942 88.8069C346.082 89.2073 346.266 89.6267 346.362 89.9699C346.418 90.1337 346.451 90.3051 346.457 90.4783C346.479 91.2227 346.454 91.9678 346.381 92.709C346.203 93.7893 345.605 94.7426 345.326 95.7912C345.199 96.2869 345.135 96.8017 345.052 97.3038C344.876 98.4376 344.58 99.5496 344.169 100.621C344.095 100.849 343.986 101.063 343.845 101.257C343.324 101.892 342.46 101.651 341.64 101.53C341.042 101.022 341.074 100.119 341.004 99.3564C340.829 98.0755 340.438 96.8334 339.848 95.6832L339.631 95.2256C338.996 93.9101 338.36 92.6009 337.763 91.2791C336.994 89.6394 336.2 87.7647 336.835 86.0678C337.02 85.5594 337.318 85.1082 337.522 84.6189C337.555 84.5469 337.582 84.4726 337.604 84.3965C337.663 84.209 337.695 84.0144 337.7 83.8181C337.722 83.6426 337.708 83.4644 337.657 83.2947C337.607 83.1251 337.522 82.9679 337.407 82.8331C337.373 82.7812 337.33 82.736 337.28 82.6996C337.259 82.6771 337.233 82.6597 337.204 82.6488C336.995 82.5285 336.76 82.4599 336.519 82.4489C336.278 82.4378 336.038 82.4846 335.818 82.5852C335.568 82.6763 335.323 82.7846 335.088 82.9093C333.84 83.6122 332.636 84.3911 331.484 85.2417C331.146 85.4425 330.883 85.7482 330.734 86.1123C330.707 86.3538 330.667 86.5935 330.614 86.8305C330.436 87.2817 329.895 87.4151 329.432 87.5168C327.513 87.9598 325.705 88.7897 324.118 89.9557C322.532 91.1216 321.2 92.5992 320.204 94.2978C319.867 94.8439 319.602 95.4314 319.416 96.0454C319.303 96.4447 319.224 96.8529 319.181 97.2656Z" fill="#33D69F"/>
<path d="M348.821 72.9632C347.696 74.1135 345.898 74.158 344.29 74.1326L344.341 73.4971L342.085 74.3042C342.671 73.8694 343.173 73.3309 343.565 72.7154C343.409 72.5986 343.221 72.5299 343.026 72.5174C342.831 72.505 342.636 72.5495 342.466 72.6455C342.128 72.8421 341.845 73.1221 341.646 73.4589C341.005 74.4187 340.597 75.5149 340.455 76.6602C340.313 77.8055 340.44 78.9681 340.826 80.0556C340.597 80.1685 340.341 80.2191 340.086 80.2024C339.831 80.1857 339.584 80.1022 339.371 79.9603C338.947 79.6697 338.622 79.2576 338.437 78.7782C338.303 78.4732 338.164 78.1427 337.846 78.022C337.709 77.9884 337.564 78.0013 337.435 78.0589C337.307 78.1164 337.201 78.2152 337.134 78.3397C337 78.5863 336.947 78.8685 336.982 79.1468C337.026 79.7823 337.503 80.4178 337.617 81.0533C337.731 81.6889 338.672 82.1973 338.176 82.6231C337.595 82.8417 336.989 82.9848 336.371 83.0489C336.249 83.0121 336.138 82.946 336.047 82.8563C335.956 82.7666 335.888 82.6559 335.85 82.5341C335.348 81.4283 335.526 80.1382 335.215 78.9625C334.926 78.0293 334.484 77.1508 333.906 76.3633C333.766 76.1226 333.6 75.8987 333.41 75.696C333.21 75.5497 333.045 75.3609 332.927 75.1431C332.844 74.9143 333.003 74.5775 333.245 74.622C332.851 74.24 332.425 73.8914 331.974 73.5797C332.418 73.0204 332.851 72.4485 333.245 71.8765C333.391 71.6732 333.543 71.4253 333.435 71.2029C333.374 71.0992 333.286 71.0137 333.181 70.955L332.056 70.1924C332.056 69.6586 333.118 69.8556 333.283 69.3535C333.324 69.2211 333.324 69.0793 333.283 68.9468L332.889 67.5105L334.389 68.1906C334.562 68.2903 334.761 68.3367 334.961 68.324C335.355 68.2668 335.545 67.8029 335.596 67.4025C335.555 67.002 335.608 66.5975 335.749 66.2205C336.429 66.2205 337.109 66.2205 337.782 66.2205C337.827 65.8806 337.738 65.5367 337.534 65.2608L342.542 64.9812C343.393 64.8843 344.255 64.9446 345.084 65.1591C345.349 65.2838 345.637 65.3489 345.93 65.3498C346.216 65.3498 346.508 65.0511 346.425 64.7715C347.176 65.1954 347.863 65.7239 348.465 66.3412C348.626 66.5357 348.822 66.6976 349.044 66.8178C349.156 66.8759 349.283 66.899 349.409 66.8843C349.535 66.8695 349.653 66.8177 349.749 66.7352C349.889 66.5891 349.952 66.3285 350.156 66.3158C350.359 66.3031 350.385 66.4175 350.461 66.5128C350.747 66.8807 350.98 67.2872 351.153 67.7203C351.513 67.6714 351.866 67.5774 352.202 67.4406C352.045 67.6081 351.943 67.8194 351.909 68.0465C351.875 68.2735 351.911 68.5055 352.011 68.7117C352.177 69.1375 352.482 69.4997 352.685 69.9064C352.885 70.3462 353.02 70.813 353.085 71.2918C353.187 71.8892 353.187 72.6455 352.66 72.9378C352.409 73.0241 352.14 73.0389 351.882 72.9805C351.624 72.9221 351.387 72.7929 351.198 72.6074C349.984 71.7431 349.762 71.9973 348.821 72.9632Z" fill="#192534"/>
<path d="M320.172 98.1169C321.261 99.0266 322.416 99.853 323.629 100.589L323.82 100.716C324.977 101.409 326.173 102.033 327.404 102.585L328.465 103.023C328.815 103.169 329.145 103.309 329.508 103.423C329.686 103.493 329.87 103.557 330.06 103.62C329.838 102.985 329.692 102.349 329.495 101.714C328.97 100.016 328.034 98.4748 326.769 97.2271C325.675 96.1341 323.934 94.5389 322.32 95.5049C321.828 95.8365 321.398 96.2516 321.049 96.7314C320.739 97.085 320.474 97.4757 320.261 97.8944C320.229 97.9516 320.204 98.0279 320.172 98.1169Z" fill="#33D69F"/>
<path d="M350.391 103.544C351.134 103.284 351.878 103.004 352.59 102.686C352.701 102.649 352.809 102.605 352.914 102.553L353.053 102.489C353.994 102.065 354.909 101.593 355.799 101.072C356.555 100.64 357.292 100.169 358.004 99.6738H358.049C357.991 98.9653 357.991 98.2533 358.049 97.5448C358.085 97.3071 358.07 97.0643 358.004 96.8331C357.916 96.6499 357.795 96.4842 357.648 96.3437C357.555 96.2502 357.468 96.1504 357.388 96.045C356.67 95.2379 356.085 94.3673 354.846 94.4944C353.606 94.6215 352.539 95.6891 352.018 96.8775C351.961 96.9918 351.914 97.1109 351.878 97.2334C351.523 98.3375 351.247 99.4651 351.052 100.608C350.886 101.313 350.677 101.993 350.524 102.699C350.486 102.959 350.429 103.252 350.391 103.544Z" fill="#33D69F"/>
<path d="M207.133 290.786L206.854 290.938L207.133 290.786Z" fill="url(#paint0_linear)"/>
<path d="M168.094 256.462C165.641 263.529 168.507 275 169.835 280.115C170.715 283.817 171.298 287.583 171.576 291.377C174.566 291.885 177.625 291.816 180.588 291.173L178.44 280.63C179.971 274.383 178.44 257.695 178.44 257.695C178.44 257.695 181.916 251.244 182.253 241.413C182.552 231.74 184.935 228.613 185.011 228.512C189.924 231.054 196.171 258.514 196.171 258.514C195.656 265.168 196.272 275.406 198.319 280.935C199.56 284.448 200.083 288.173 199.857 291.892C200.254 292.177 200.709 292.373 201.19 292.465C201.67 292.557 202.165 292.544 202.64 292.425C205.564 291.955 209.072 289.432 209.072 289.432C209.072 289.432 207.947 259.563 207.127 258.413C206.307 257.262 207.127 250.837 207.127 250.837L205.792 240.39C205.792 240.39 205.996 222.678 204.051 219.608C202.373 216.952 201.986 212.293 201.909 211.067C201.909 210.876 201.909 210.768 201.909 210.768L198.948 207.216C198.948 207.216 170.28 205.068 168.125 207.216C167.598 207.743 167.274 208.944 167.077 210.457C166.486 215.102 167.166 222.678 167.166 222.678C167.166 222.678 168.024 228.308 169.257 234.041C169.994 237.484 169.994 241.045 169.257 244.489C169.648 248.517 169.253 252.584 168.094 256.462Z" fill="#575A89"/>
<path d="M169.86 301.361C171.131 303.051 178.668 302.333 179.946 301.805C180.727 301.488 180.67 300.013 180.46 298.501C180.327 297.535 180.13 296.55 180.047 295.832C179.844 293.989 180.683 290.252 180.683 290.252C180.683 290.252 178.992 292.044 178.586 290.252C178.49 289.91 178.304 289.601 178.047 289.357C177.789 289.113 177.47 288.943 177.124 288.866C176.247 288.601 175.304 288.659 174.467 289.032C173.133 289.604 170.915 290.837 171.29 292.502C171.849 294.853 169.854 298.221 169.854 298.221C169.493 298.672 169.296 299.232 169.296 299.81C169.296 300.388 169.493 300.948 169.854 301.399L169.86 301.361Z" fill="#CBCEDA"/>
<path opacity="0.1" d="M169.86 301.361C171.131 303.051 178.669 302.333 179.946 301.806C180.728 301.488 180.67 300.013 180.461 298.501C179.654 298.876 178.275 299.194 176.012 298.978C175.478 298.929 174.941 298.912 174.404 298.927C172.775 299.004 171.142 298.972 169.517 298.831C169.335 299.244 169.271 299.698 169.332 300.145C169.392 300.591 169.575 301.012 169.86 301.361Z" fill="black"/>
<path opacity="0.1" d="M196.126 258.514C195.611 265.168 196.228 275.406 198.274 280.935C199.515 284.448 200.038 288.173 199.812 291.892C200.209 292.177 200.664 292.373 201.145 292.465C201.626 292.557 202.121 292.544 202.595 292.425C201.96 288.11 199.348 269.502 197.658 254.803C196.434 244.622 192.688 234.908 186.758 226.542L184.966 228.512C189.879 231.073 196.126 258.514 196.126 258.514Z" fill="black"/>
<path d="M172.936 150.903L174.207 157.048L180.333 167.337L187.883 164.115C187.883 164.115 198.147 153.362 191.696 151.824C190.923 151.662 190.193 151.337 189.555 150.871C189.002 150.431 188.562 149.865 188.271 149.221C187.98 148.576 187.848 147.872 187.883 147.166C187.933 145.642 188.29 144.145 188.932 142.762L175.72 138.625C176.26 140.361 176.578 142.159 176.667 143.976C176.768 147.573 175.427 149.346 174.334 150.191C173.92 150.519 173.445 150.761 172.936 150.903Z" fill="#FBBEBE"/>
<path opacity="0.1" d="M175.72 138.625C176.26 140.361 176.578 142.159 176.667 143.976C176.905 144.264 177.162 144.535 177.436 144.789C179.368 146.642 181.94 147.678 184.617 147.681C185.714 147.683 186.804 147.509 187.845 147.166C187.895 145.642 188.252 144.145 188.894 142.762L175.72 138.625Z" fill="black"/>
<path d="M174.182 136.928C174.181 138.995 174.793 141.016 175.94 142.735C177.088 144.454 178.72 145.795 180.63 146.586C182.54 147.377 184.641 147.584 186.669 147.181C188.696 146.778 190.558 145.782 192.02 144.32C193.481 142.857 194.476 140.995 194.878 138.967C195.28 136.939 195.072 134.838 194.279 132.928C193.487 131.019 192.146 129.388 190.426 128.241C188.706 127.094 186.684 126.484 184.617 126.486C183.244 126.48 181.884 126.746 180.615 127.269C179.346 127.792 178.193 128.561 177.223 129.532C176.253 130.503 175.484 131.656 174.962 132.925C174.44 134.195 174.175 135.555 174.182 136.928Z" fill="#FBBEBE"/>
<path opacity="0.1" d="M172.936 150.903L174.207 157.048L180.333 167.337L187.883 164.115C187.883 164.115 198.147 153.362 191.696 151.824C190.923 151.662 190.193 151.337 189.555 150.871C190.718 154.048 185.913 160.734 185.913 160.734C185.354 161.554 184.07 161.039 184.07 161.039C180.969 160.569 175.268 151.665 174.341 150.185C173.925 150.515 173.447 150.759 172.936 150.903Z" fill="black"/>
<path opacity="0.1" d="M167.02 210.438C168.837 210.851 178.897 213.082 182.71 212.522C186.911 211.887 195.071 211.499 195.071 211.499C195.071 211.499 200.27 211.779 201.865 211.048C201.865 210.857 201.865 210.749 201.865 210.749L198.903 207.197C198.903 207.197 170.235 205.049 168.081 207.197C167.541 207.743 167.217 208.945 167.02 210.438Z" fill="black"/>
<path d="M185.888 161.039C185.888 161.039 191.29 153.559 189.25 150.642L198.375 154.385C198.375 154.385 203.866 153.718 205.849 161.916C206.166 163.28 206.282 164.682 206.192 166.079C206.138 168.248 206.655 170.394 207.692 172.301C209.948 176.806 209.433 187.146 204.826 188.188C200.218 189.231 198.579 188.697 198.579 188.697C198.579 188.697 199.214 207.432 201.858 209.586C204.502 211.741 195.071 211.226 195.071 211.226C195.071 211.226 186.911 211.633 182.71 212.249C178.509 212.865 166.74 210.095 166.74 210.095C166.74 210.095 168.481 202.214 169.091 197.194C169.701 192.173 171.144 181.496 171.144 181.496L160.696 167.35C160.696 167.35 158.853 158.802 165.303 155.015C171.754 151.227 174.201 150.293 174.201 150.293C174.201 150.293 180.683 160.849 184.064 161.363C184.045 161.351 185.328 161.865 185.888 161.039Z" fill="#3F3D56"/>
<path opacity="0.1" d="M197.867 164.007C197.867 164.007 197.969 167.388 197.353 168.723C196.736 170.057 194.486 177.423 194.486 177.423H199.602C199.602 177.423 196.838 174.455 197.06 173.019C197.283 171.582 197.867 164.007 197.867 164.007Z" fill="black"/>
<path d="M182.71 189.504C182.71 189.504 194.016 186.74 195.071 184.382C196.126 182.024 199.03 176.756 199.03 176.756L197.836 175.148L192.338 179.463C192.338 179.463 185.786 184.687 182.71 185.183C179.634 185.678 182.71 189.504 182.71 189.504Z" fill="#FBBEBE"/>
<path opacity="0.05" d="M182.71 189.504C182.71 189.504 194.016 186.74 195.071 184.382C196.126 182.024 199.03 176.756 199.03 176.756L197.836 175.148L192.338 179.463C192.338 179.463 185.786 184.687 182.71 185.183C179.634 185.678 182.71 189.504 182.71 189.504Z" fill="black"/>
<path d="M172.936 176.196V182.329H173.921C178.791 182.329 183.581 183.569 187.839 185.932L189.688 186.956L190.184 187.235L193.361 180.086L190.394 177.423H190.241C189.51 177.493 186.371 177.76 185.043 177.308C183.714 176.857 182.208 175.516 178.478 176.47C176.647 176.94 175.078 179.012 173.298 178.376L172.936 176.196Z" fill="#FBBEBE"/>
<path opacity="0.1" d="M163.054 165.037L161.007 167.337V172.942C161.007 172.942 162.749 190.552 168.278 192.497C173.807 194.442 183.676 191.372 183.676 191.372C183.676 191.372 186.218 184.617 185.03 184.204C183.841 183.791 174.493 181.325 174.493 181.325C174.493 181.325 174.62 170.998 172.586 167.928C172.586 167.928 173.921 158.3 169.314 158.097C164.706 157.893 163.054 165.037 163.054 165.037Z" fill="black"/>
<path d="M162.749 165.037L160.696 167.337V172.942C160.696 172.942 162.438 190.552 167.967 192.497C173.496 194.442 183.346 191.372 183.346 191.372C183.346 191.372 185.888 184.617 184.706 184.204C183.524 183.791 174.163 181.325 174.163 181.325C174.163 181.325 174.296 170.998 172.256 167.928C172.256 167.928 173.585 158.3 168.977 158.097C164.37 157.893 162.749 165.037 162.749 165.037Z" fill="#3F3D56"/>
<path opacity="0.1" d="M177.048 141.364C176.958 140.692 177.039 140.008 177.283 139.375C177.412 139.063 177.64 138.802 177.932 138.633C178.223 138.463 178.562 138.393 178.897 138.434C179.774 138.637 180.168 139.781 181.013 140.055C181.386 140.129 181.772 140.075 182.11 139.9C182.447 139.726 182.715 139.442 182.869 139.095C183.163 138.39 183.285 137.626 183.225 136.864C183.225 136.013 183.225 135.155 183.225 134.322C183.225 133.49 183.257 132.384 183.829 131.653C184.547 130.744 186.225 130.344 187.343 130.382C188.088 130.388 188.804 130.676 189.345 131.189C189.619 131.463 189.95 131.673 190.315 131.802C190.68 131.932 191.069 131.979 191.455 131.939C191.795 131.887 192.114 131.741 192.375 131.516C192.636 131.291 192.828 130.997 192.929 130.668C192.926 130.658 192.926 130.647 192.929 130.636C192.058 129.488 190.959 128.533 189.7 127.831C188.442 127.129 187.052 126.695 185.618 126.556C184.184 126.417 182.736 126.577 181.367 127.024C179.997 127.472 178.735 128.199 177.66 129.158C176.585 130.118 175.72 131.289 175.119 132.599C174.519 133.909 174.197 135.329 174.172 136.77C174.147 138.211 174.421 139.641 174.976 140.971C175.531 142.301 176.356 143.501 177.397 144.497C177.219 143.46 177.103 142.414 177.048 141.364Z" fill="black"/>
<path d="M191.468 131.634C191.807 131.581 192.126 131.434 192.386 131.209C192.647 130.985 192.839 130.692 192.942 130.363C193.025 130.033 193.005 129.677 193.101 129.353C193.342 128.546 194.2 128.126 194.772 127.516C195.929 126.29 195.853 124.275 195.033 122.807C194.397 121.619 193.126 120.621 191.76 120.85C190.934 120.996 190.216 121.587 189.377 121.638C188.568 121.581 187.784 121.328 187.095 120.9C185.319 120.096 183.323 119.919 181.433 120.398C180.852 120.514 180.313 120.787 179.876 121.186C179.579 121.558 179.303 121.947 179.05 122.349C178.09 123.57 176.38 123.805 174.862 124.078C173.343 124.351 171.62 124.955 171.118 126.423C170.788 127.389 171.118 128.444 171.296 129.454C171.364 129.663 171.351 129.89 171.258 130.09C171.023 130.484 170.426 130.319 169.987 130.414C169.129 130.592 168.907 131.685 168.875 132.587C168.837 133.598 168.811 134.608 168.792 135.619C168.738 136.088 168.797 136.564 168.964 137.006C169.131 137.448 169.401 137.844 169.752 138.161L173.133 142.222C174.633 144.027 176.222 146.124 175.923 148.45C176.628 148.768 177.474 148.151 177.709 147.408C177.867 146.641 177.828 145.847 177.594 145.101C177.321 143.783 177.142 142.447 177.06 141.103C176.971 140.431 177.052 139.747 177.296 139.114C177.424 138.801 177.653 138.539 177.946 138.369C178.239 138.199 178.58 138.13 178.916 138.174C179.793 138.377 180.187 139.515 181.032 139.794C181.405 139.868 181.791 139.813 182.128 139.638C182.465 139.464 182.733 139.181 182.888 138.835C183.182 138.13 183.304 137.365 183.244 136.604V134.062C183.244 133.134 183.276 132.155 183.848 131.393C184.566 130.484 186.244 130.09 187.362 130.122C188.106 130.134 188.82 130.421 189.364 130.929C189.64 131.195 189.972 131.396 190.336 131.519C190.7 131.641 191.087 131.68 191.468 131.634Z" fill="#3F3D56"/>
<path opacity="0.1" d="M189.11 163.753L185.932 176.927C185.932 176.927 183.377 176.908 189.11 163.753Z" fill="black"/>
<path opacity="0.1" d="M178.154 161.554C178.154 161.554 182.355 168.43 180.696 175.535L179.914 175.592C179.914 175.592 181.331 172.307 178.154 161.554Z" fill="black"/>
<path opacity="0.1" d="M175.491 200.46C175.491 200.46 170.337 198.757 169.962 202.71C169.962 202.71 170.934 199.996 175.491 200.46Z" fill="black"/>
<path opacity="0.1" d="M190.394 177.728C190.394 177.728 191.417 184.896 189.574 187.763C192.466 188.786 195.538 189.203 198.598 188.989L199.234 177.728H190.394Z" fill="black"/>
<path opacity="0.1" d="M189.701 186.956L190.197 187.235L193.374 180.086L190.407 177.423H190.248C190.286 177.766 191.112 183.924 189.701 186.956Z" fill="black"/>
<path d="M190.394 177.423C190.394 177.423 191.417 184.591 189.574 187.458C192.467 188.477 195.538 188.894 198.598 188.684L202.182 177.423H190.394Z" fill="#3F3D56"/>
<path d="M199.234 297.001C199.293 297.512 199.52 297.989 199.881 298.356C200.241 298.723 200.713 298.96 201.223 299.028C204 299.448 210.698 300.503 212.389 301.31C214.543 302.333 223.04 301.615 223.447 300.592C223.505 300.388 223.521 300.174 223.496 299.964C223.471 299.753 223.405 299.55 223.301 299.365C223.011 298.739 222.531 298.22 221.928 297.884C221.724 297.776 221.512 297.684 221.292 297.611C219.691 297.077 216.672 295.946 215.852 294.758C215.852 294.758 212.084 291.459 211.01 289.674C210.808 289.323 210.522 289.027 210.179 288.813C209.835 288.599 209.444 288.474 209.04 288.447C208.144 288.409 207.133 288.86 206.739 290.824C206.739 290.824 201.827 293.626 200.498 291.167C200.498 291.167 200.289 294.942 199.475 295.978C199.263 296.274 199.176 296.641 199.234 297.001Z" fill="#CBCEDA"/>
<path opacity="0.1" d="M199.234 297.001C199.293 297.512 199.52 297.989 199.88 298.356C200.241 298.723 200.713 298.96 201.223 299.028C204 299.448 210.698 300.503 212.389 301.31C214.543 302.333 223.04 301.615 223.447 300.592C223.504 300.388 223.521 300.174 223.496 299.964C223.471 299.753 223.405 299.55 223.301 299.365C223.011 298.739 222.531 298.22 221.928 297.884C220.542 298.806 217.479 299.708 210.705 298.647C204.248 297.643 201.051 296.651 199.494 295.984C199.277 296.275 199.183 296.641 199.234 297.001Z" fill="black"/>
<g opacity="0.1">
<path opacity="0.1" d="M171.309 129.575C171.309 129.575 171.309 129.543 171.309 129.53C171.112 128.77 171.008 127.989 170.998 127.204C171.047 127.839 171.138 128.469 171.271 129.092C171.318 129.248 171.331 129.413 171.309 129.575Z" fill="black"/>
<path opacity="0.1" d="M177.283 139.159C177.122 139.53 177.036 139.93 177.029 140.334C176.983 139.777 177.071 139.218 177.283 138.701C177.413 138.388 177.641 138.127 177.934 137.957C178.227 137.787 178.568 137.718 178.904 137.76C179.781 137.964 180.175 139.108 181.02 139.381C181.392 139.456 181.779 139.401 182.116 139.227C182.453 139.052 182.721 138.768 182.876 138.421C183.17 137.717 183.292 136.952 183.231 136.191C183.231 135.339 183.231 134.481 183.231 133.649C183.231 132.816 183.263 131.71 183.835 130.979C184.553 130.071 186.231 129.67 187.35 129.708C188.095 129.714 188.81 130.003 189.351 130.516C189.625 130.79 189.957 130.999 190.322 131.129C190.687 131.258 191.076 131.305 191.461 131.265C191.802 131.214 192.121 131.068 192.382 130.843C192.643 130.618 192.835 130.324 192.936 129.994C193.018 129.664 192.999 129.308 193.095 128.984C193.336 128.177 194.194 127.757 194.766 127.147C195.307 126.556 195.614 125.788 195.63 124.987C195.674 125.46 195.619 125.937 195.471 126.389C195.322 126.84 195.082 127.256 194.766 127.611C194.194 128.247 193.336 128.641 193.095 129.442C192.999 129.772 193.018 130.122 192.936 130.452C192.834 130.781 192.642 131.075 192.381 131.3C192.121 131.525 191.802 131.671 191.461 131.723C191.075 131.763 190.685 131.716 190.32 131.585C189.955 131.454 189.624 131.243 189.351 130.967C188.809 130.457 188.094 130.169 187.35 130.16C186.231 130.122 184.553 130.522 183.835 131.431C183.263 132.162 183.238 133.172 183.231 134.1C183.225 135.028 183.231 135.809 183.231 136.642C183.291 137.401 183.169 138.164 182.876 138.866C182.723 139.215 182.456 139.5 182.118 139.675C181.78 139.85 181.392 139.903 181.02 139.826C180.162 139.553 179.781 138.415 178.904 138.212C178.567 138.167 178.225 138.236 177.931 138.408C177.638 138.579 177.41 138.843 177.283 139.159Z" fill="black"/>
<path opacity="0.1" d="M168.869 136.343C169.057 136.869 169.354 137.35 169.739 137.754L173.12 141.815C174.544 143.525 176.05 145.501 175.936 147.687C175.834 145.685 174.442 143.874 173.12 142.273L169.739 138.212C169.389 137.895 169.118 137.499 168.952 137.057C168.785 136.615 168.726 136.139 168.78 135.67C168.78 135.897 168.81 136.124 168.869 136.343Z" fill="black"/>
<path opacity="0.1" d="M177.696 147.001C177.752 146.821 177.786 146.636 177.798 146.448C177.825 146.788 177.79 147.13 177.696 147.458C177.461 148.202 176.622 148.818 175.91 148.494C175.93 148.347 175.941 148.198 175.942 148.049C176.313 148.14 176.706 148.081 177.034 147.885C177.362 147.689 177.6 147.371 177.696 147.001Z" fill="black"/>
</g>
<path opacity="0.1" d="M211.715 290.608C211.715 290.608 210.648 292.514 206.771 290.83L211.715 290.608Z" fill="black"/>
<path opacity="0.1" d="M178.929 291.059C178.929 291.059 175.586 294.999 171.373 292.33L178.929 291.059Z" fill="black"/>
<path opacity="0.1" d="M169.199 244.489C169.199 244.489 171.557 245.963 171.64 246.808C171.722 247.654 170.419 246.173 170.419 246.173L169.199 244.489Z" fill="black"/>
<path opacity="0.1" d="M168.265 255.807C169.086 256.493 170.108 256.892 171.176 256.945C172.943 257.021 172.796 259.322 171.64 258.635C170.445 257.78 169.317 256.834 168.265 255.807Z" fill="black"/>
<path opacity="0.1" d="M167.814 257.281C167.814 257.281 168.952 262.855 169.873 261.781L167.814 257.281Z" fill="black"/>
<path d="M52.932 292.184C54.8385 288.682 52.6714 284.392 50.2056 281.272C47.7398 278.152 44.7338 274.917 44.7974 270.919C44.8927 265.2 50.9619 261.819 55.8108 258.788C59.4114 256.54 62.731 253.871 65.6994 250.837C66.9415 249.669 67.9696 248.293 68.7372 246.77C69.7413 244.533 69.7095 241.991 69.646 239.544C69.4341 231.38 69.0317 223.226 68.4385 215.083" stroke="#3F3D56" stroke-width="4" stroke-miterlimit="10"/>
<path d="M77.6599 214.639C77.5924 213.145 77.1493 211.692 76.3718 210.414C75.5943 209.137 74.5073 208.076 73.2113 207.33L71.2158 211.277L71.273 206.498C69.464 205.969 67.534 206.029 65.761 206.668C63.9881 207.307 62.4639 208.492 61.4081 210.053C60.3523 211.615 59.8195 213.471 59.8865 215.354C59.9534 217.237 60.6167 219.051 61.7807 220.533C62.9447 222.015 64.5492 223.089 66.3631 223.601C68.1769 224.113 70.1063 224.035 71.8732 223.379C73.6401 222.724 75.1532 221.524 76.1943 219.953C77.2354 218.382 77.7509 216.521 77.6663 214.639H77.6599Z" fill="#57B894"/>
<path d="M61.7528 275.006C60.8172 276.82 59.2868 278.256 57.418 279.075C55.5492 279.895 53.4556 280.047 51.4881 279.506C49.5206 278.965 47.7987 277.765 46.6111 276.105C45.4235 274.446 44.8422 272.429 44.9648 270.392C45.0874 268.356 45.9063 266.423 47.2843 264.918C48.6624 263.413 50.5158 262.428 52.5339 262.127C54.5521 261.826 56.6123 262.228 58.3694 263.265C60.1265 264.303 61.4736 265.912 62.1849 267.825L56.6115 272.356L62.7442 270.939C62.7419 272.354 62.402 273.749 61.7528 275.006Z" fill="#57B894"/>
<path d="M57.3488 257.688C55.1327 257.845 52.9382 257.167 51.1968 255.787C49.4555 254.407 48.2932 252.426 47.9387 250.233C47.5842 248.04 48.0631 245.793 49.2811 243.935C50.4991 242.077 52.3682 240.742 54.5208 240.193L54.4699 243.866L56.4909 239.869C57.6611 239.811 58.8311 239.986 59.9338 240.382C61.0364 240.778 62.0499 241.388 62.9162 242.177C63.7824 242.966 64.4843 243.918 64.9816 244.979C65.4789 246.04 65.7617 247.189 65.8139 248.359C65.8661 249.388 65.737 250.419 65.4326 251.403C64.8966 253.156 63.8324 254.7 62.3855 255.825C60.9386 256.95 59.1795 257.601 57.3488 257.688Z" fill="#57B894"/>
<path d="M79.0004 243.281C77.6311 243.332 76.2685 243.067 75.0188 242.505C73.7691 241.943 72.666 241.1 71.7957 240.041C70.9254 238.983 70.3112 237.738 70.0012 236.403C69.6912 235.068 69.6937 233.68 70.0084 232.346C70.3232 231.013 70.9417 229.77 71.8158 228.715C72.6899 227.659 73.7959 226.82 75.0476 226.263C76.2993 225.705 77.6629 225.444 79.032 225.5C80.4011 225.556 81.7387 225.928 82.9406 226.586L81.3646 230.908L84.612 227.794C86.3489 229.384 87.3842 231.599 87.4909 233.952C87.5332 234.778 87.4583 235.606 87.2685 236.411C86.8234 238.299 85.7758 239.99 84.2841 241.23C82.7924 242.469 80.9377 243.189 79.0004 243.281Z" fill="#57B894"/>
<path opacity="0.1" d="M76.4589 217.015C74.3999 217.238 72.398 217.88 70.3326 218.007C68.2671 218.134 65.9984 217.638 64.6892 216.037C63.9901 215.172 63.6342 214.073 63.0432 213.132C62.4788 212.253 61.706 211.526 60.7935 211.016C60.2554 212.141 59.9597 213.366 59.9257 214.613C59.8917 215.86 60.1201 217.099 60.5961 218.252C61.0721 219.404 61.785 220.444 62.6887 221.303C63.5924 222.163 64.6666 222.822 65.8417 223.24C67.0168 223.657 68.2665 223.823 69.5097 223.726C70.7529 223.629 71.962 223.272 73.0584 222.678C74.1547 222.084 75.114 221.266 75.8739 220.278C76.6338 219.289 77.1774 218.151 77.4694 216.939C77.1347 216.952 76.7979 216.977 76.4589 217.015Z" fill="black"/>
<path opacity="0.1" d="M79.0009 243.281C77.4626 243.359 75.9304 243.037 74.5543 242.345C73.1781 241.653 72.0051 240.616 71.15 239.335C70.2948 238.054 69.787 236.573 69.676 235.037C69.565 233.5 69.8547 231.962 70.5168 230.571C71.2245 231.047 71.8331 231.655 72.3089 232.363C72.9444 233.323 73.3321 234.435 74.0756 235.312C75.4674 236.945 77.8379 237.479 79.9923 237.384C82.1467 237.288 84.2248 236.672 86.3474 236.475C86.6461 236.475 86.9448 236.43 87.2498 236.424C86.8033 238.306 85.7575 239.993 84.2698 241.23C82.7822 242.466 80.9331 243.186 79.0009 243.281Z" fill="black"/>
<path opacity="0.1" d="M57.3487 257.688C55.8242 257.767 54.3052 257.451 52.9378 256.773C51.5704 256.094 50.4005 255.076 49.5407 253.814C48.6809 252.553 48.1601 251.092 48.0283 249.571C47.8966 248.05 48.1583 246.521 48.7883 245.131C49.5294 245.613 50.1756 246.226 50.6949 246.942C51.3876 247.921 51.8197 249.045 52.6332 249.948C54.1394 251.626 56.6687 252.217 58.9438 252.159C61.219 252.102 63.2844 251.575 65.4769 251.403C64.9384 253.163 63.8675 254.712 62.4118 255.838C60.9561 256.963 59.1872 257.61 57.3487 257.688Z" fill="black"/>
<path opacity="0.1" d="M61.753 275.006C60.7881 277.162 59.006 278.847 56.7987 279.69C54.5915 280.533 52.1399 280.464 49.9833 279.499C47.8267 278.534 46.1418 276.752 45.2992 274.545C44.4566 272.337 44.5253 269.886 45.4902 267.729C46.2279 268.209 46.888 268.798 47.4476 269.477C48.2992 270.506 48.8585 271.682 49.8372 272.654C51.6611 274.447 54.6035 275.197 57.2282 275.254C58.74 275.261 60.251 275.178 61.753 275.006Z" fill="black"/>
<path d="M39.478 288.155C39.478 288.155 46.5195 287.97 48.6167 286.426C50.7139 284.882 59.4205 283.115 59.967 285.536C60.5135 287.958 70.5483 297.611 62.598 297.649C54.6477 297.687 44.1363 296.378 42.0137 295.107C39.8911 293.836 39.478 288.155 39.478 288.155Z" fill="#656380"/>
<path opacity="0.2" d="M62.7696 296.804C54.8193 296.874 44.3016 295.571 42.1853 294.262C40.5711 293.277 39.9292 289.75 39.7132 288.129H39.478C39.478 288.129 39.9229 293.805 42.0201 295.12C44.1173 296.436 54.6605 297.713 62.6044 297.662C64.8986 297.662 65.693 296.83 65.6485 295.622C65.3498 296.34 64.5046 296.791 62.7696 296.804Z" fill="black"/>
</g>
<defs>
<linearGradient id="paint0_linear" x1="206.993" y1="290.938" x2="206.993" y2="290.786" gradientUnits="userSpaceOnUse">
<stop stop-color="#808080" stop-opacity="0.25"/>
<stop offset="0.54" stop-color="#808080" stop-opacity="0.12"/>
<stop offset="1" stop-color="#808080" stop-opacity="0.1"/>
</linearGradient>
<clipPath id="clip0">
<rect width="748" height="314.103" fill="white"/>
</clipPath>
</defs>
</svg>
