<svg width="1831" height="497" viewBox="0 0 1831 497" fill="none" xmlns="http://www.w3.org/2000/svg">
<rect x="35" y="60" width="274" height="274" rx="30" fill="#CC1E1E"/>
<rect x="446" y="60" width="274" height="274" rx="30" fill="#192A34"/>
<rect x="857" y="60" width="274" height="274" rx="30" fill="#293A44"/>
<rect x="1268" y="60" width="274" height="274" rx="30" fill="white" stroke="black" stroke-miterlimit="0" stroke-linejoin="bevel"/>
<path d="M112.525 407.793H109.133L107.867 415H104.65L105.916 407.793H101.926V404.77H106.443L107.322 399.777H103.244V396.719H107.867L109.15 389.406H112.35L111.066 396.719H114.477L115.76 389.406H118.977L117.693 396.719H121.543V399.777H117.148L116.27 404.77H120.207V407.793H115.742L114.477 415H111.26L112.525 407.793ZM109.66 404.77H113.053L113.932 399.777H110.521L109.66 404.77ZM144.623 406.475C144.424 409.229 143.404 411.396 141.564 412.979C139.736 414.561 137.322 415.352 134.322 415.352C131.041 415.352 128.457 414.25 126.57 412.047C124.695 409.832 123.758 406.797 123.758 402.941V401.377C123.758 398.916 124.191 396.748 125.059 394.873C125.926 392.998 127.162 391.562 128.768 390.566C130.385 389.559 132.26 389.055 134.393 389.055C137.346 389.055 139.725 389.846 141.529 391.428C143.334 393.01 144.377 395.23 144.658 398.09H139.385C139.256 396.438 138.793 395.242 137.996 394.504C137.211 393.754 136.01 393.379 134.393 393.379C132.635 393.379 131.316 394.012 130.438 395.277C129.57 396.531 129.125 398.482 129.102 401.131V403.064C129.102 405.83 129.518 407.852 130.35 409.129C131.193 410.406 132.518 411.045 134.322 411.045C135.951 411.045 137.164 410.676 137.961 409.938C138.77 409.188 139.232 408.033 139.35 406.475H144.623ZM168.178 406.475C167.979 409.229 166.959 411.396 165.119 412.979C163.291 414.561 160.877 415.352 157.877 415.352C154.596 415.352 152.012 414.25 150.125 412.047C148.25 409.832 147.312 406.797 147.312 402.941V401.377C147.312 398.916 147.746 396.748 148.613 394.873C149.48 392.998 150.717 391.562 152.322 390.566C153.939 389.559 155.814 389.055 157.947 389.055C160.9 389.055 163.279 389.846 165.084 391.428C166.889 393.01 167.932 395.23 168.213 398.09H162.939C162.811 396.438 162.348 395.242 161.551 394.504C160.766 393.754 159.564 393.379 157.947 393.379C156.189 393.379 154.871 394.012 153.992 395.277C153.125 396.531 152.68 398.482 152.656 401.131V403.064C152.656 405.83 153.072 407.852 153.904 409.129C154.748 410.406 156.072 411.045 157.877 411.045C159.506 411.045 160.719 410.676 161.516 409.938C162.324 409.188 162.787 408.033 162.904 406.475H168.178ZM183.436 415H178.355V395.418L172.291 397.299V393.168L182.891 389.371H183.436V415ZM207.711 403.908H197.586V410.764H209.469V415H192.312V389.406H209.434V393.678H197.586V399.777H207.711V403.908ZM224.357 415H219.277V395.418L213.213 397.299V393.168L223.812 389.371H224.357V415ZM248.633 403.908H238.508V410.764H250.391V415H233.234V389.406H250.355V393.678H238.508V399.777H248.633V403.908Z" fill="black"/>
<path d="M520.211 407.793H516.818L515.553 415H512.336L513.602 407.793H509.611V404.77H514.129L515.008 399.777H510.93V396.719H515.553L516.836 389.406H520.035L518.752 396.719H522.162L523.445 389.406H526.662L525.379 396.719H529.229V399.777H524.834L523.955 404.77H527.893V407.793H523.428L522.162 415H518.945L520.211 407.793ZM517.346 404.77H520.738L521.617 399.777H518.207L517.346 404.77ZM544.012 415H538.932V395.418L532.867 397.299V393.168L543.467 389.371H544.012V415ZM564.227 404.77C562.902 406.07 561.355 406.721 559.586 406.721C557.324 406.721 555.514 405.947 554.154 404.4C552.795 402.842 552.115 400.744 552.115 398.107C552.115 396.432 552.479 394.896 553.205 393.502C553.943 392.096 554.969 391.006 556.281 390.232C557.594 389.447 559.07 389.055 560.711 389.055C562.398 389.055 563.898 389.477 565.211 390.32C566.523 391.164 567.543 392.377 568.27 393.959C568.996 395.541 569.365 397.352 569.377 399.391V401.271C569.377 405.537 568.316 408.889 566.195 411.326C564.074 413.764 561.068 415.064 557.178 415.229L555.93 415.246V411.01L557.055 410.992C561.473 410.793 563.863 408.719 564.227 404.77ZM560.834 402.836C561.654 402.836 562.357 402.625 562.943 402.203C563.541 401.781 563.992 401.271 564.297 400.674V398.582C564.297 396.859 563.969 395.523 563.312 394.574C562.656 393.625 561.777 393.15 560.676 393.15C559.656 393.15 558.818 393.619 558.162 394.557C557.506 395.482 557.178 396.648 557.178 398.055C557.178 399.449 557.494 400.598 558.127 401.5C558.771 402.391 559.674 402.836 560.834 402.836ZM590.559 415H573.016V411.52L581.295 402.695C582.432 401.453 583.27 400.369 583.809 399.443C584.359 398.518 584.635 397.639 584.635 396.807C584.635 395.67 584.348 394.779 583.773 394.135C583.199 393.479 582.379 393.15 581.312 393.15C580.164 393.15 579.256 393.549 578.588 394.346C577.932 395.131 577.604 396.168 577.604 397.457H572.506C572.506 395.898 572.875 394.475 573.613 393.186C574.363 391.896 575.418 390.889 576.777 390.162C578.137 389.424 579.678 389.055 581.4 389.055C584.037 389.055 586.082 389.688 587.535 390.953C589 392.219 589.732 394.006 589.732 396.314C589.732 397.58 589.404 398.869 588.748 400.182C588.092 401.494 586.967 403.023 585.373 404.77L579.555 410.904H590.559V415ZM608.682 409.727H599.436L597.678 415H592.07L601.598 389.406H606.484L616.064 415H610.457L608.682 409.727ZM600.859 405.455H607.258L604.041 395.875L600.859 405.455ZM623.078 399.953H625.785C627.074 399.953 628.029 399.631 628.65 398.986C629.271 398.342 629.582 397.486 629.582 396.42C629.582 395.389 629.271 394.586 628.65 394.012C628.041 393.438 627.197 393.15 626.119 393.15C625.146 393.15 624.332 393.42 623.676 393.959C623.02 394.486 622.691 395.178 622.691 396.033H617.611C617.611 394.697 617.969 393.502 618.684 392.447C619.41 391.381 620.418 390.549 621.707 389.951C623.008 389.354 624.438 389.055 625.996 389.055C628.703 389.055 630.824 389.705 632.359 391.006C633.895 392.295 634.662 394.076 634.662 396.35C634.662 397.521 634.305 398.6 633.59 399.584C632.875 400.568 631.938 401.324 630.777 401.852C632.219 402.367 633.291 403.141 633.994 404.172C634.709 405.203 635.066 406.422 635.066 407.828C635.066 410.102 634.234 411.924 632.57 413.295C630.918 414.666 628.727 415.352 625.996 415.352C623.441 415.352 621.35 414.678 619.721 413.33C618.104 411.982 617.295 410.201 617.295 407.986H622.375C622.375 408.947 622.732 409.732 623.447 410.342C624.174 410.951 625.064 411.256 626.119 411.256C627.326 411.256 628.27 410.939 628.949 410.307C629.641 409.662 629.986 408.812 629.986 407.758C629.986 405.203 628.58 403.926 625.768 403.926H623.078V399.953ZM653.611 405.367H656.512V409.463H653.611V415H648.531V409.463H638.037L637.809 406.264L648.479 389.406H653.611V405.367ZM642.871 405.367H648.531V396.332L648.197 396.912L642.871 405.367Z" fill="black"/>
<path d="M931.211 407.793H927.818L926.553 415H923.336L924.602 407.793H920.611V404.77H925.129L926.008 399.777H921.93V396.719H926.553L927.836 389.406H931.035L929.752 396.719H933.162L934.445 389.406H937.662L936.379 396.719H940.229V399.777H935.834L934.955 404.77H938.893V407.793H934.428L933.162 415H929.945L931.211 407.793ZM928.346 404.77H931.738L932.617 399.777H929.207L928.346 404.77ZM960.215 415H942.672V411.52L950.951 402.695C952.088 401.453 952.926 400.369 953.465 399.443C954.016 398.518 954.291 397.639 954.291 396.807C954.291 395.67 954.004 394.779 953.43 394.135C952.855 393.479 952.035 393.15 950.969 393.15C949.82 393.15 948.912 393.549 948.244 394.346C947.588 395.131 947.26 396.168 947.26 397.457H942.162C942.162 395.898 942.531 394.475 943.27 393.186C944.02 391.896 945.074 390.889 946.434 390.162C947.793 389.424 949.334 389.055 951.057 389.055C953.693 389.055 955.738 389.688 957.191 390.953C958.656 392.219 959.389 394.006 959.389 396.314C959.389 397.58 959.061 398.869 958.404 400.182C957.748 401.494 956.623 403.023 955.029 404.77L949.211 410.904H960.215V415ZM975.227 404.77C973.902 406.07 972.355 406.721 970.586 406.721C968.324 406.721 966.514 405.947 965.154 404.4C963.795 402.842 963.115 400.744 963.115 398.107C963.115 396.432 963.479 394.896 964.205 393.502C964.943 392.096 965.969 391.006 967.281 390.232C968.594 389.447 970.07 389.055 971.711 389.055C973.398 389.055 974.898 389.477 976.211 390.32C977.523 391.164 978.543 392.377 979.27 393.959C979.996 395.541 980.365 397.352 980.377 399.391V401.271C980.377 405.537 979.316 408.889 977.195 411.326C975.074 413.764 972.068 415.064 968.178 415.229L966.93 415.246V411.01L968.055 410.992C972.473 410.793 974.863 408.719 975.227 404.77ZM971.834 402.836C972.654 402.836 973.357 402.625 973.943 402.203C974.541 401.781 974.992 401.271 975.297 400.674V398.582C975.297 396.859 974.969 395.523 974.312 394.574C973.656 393.625 972.777 393.15 971.676 393.15C970.656 393.15 969.818 393.619 969.162 394.557C968.506 395.482 968.178 396.648 968.178 398.055C968.178 399.449 968.494 400.598 969.127 401.5C969.771 402.391 970.674 402.836 971.834 402.836ZM989.184 399.953H991.891C993.18 399.953 994.135 399.631 994.756 398.986C995.377 398.342 995.688 397.486 995.688 396.42C995.688 395.389 995.377 394.586 994.756 394.012C994.146 393.438 993.303 393.15 992.225 393.15C991.252 393.15 990.438 393.42 989.781 393.959C989.125 394.486 988.797 395.178 988.797 396.033H983.717C983.717 394.697 984.074 393.502 984.789 392.447C985.516 391.381 986.523 390.549 987.812 389.951C989.113 389.354 990.543 389.055 992.102 389.055C994.809 389.055 996.93 389.705 998.465 391.006C1000 392.295 1000.77 394.076 1000.77 396.35C1000.77 397.521 1000.41 398.6 999.695 399.584C998.98 400.568 998.043 401.324 996.883 401.852C998.324 402.367 999.396 403.141 1000.1 404.172C1000.81 405.203 1001.17 406.422 1001.17 407.828C1001.17 410.102 1000.34 411.924 998.676 413.295C997.023 414.666 994.832 415.352 992.102 415.352C989.547 415.352 987.455 414.678 985.826 413.33C984.209 411.982 983.4 410.201 983.4 407.986H988.48C988.48 408.947 988.838 409.732 989.553 410.342C990.279 410.951 991.17 411.256 992.225 411.256C993.432 411.256 994.375 410.939 995.055 410.307C995.746 409.662 996.092 408.812 996.092 407.758C996.092 405.203 994.686 403.926 991.873 403.926H989.184V399.953ZM1019.68 409.727H1010.44L1008.68 415H1003.07L1012.6 389.406H1017.48L1027.06 415H1021.46L1019.68 409.727ZM1011.86 405.455H1018.26L1015.04 395.875L1011.86 405.455ZM1043.94 405.367H1046.84V409.463H1043.94V415H1038.86V409.463H1028.37L1028.14 406.264L1038.81 389.406H1043.94V405.367ZM1033.2 405.367H1038.86V396.332L1038.53 396.912L1033.2 405.367ZM1064.61 405.367H1067.51V409.463H1064.61V415H1059.53V409.463H1049.04L1048.81 406.264L1059.48 389.406H1064.61V405.367ZM1053.87 405.367H1059.53V396.332L1059.2 396.912L1053.87 405.367Z" fill="black"/>
<path d="M1346.83 407.793H1343.44L1342.18 415H1338.96L1340.22 407.793H1336.23V404.77H1340.75L1341.63 399.777H1337.55V396.719H1342.18L1343.46 389.406H1346.66L1345.38 396.719H1348.79L1350.07 389.406H1353.29L1352 396.719H1355.85V399.777H1351.46L1350.58 404.77H1354.52V407.793H1350.05L1348.79 415H1345.57L1346.83 407.793ZM1343.97 404.77H1347.36L1348.24 399.777H1344.83L1343.97 404.77ZM1374.24 404.541H1364.11V415H1358.84V389.406H1375.5V393.678H1364.11V400.287H1374.24V404.541ZM1393.96 404.541H1383.84V415H1378.56V389.406H1395.23V393.678H1383.84V400.287H1393.96V404.541ZM1413.68 404.541H1403.56V415H1398.29V389.406H1414.95V393.678H1403.56V400.287H1413.68V404.541ZM1433.41 404.541H1423.28V415H1418.01V389.406H1434.67V393.678H1423.28V400.287H1433.41V404.541ZM1453.13 404.541H1443V415H1437.73V389.406H1454.39V393.678H1443V400.287H1453.13V404.541ZM1472.85 404.541H1462.73V415H1457.45V389.406H1474.12V393.678H1462.73V400.287H1472.85V404.541Z" fill="black"/>
</svg>
