<svg width="1831" height="497" viewBox="0 0 1831 497" fill="none" xmlns="http://www.w3.org/2000/svg">
<rect x="35" y="60" width="274" height="274" rx="30" fill="#00C58D"/>
<rect x="446" y="60" width="274" height="274" rx="30" fill="#0E2439"/>
<rect x="857" y="60" width="274" height="274" rx="30" fill="#C9CED6"/>
<rect x="1268" y="60" width="274" height="274" rx="30" fill="white" stroke="black" stroke-miterlimit="0" stroke-linejoin="bevel"/>
<path d="M112.174 407.793H108.781L107.516 415H104.299L105.564 407.793H101.574V404.77H106.092L106.971 399.777H102.893V396.719H107.516L108.799 389.406H111.998L110.715 396.719H114.125L115.408 389.406H118.625L117.342 396.719H121.191V399.777H116.797L115.918 404.77H119.855V407.793H115.391L114.125 415H110.908L112.174 407.793ZM109.309 404.77H112.701L113.58 399.777H110.17L109.309 404.77ZM140.861 404.418C140.861 407.957 140.129 410.664 138.664 412.539C137.199 414.414 135.055 415.352 132.23 415.352C129.441 415.352 127.309 414.432 125.832 412.592C124.355 410.752 123.6 408.115 123.564 404.682V399.971C123.564 396.396 124.303 393.684 125.779 391.832C127.268 389.98 129.406 389.055 132.195 389.055C134.984 389.055 137.117 389.975 138.594 391.814C140.07 393.643 140.826 396.273 140.861 399.707V404.418ZM135.781 399.25C135.781 397.129 135.488 395.588 134.902 394.627C134.328 393.654 133.426 393.168 132.195 393.168C131 393.168 130.115 393.631 129.541 394.557C128.979 395.471 128.68 396.906 128.645 398.863V405.086C128.645 407.172 128.926 408.725 129.488 409.744C130.062 410.752 130.977 411.256 132.23 411.256C133.473 411.256 134.369 410.77 134.92 409.797C135.471 408.824 135.758 407.336 135.781 405.332V399.25ZM161.533 404.418C161.533 407.957 160.801 410.664 159.336 412.539C157.871 414.414 155.727 415.352 152.902 415.352C150.113 415.352 147.98 414.432 146.504 412.592C145.027 410.752 144.271 408.115 144.236 404.682V399.971C144.236 396.396 144.975 393.684 146.451 391.832C147.939 389.98 150.078 389.055 152.867 389.055C155.656 389.055 157.789 389.975 159.266 391.814C160.742 393.643 161.498 396.273 161.533 399.707V404.418ZM156.453 399.25C156.453 397.129 156.16 395.588 155.574 394.627C155 393.654 154.098 393.168 152.867 393.168C151.672 393.168 150.787 393.631 150.213 394.557C149.65 395.471 149.352 396.906 149.316 398.863V405.086C149.316 407.172 149.598 408.725 150.16 409.744C150.734 410.752 151.648 411.256 152.902 411.256C154.145 411.256 155.041 410.77 155.592 409.797C156.143 408.824 156.43 407.336 156.453 405.332V399.25ZM185.615 406.475C185.416 409.229 184.396 411.396 182.557 412.979C180.729 414.561 178.314 415.352 175.314 415.352C172.033 415.352 169.449 414.25 167.562 412.047C165.688 409.832 164.75 406.797 164.75 402.941V401.377C164.75 398.916 165.184 396.748 166.051 394.873C166.918 392.998 168.154 391.562 169.76 390.566C171.377 389.559 173.252 389.055 175.385 389.055C178.338 389.055 180.717 389.846 182.521 391.428C184.326 393.01 185.369 395.23 185.65 398.09H180.377C180.248 396.438 179.785 395.242 178.988 394.504C178.203 393.754 177.002 393.379 175.385 393.379C173.627 393.379 172.309 394.012 171.43 395.277C170.562 396.531 170.117 398.482 170.094 401.131V403.064C170.094 405.83 170.51 407.852 171.342 409.129C172.186 410.406 173.51 411.045 175.314 411.045C176.943 411.045 178.156 410.676 178.953 409.938C179.762 409.188 180.225 408.033 180.342 406.475H185.615ZM189.289 402.414L190.766 389.406H205.109V393.643H194.932L194.299 399.145C195.506 398.5 196.789 398.178 198.148 398.178C200.586 398.178 202.496 398.934 203.879 400.445C205.262 401.957 205.953 404.072 205.953 406.791C205.953 408.443 205.602 409.926 204.898 411.238C204.207 412.539 203.211 413.553 201.91 414.279C200.609 414.994 199.074 415.352 197.305 415.352C195.758 415.352 194.322 415.041 192.998 414.42C191.674 413.787 190.625 412.902 189.852 411.766C189.09 410.629 188.686 409.334 188.639 407.881H193.666C193.771 408.947 194.141 409.779 194.773 410.377C195.418 410.963 196.256 411.256 197.287 411.256C198.436 411.256 199.32 410.846 199.941 410.025C200.562 409.193 200.873 408.021 200.873 406.51C200.873 405.057 200.516 403.943 199.801 403.17C199.086 402.396 198.072 402.01 196.76 402.01C195.553 402.01 194.574 402.326 193.824 402.959L193.332 403.416L189.289 402.414ZM225.887 396.209C225.887 397.451 225.576 398.553 224.955 399.514C224.334 400.475 223.479 401.242 222.389 401.816C223.631 402.414 224.615 403.24 225.342 404.295C226.068 405.338 226.432 406.568 226.432 407.986C226.432 410.26 225.658 412.059 224.111 413.383C222.564 414.695 220.461 415.352 217.801 415.352C215.141 415.352 213.031 414.689 211.473 413.365C209.914 412.041 209.135 410.248 209.135 407.986C209.135 406.568 209.498 405.332 210.225 404.277C210.951 403.223 211.93 402.402 213.16 401.816C212.07 401.242 211.215 400.475 210.594 399.514C209.984 398.553 209.68 397.451 209.68 396.209C209.68 394.029 210.406 392.295 211.859 391.006C213.312 389.705 215.287 389.055 217.783 389.055C220.268 389.055 222.236 389.699 223.689 390.988C225.154 392.266 225.887 394.006 225.887 396.209ZM221.334 407.617C221.334 406.504 221.012 405.613 220.367 404.945C219.723 404.277 218.855 403.943 217.766 403.943C216.688 403.943 215.826 404.277 215.182 404.945C214.537 405.602 214.215 406.492 214.215 407.617C214.215 408.707 214.531 409.586 215.164 410.254C215.797 410.922 216.676 411.256 217.801 411.256C218.902 411.256 219.764 410.934 220.385 410.289C221.018 409.645 221.334 408.754 221.334 407.617ZM220.807 396.455C220.807 395.459 220.543 394.662 220.016 394.064C219.488 393.455 218.744 393.15 217.783 393.15C216.834 393.15 216.096 393.443 215.568 394.029C215.041 394.615 214.777 395.424 214.777 396.455C214.777 397.475 215.041 398.295 215.568 398.916C216.096 399.537 216.84 399.848 217.801 399.848C218.762 399.848 219.5 399.537 220.016 398.916C220.543 398.295 220.807 397.475 220.807 396.455ZM230.422 415V389.406H238.297C240.547 389.406 242.557 389.916 244.326 390.936C246.107 391.943 247.496 393.385 248.492 395.26C249.488 397.123 249.986 399.244 249.986 401.623V402.801C249.986 405.18 249.494 407.295 248.51 409.146C247.537 410.998 246.16 412.434 244.379 413.453C242.598 414.473 240.588 414.988 238.35 415H230.422ZM235.695 393.678V410.764H238.244C240.307 410.764 241.883 410.09 242.973 408.742C244.062 407.395 244.619 405.467 244.643 402.959V401.605C244.643 399.004 244.104 397.035 243.025 395.699C241.947 394.352 240.371 393.678 238.297 393.678H235.695Z" fill="black"/>
<path d="M522.584 407.793H519.191L517.926 415H514.709L515.975 407.793H511.984V404.77H516.502L517.381 399.777H513.303V396.719H517.926L519.209 389.406H522.408L521.125 396.719H524.535L525.818 389.406H529.035L527.752 396.719H531.602V399.777H527.207L526.328 404.77H530.266V407.793H525.801L524.535 415H521.318L522.584 407.793ZM519.719 404.77H523.111L523.99 399.777H520.58L519.719 404.77ZM551.271 404.418C551.271 407.957 550.539 410.664 549.074 412.539C547.609 414.414 545.465 415.352 542.641 415.352C539.852 415.352 537.719 414.432 536.242 412.592C534.766 410.752 534.01 408.115 533.975 404.682V399.971C533.975 396.396 534.713 393.684 536.189 391.832C537.678 389.98 539.816 389.055 542.605 389.055C545.395 389.055 547.527 389.975 549.004 391.814C550.48 393.643 551.236 396.273 551.271 399.707V404.418ZM546.191 399.25C546.191 397.129 545.898 395.588 545.312 394.627C544.738 393.654 543.836 393.168 542.605 393.168C541.41 393.168 540.525 393.631 539.951 394.557C539.389 395.471 539.09 396.906 539.055 398.863V405.086C539.055 407.172 539.336 408.725 539.898 409.744C540.473 410.752 541.387 411.256 542.641 411.256C543.883 411.256 544.779 410.77 545.33 409.797C545.881 408.824 546.168 407.336 546.191 405.332V399.25ZM563.682 415.352C560.893 415.352 558.619 414.496 556.861 412.785C555.115 411.074 554.242 408.795 554.242 405.947V405.455C554.242 403.545 554.611 401.84 555.35 400.34C556.088 398.828 557.131 397.668 558.479 396.859C559.838 396.039 561.385 395.629 563.119 395.629C565.721 395.629 567.766 396.449 569.254 398.09C570.754 399.73 571.504 402.057 571.504 405.068V407.143H559.393C559.557 408.385 560.049 409.381 560.869 410.131C561.701 410.881 562.75 411.256 564.016 411.256C565.973 411.256 567.502 410.547 568.604 409.129L571.1 411.924C570.338 413.002 569.307 413.846 568.006 414.455C566.705 415.053 565.264 415.352 563.682 415.352ZM563.102 399.742C562.094 399.742 561.273 400.082 560.641 400.762C560.02 401.441 559.621 402.414 559.445 403.68H566.512V403.275C566.488 402.15 566.184 401.283 565.598 400.674C565.012 400.053 564.18 399.742 563.102 399.742ZM591.736 415H574.193V411.52L582.473 402.695C583.609 401.453 584.447 400.369 584.986 399.443C585.537 398.518 585.812 397.639 585.812 396.807C585.812 395.67 585.525 394.779 584.951 394.135C584.377 393.479 583.557 393.15 582.49 393.15C581.342 393.15 580.434 393.549 579.766 394.346C579.109 395.131 578.781 396.168 578.781 397.457H573.684C573.684 395.898 574.053 394.475 574.791 393.186C575.541 391.896 576.596 390.889 577.955 390.162C579.314 389.424 580.855 389.055 582.578 389.055C585.215 389.055 587.26 389.688 588.713 390.953C590.178 392.219 590.91 394.006 590.91 396.314C590.91 397.58 590.582 398.869 589.926 400.182C589.27 401.494 588.145 403.023 586.551 404.77L580.732 410.904H591.736V415ZM609.895 405.367H612.795V409.463H609.895V415H604.814V409.463H594.32L594.092 406.264L604.762 389.406H609.895V405.367ZM599.154 405.367H604.814V396.332L604.48 396.912L599.154 405.367ZM620.705 399.953H623.412C624.701 399.953 625.656 399.631 626.277 398.986C626.898 398.342 627.209 397.486 627.209 396.42C627.209 395.389 626.898 394.586 626.277 394.012C625.668 393.438 624.824 393.15 623.746 393.15C622.773 393.15 621.959 393.42 621.303 393.959C620.646 394.486 620.318 395.178 620.318 396.033H615.238C615.238 394.697 615.596 393.502 616.311 392.447C617.037 391.381 618.045 390.549 619.334 389.951C620.635 389.354 622.064 389.055 623.623 389.055C626.33 389.055 628.451 389.705 629.986 391.006C631.521 392.295 632.289 394.076 632.289 396.35C632.289 397.521 631.932 398.6 631.217 399.584C630.502 400.568 629.564 401.324 628.404 401.852C629.846 402.367 630.918 403.141 631.621 404.172C632.336 405.203 632.693 406.422 632.693 407.828C632.693 410.102 631.861 411.924 630.197 413.295C628.545 414.666 626.354 415.352 623.623 415.352C621.068 415.352 618.977 414.678 617.348 413.33C615.73 411.982 614.922 410.201 614.922 407.986H620.002C620.002 408.947 620.359 409.732 621.074 410.342C621.801 410.951 622.691 411.256 623.746 411.256C624.953 411.256 625.896 410.939 626.576 410.307C627.268 409.662 627.613 408.812 627.613 407.758C627.613 405.203 626.207 403.926 623.395 403.926H620.705V399.953ZM648.092 404.77C646.768 406.07 645.221 406.721 643.451 406.721C641.189 406.721 639.379 405.947 638.02 404.4C636.66 402.842 635.98 400.744 635.98 398.107C635.98 396.432 636.344 394.896 637.07 393.502C637.809 392.096 638.834 391.006 640.146 390.232C641.459 389.447 642.936 389.055 644.576 389.055C646.264 389.055 647.764 389.477 649.076 390.32C650.389 391.164 651.408 392.377 652.135 393.959C652.861 395.541 653.23 397.352 653.242 399.391V401.271C653.242 405.537 652.182 408.889 650.061 411.326C647.939 413.764 644.934 415.064 641.043 415.229L639.795 415.246V411.01L640.92 410.992C645.338 410.793 647.729 408.719 648.092 404.77ZM644.699 402.836C645.52 402.836 646.223 402.625 646.809 402.203C647.406 401.781 647.857 401.271 648.162 400.674V398.582C648.162 396.859 647.834 395.523 647.178 394.574C646.521 393.625 645.643 393.15 644.541 393.15C643.521 393.15 642.684 393.619 642.027 394.557C641.371 395.482 641.043 396.648 641.043 398.055C641.043 399.449 641.359 400.598 641.992 401.5C642.637 402.391 643.539 402.836 644.699 402.836Z" fill="black"/>
<path d="M928.943 407.793H925.551L924.285 415H921.068L922.334 407.793H918.344V404.77H922.861L923.74 399.777H919.662V396.719H924.285L925.568 389.406H928.768L927.484 396.719H930.895L932.178 389.406H935.395L934.111 396.719H937.961V399.777H933.566L932.688 404.77H936.625V407.793H932.16L930.895 415H927.678L928.943 407.793ZM926.078 404.77H929.471L930.35 399.777H926.939L926.078 404.77ZM961.041 406.475C960.842 409.229 959.822 411.396 957.982 412.979C956.154 414.561 953.74 415.352 950.74 415.352C947.459 415.352 944.875 414.25 942.988 412.047C941.113 409.832 940.176 406.797 940.176 402.941V401.377C940.176 398.916 940.609 396.748 941.477 394.873C942.344 392.998 943.58 391.562 945.186 390.566C946.803 389.559 948.678 389.055 950.811 389.055C953.764 389.055 956.143 389.846 957.947 391.428C959.752 393.01 960.795 395.23 961.076 398.09H955.803C955.674 396.438 955.211 395.242 954.414 394.504C953.629 393.754 952.428 393.379 950.811 393.379C949.053 393.379 947.734 394.012 946.855 395.277C945.988 396.531 945.543 398.482 945.52 401.131V403.064C945.52 405.83 945.936 407.852 946.768 409.129C947.611 410.406 948.936 411.045 950.74 411.045C952.369 411.045 953.582 410.676 954.379 409.938C955.188 409.188 955.65 408.033 955.768 406.475H961.041ZM975.842 404.77C974.518 406.07 972.971 406.721 971.201 406.721C968.939 406.721 967.129 405.947 965.77 404.4C964.41 402.842 963.73 400.744 963.73 398.107C963.73 396.432 964.094 394.896 964.82 393.502C965.559 392.096 966.584 391.006 967.896 390.232C969.209 389.447 970.686 389.055 972.326 389.055C974.014 389.055 975.514 389.477 976.826 390.32C978.139 391.164 979.158 392.377 979.885 393.959C980.611 395.541 980.98 397.352 980.992 399.391V401.271C980.992 405.537 979.932 408.889 977.811 411.326C975.689 413.764 972.684 415.064 968.793 415.229L967.545 415.246V411.01L968.67 410.992C973.088 410.793 975.479 408.719 975.842 404.77ZM972.449 402.836C973.27 402.836 973.973 402.625 974.559 402.203C975.156 401.781 975.607 401.271 975.912 400.674V398.582C975.912 396.859 975.584 395.523 974.928 394.574C974.271 393.625 973.393 393.15 972.291 393.15C971.271 393.15 970.434 393.619 969.777 394.557C969.121 395.482 968.793 396.648 968.793 398.055C968.793 399.449 969.109 400.598 969.742 401.5C970.387 402.391 971.289 402.836 972.449 402.836ZM1005.27 406.475C1005.07 409.229 1004.05 411.396 1002.21 412.979C1000.38 414.561 997.967 415.352 994.967 415.352C991.686 415.352 989.102 414.25 987.215 412.047C985.34 409.832 984.402 406.797 984.402 402.941V401.377C984.402 398.916 984.836 396.748 985.703 394.873C986.57 392.998 987.807 391.562 989.412 390.566C991.029 389.559 992.904 389.055 995.037 389.055C997.99 389.055 1000.37 389.846 1002.17 391.428C1003.98 393.01 1005.02 395.23 1005.3 398.09H1000.03C999.9 396.438 999.438 395.242 998.641 394.504C997.855 393.754 996.654 393.379 995.037 393.379C993.279 393.379 991.961 394.012 991.082 395.277C990.215 396.531 989.77 398.482 989.746 401.131V403.064C989.746 405.83 990.162 407.852 990.994 409.129C991.838 410.406 993.162 411.045 994.967 411.045C996.596 411.045 997.809 410.676 998.605 409.938C999.414 409.188 999.877 408.033 999.994 406.475H1005.27ZM1024.13 403.908H1014V410.764H1025.89V415H1008.73V389.406H1025.85V393.678H1014V399.777H1024.13V403.908ZM1028.98 415V389.406H1036.86C1039.11 389.406 1041.12 389.916 1042.88 390.936C1044.67 391.943 1046.05 393.385 1047.05 395.26C1048.05 397.123 1048.54 399.244 1048.54 401.623V402.801C1048.54 405.18 1048.05 407.295 1047.07 409.146C1046.1 410.998 1044.72 412.434 1042.94 413.453C1041.16 414.473 1039.15 414.988 1036.91 415H1028.98ZM1034.25 393.678V410.764H1036.8C1038.87 410.764 1040.44 410.09 1041.53 408.742C1042.62 407.395 1043.18 405.467 1043.2 402.959V401.605C1043.2 399.004 1042.66 397.035 1041.58 395.699C1040.51 394.352 1038.93 393.678 1036.86 393.678H1034.25ZM1065.63 389.143V393.326H1065.14C1062.84 393.361 1060.99 393.959 1059.58 395.119C1058.19 396.279 1057.35 397.891 1057.07 399.953C1058.43 398.57 1060.15 397.879 1062.22 397.879C1064.45 397.879 1066.22 398.676 1067.53 400.27C1068.84 401.863 1069.5 403.961 1069.5 406.562C1069.5 408.227 1069.13 409.732 1068.41 411.08C1067.69 412.428 1066.67 413.477 1065.35 414.227C1064.04 414.977 1062.55 415.352 1060.88 415.352C1058.19 415.352 1056.01 414.414 1054.35 412.539C1052.69 410.664 1051.87 408.162 1051.87 405.033V403.205C1051.87 400.428 1052.39 397.979 1053.43 395.857C1054.49 393.725 1055.99 392.078 1057.95 390.918C1059.92 389.746 1062.2 389.154 1064.79 389.143H1065.63ZM1060.67 401.957C1059.85 401.957 1059.11 402.174 1058.44 402.607C1057.77 403.029 1057.28 403.592 1056.96 404.295V405.842C1056.96 407.541 1057.3 408.871 1057.97 409.832C1058.63 410.781 1059.57 411.256 1060.78 411.256C1061.87 411.256 1062.75 410.828 1063.42 409.973C1064.1 409.105 1064.44 407.986 1064.44 406.615C1064.44 405.221 1064.1 404.096 1063.42 403.24C1062.74 402.385 1061.82 401.957 1060.67 401.957Z" fill="black"/>
<path d="M1346.83 407.793H1343.44L1342.18 415H1338.96L1340.22 407.793H1336.23V404.77H1340.75L1341.63 399.777H1337.55V396.719H1342.18L1343.46 389.406H1346.66L1345.38 396.719H1348.79L1350.07 389.406H1353.29L1352 396.719H1355.85V399.777H1351.46L1350.58 404.77H1354.52V407.793H1350.05L1348.79 415H1345.57L1346.83 407.793ZM1343.97 404.77H1347.36L1348.24 399.777H1344.83L1343.97 404.77ZM1374.24 404.541H1364.11V415H1358.84V389.406H1375.5V393.678H1364.11V400.287H1374.24V404.541ZM1393.96 404.541H1383.84V415H1378.56V389.406H1395.23V393.678H1383.84V400.287H1393.96V404.541ZM1413.68 404.541H1403.56V415H1398.29V389.406H1414.95V393.678H1403.56V400.287H1413.68V404.541ZM1433.41 404.541H1423.28V415H1418.01V389.406H1434.67V393.678H1423.28V400.287H1433.41V404.541ZM1453.13 404.541H1443V415H1437.73V389.406H1454.39V393.678H1443V400.287H1453.13V404.541ZM1472.85 404.541H1462.73V415H1457.45V389.406H1474.12V393.678H1462.73V400.287H1472.85V404.541Z" fill="black"/>
</svg>
