<svg width="1831" height="497" viewBox="0 0 1831 497" fill="none" xmlns="http://www.w3.org/2000/svg">
<rect x="35" y="60" width="274" height="274" rx="30" fill="#FFB612"/>
<rect x="446" y="60" width="274" height="274" rx="30" fill="#282828"/>
<rect x="857" y="60" width="274" height="274" rx="30" fill="#C9CED6"/>
<rect x="1268" y="60" width="274" height="274" rx="30" fill="white" stroke="black" stroke-miterlimit="0" stroke-linejoin="bevel"/>
<path d="M114.775 407.793H111.383L110.117 415H106.9L108.166 407.793H104.176V404.77H108.693L109.572 399.777H105.494V396.719H110.117L111.4 389.406H114.6L113.316 396.719H116.727L118.01 389.406H121.227L119.943 396.719H123.793V399.777H119.398L118.52 404.77H122.457V407.793H117.992L116.727 415H113.51L114.775 407.793ZM111.91 404.77H115.303L116.182 399.777H112.771L111.91 404.77ZM142.18 404.541H132.055V415H126.781V389.406H143.445V393.678H132.055V400.287H142.18V404.541ZM161.902 404.541H151.777V415H146.504V389.406H163.168V393.678H151.777V400.287H161.902V404.541ZM166.227 415V389.406H175.191C178.297 389.406 180.652 390.004 182.258 391.199C183.863 392.383 184.666 394.123 184.666 396.42C184.666 397.674 184.344 398.781 183.699 399.742C183.055 400.691 182.158 401.389 181.01 401.834C182.322 402.162 183.354 402.824 184.104 403.82C184.865 404.816 185.246 406.035 185.246 407.477C185.246 409.938 184.461 411.801 182.891 413.066C181.32 414.332 179.082 414.977 176.176 415H166.227ZM171.5 403.855V410.764H176.018C177.26 410.764 178.227 410.471 178.918 409.885C179.621 409.287 179.973 408.467 179.973 407.424C179.973 405.08 178.76 403.891 176.334 403.855H171.5ZM171.5 400.129H175.402C178.062 400.082 179.393 399.021 179.393 396.947C179.393 395.787 179.053 394.955 178.373 394.451C177.705 393.936 176.645 393.678 175.191 393.678H171.5V400.129ZM202.455 389.143V393.326H201.963C199.666 393.361 197.814 393.959 196.408 395.119C195.014 396.279 194.176 397.891 193.895 399.953C195.254 398.57 196.971 397.879 199.045 397.879C201.271 397.879 203.041 398.676 204.354 400.27C205.666 401.863 206.322 403.961 206.322 406.562C206.322 408.227 205.959 409.732 205.232 411.08C204.518 412.428 203.498 413.477 202.174 414.227C200.861 414.977 199.373 415.352 197.709 415.352C195.014 415.352 192.834 414.414 191.17 412.539C189.518 410.664 188.691 408.162 188.691 405.033V403.205C188.691 400.428 189.213 397.979 190.256 395.857C191.311 393.725 192.816 392.078 194.773 390.918C196.742 389.746 199.021 389.154 201.611 389.143H202.455ZM197.498 401.957C196.678 401.957 195.934 402.174 195.266 402.607C194.598 403.029 194.105 403.592 193.789 404.295V405.842C193.789 407.541 194.123 408.871 194.791 409.832C195.459 410.781 196.396 411.256 197.604 411.256C198.693 411.256 199.572 410.828 200.24 409.973C200.92 409.105 201.26 407.986 201.26 406.615C201.26 405.221 200.92 404.096 200.24 403.24C199.561 402.385 198.646 401.957 197.498 401.957ZM221.686 415H216.605V395.418L210.541 397.299V393.168L221.141 389.371H221.686V415ZM247.561 415H230.018V411.52L238.297 402.695C239.434 401.453 240.271 400.369 240.811 399.443C241.361 398.518 241.637 397.639 241.637 396.807C241.637 395.67 241.35 394.779 240.775 394.135C240.201 393.479 239.381 393.15 238.314 393.15C237.166 393.15 236.258 393.549 235.59 394.346C234.934 395.131 234.605 396.168 234.605 397.457H229.508C229.508 395.898 229.877 394.475 230.615 393.186C231.365 391.896 232.42 390.889 233.779 390.162C235.139 389.424 236.68 389.055 238.402 389.055C241.039 389.055 243.084 389.688 244.537 390.953C246.002 392.219 246.734 394.006 246.734 396.314C246.734 397.58 246.406 398.869 245.75 400.182C245.094 401.494 243.969 403.023 242.375 404.77L236.557 410.904H247.561V415Z" fill="black"/>
<path d="M521.986 407.793H518.594L517.328 415H514.111L515.377 407.793H511.387V404.77H515.904L516.783 399.777H512.705V396.719H517.328L518.611 389.406H521.811L520.527 396.719H523.938L525.221 389.406H528.438L527.154 396.719H531.004V399.777H526.609L525.73 404.77H529.668V407.793H525.203L523.938 415H520.721L521.986 407.793ZM519.121 404.77H522.514L523.393 399.777H519.982L519.121 404.77ZM550.99 415H533.447V411.52L541.727 402.695C542.863 401.453 543.701 400.369 544.24 399.443C544.791 398.518 545.066 397.639 545.066 396.807C545.066 395.67 544.779 394.779 544.205 394.135C543.631 393.479 542.811 393.15 541.744 393.15C540.596 393.15 539.688 393.549 539.02 394.346C538.363 395.131 538.035 396.168 538.035 397.457H532.938C532.938 395.898 533.307 394.475 534.045 393.186C534.795 391.896 535.85 390.889 537.209 390.162C538.568 389.424 540.109 389.055 541.832 389.055C544.469 389.055 546.514 389.688 547.967 390.953C549.432 392.219 550.164 394.006 550.164 396.314C550.164 397.58 549.836 398.869 549.18 400.182C548.523 401.494 547.398 403.023 545.805 404.77L539.986 410.904H550.99V415ZM570.801 396.209C570.801 397.451 570.49 398.553 569.869 399.514C569.248 400.475 568.393 401.242 567.303 401.816C568.545 402.414 569.529 403.24 570.256 404.295C570.982 405.338 571.346 406.568 571.346 407.986C571.346 410.26 570.572 412.059 569.025 413.383C567.479 414.695 565.375 415.352 562.715 415.352C560.055 415.352 557.945 414.689 556.387 413.365C554.828 412.041 554.049 410.248 554.049 407.986C554.049 406.568 554.412 405.332 555.139 404.277C555.865 403.223 556.844 402.402 558.074 401.816C556.984 401.242 556.129 400.475 555.508 399.514C554.898 398.553 554.594 397.451 554.594 396.209C554.594 394.029 555.32 392.295 556.773 391.006C558.227 389.705 560.201 389.055 562.697 389.055C565.182 389.055 567.15 389.699 568.604 390.988C570.068 392.266 570.801 394.006 570.801 396.209ZM566.248 407.617C566.248 406.504 565.926 405.613 565.281 404.945C564.637 404.277 563.77 403.943 562.68 403.943C561.602 403.943 560.74 404.277 560.096 404.945C559.451 405.602 559.129 406.492 559.129 407.617C559.129 408.707 559.445 409.586 560.078 410.254C560.711 410.922 561.59 411.256 562.715 411.256C563.816 411.256 564.678 410.934 565.299 410.289C565.932 409.645 566.248 408.754 566.248 407.617ZM565.721 396.455C565.721 395.459 565.457 394.662 564.93 394.064C564.402 393.455 563.658 393.15 562.697 393.15C561.748 393.15 561.01 393.443 560.482 394.029C559.955 394.615 559.691 395.424 559.691 396.455C559.691 397.475 559.955 398.295 560.482 398.916C561.01 399.537 561.754 399.848 562.715 399.848C563.676 399.848 564.414 399.537 564.93 398.916C565.457 398.295 565.721 397.475 565.721 396.455ZM592.334 415H574.791V411.52L583.07 402.695C584.207 401.453 585.045 400.369 585.584 399.443C586.135 398.518 586.41 397.639 586.41 396.807C586.41 395.67 586.123 394.779 585.549 394.135C584.975 393.479 584.154 393.15 583.088 393.15C581.939 393.15 581.031 393.549 580.363 394.346C579.707 395.131 579.379 396.168 579.379 397.457H574.281C574.281 395.898 574.65 394.475 575.389 393.186C576.139 391.896 577.193 390.889 578.553 390.162C579.912 389.424 581.453 389.055 583.176 389.055C585.812 389.055 587.857 389.688 589.311 390.953C590.775 392.219 591.508 394.006 591.508 396.314C591.508 397.58 591.18 398.869 590.523 400.182C589.867 401.494 588.742 403.023 587.148 404.77L581.33 410.904H592.334V415ZM612.145 396.209C612.145 397.451 611.834 398.553 611.213 399.514C610.592 400.475 609.736 401.242 608.646 401.816C609.889 402.414 610.873 403.24 611.6 404.295C612.326 405.338 612.689 406.568 612.689 407.986C612.689 410.26 611.916 412.059 610.369 413.383C608.822 414.695 606.719 415.352 604.059 415.352C601.398 415.352 599.289 414.689 597.73 413.365C596.172 412.041 595.393 410.248 595.393 407.986C595.393 406.568 595.756 405.332 596.482 404.277C597.209 403.223 598.188 402.402 599.418 401.816C598.328 401.242 597.473 400.475 596.852 399.514C596.242 398.553 595.938 397.451 595.938 396.209C595.938 394.029 596.664 392.295 598.117 391.006C599.57 389.705 601.545 389.055 604.041 389.055C606.525 389.055 608.494 389.699 609.947 390.988C611.412 392.266 612.145 394.006 612.145 396.209ZM607.592 407.617C607.592 406.504 607.27 405.613 606.625 404.945C605.98 404.277 605.113 403.943 604.023 403.943C602.945 403.943 602.084 404.277 601.439 404.945C600.795 405.602 600.473 406.492 600.473 407.617C600.473 408.707 600.789 409.586 601.422 410.254C602.055 410.922 602.934 411.256 604.059 411.256C605.16 411.256 606.021 410.934 606.643 410.289C607.275 409.645 607.592 408.754 607.592 407.617ZM607.064 396.455C607.064 395.459 606.801 394.662 606.273 394.064C605.746 393.455 605.002 393.15 604.041 393.15C603.092 393.15 602.354 393.443 601.826 394.029C601.299 394.615 601.035 395.424 601.035 396.455C601.035 397.475 601.299 398.295 601.826 398.916C602.354 399.537 603.098 399.848 604.059 399.848C605.02 399.848 605.758 399.537 606.273 398.916C606.801 398.295 607.064 397.475 607.064 396.455ZM633.678 415H616.135V411.52L624.414 402.695C625.551 401.453 626.389 400.369 626.928 399.443C627.479 398.518 627.754 397.639 627.754 396.807C627.754 395.67 627.467 394.779 626.893 394.135C626.318 393.479 625.498 393.15 624.432 393.15C623.283 393.15 622.375 393.549 621.707 394.346C621.051 395.131 620.723 396.168 620.723 397.457H615.625C615.625 395.898 615.994 394.475 616.732 393.186C617.482 391.896 618.537 390.889 619.896 390.162C621.256 389.424 622.797 389.055 624.52 389.055C627.156 389.055 629.201 389.688 630.654 390.953C632.119 392.219 632.852 394.006 632.852 396.314C632.852 397.58 632.523 398.869 631.867 400.182C631.211 401.494 630.086 403.023 628.492 404.77L622.674 410.904H633.678V415ZM653.488 396.209C653.488 397.451 653.178 398.553 652.557 399.514C651.936 400.475 651.08 401.242 649.99 401.816C651.232 402.414 652.217 403.24 652.943 404.295C653.67 405.338 654.033 406.568 654.033 407.986C654.033 410.26 653.26 412.059 651.713 413.383C650.166 414.695 648.062 415.352 645.402 415.352C642.742 415.352 640.633 414.689 639.074 413.365C637.516 412.041 636.736 410.248 636.736 407.986C636.736 406.568 637.1 405.332 637.826 404.277C638.553 403.223 639.531 402.402 640.762 401.816C639.672 401.242 638.816 400.475 638.195 399.514C637.586 398.553 637.281 397.451 637.281 396.209C637.281 394.029 638.008 392.295 639.461 391.006C640.914 389.705 642.889 389.055 645.385 389.055C647.869 389.055 649.838 389.699 651.291 390.988C652.756 392.266 653.488 394.006 653.488 396.209ZM648.936 407.617C648.936 406.504 648.613 405.613 647.969 404.945C647.324 404.277 646.457 403.943 645.367 403.943C644.289 403.943 643.428 404.277 642.783 404.945C642.139 405.602 641.816 406.492 641.816 407.617C641.816 408.707 642.133 409.586 642.766 410.254C643.398 410.922 644.277 411.256 645.402 411.256C646.504 411.256 647.365 410.934 647.986 410.289C648.619 409.645 648.936 408.754 648.936 407.617ZM648.408 396.455C648.408 395.459 648.145 394.662 647.617 394.064C647.09 393.455 646.346 393.15 645.385 393.15C644.436 393.15 643.697 393.443 643.17 394.029C642.643 394.615 642.379 395.424 642.379 396.455C642.379 397.475 642.643 398.295 643.17 398.916C643.697 399.537 644.441 399.848 645.402 399.848C646.363 399.848 647.102 399.537 647.617 398.916C648.145 398.295 648.408 397.475 648.408 396.455Z" fill="black"/>
<path d="M928.943 407.793H925.551L924.285 415H921.068L922.334 407.793H918.344V404.77H922.861L923.74 399.777H919.662V396.719H924.285L925.568 389.406H928.768L927.484 396.719H930.895L932.178 389.406H935.395L934.111 396.719H937.961V399.777H933.566L932.688 404.77H936.625V407.793H932.16L930.895 415H927.678L928.943 407.793ZM926.078 404.77H929.471L930.35 399.777H926.939L926.078 404.77ZM961.041 406.475C960.842 409.229 959.822 411.396 957.982 412.979C956.154 414.561 953.74 415.352 950.74 415.352C947.459 415.352 944.875 414.25 942.988 412.047C941.113 409.832 940.176 406.797 940.176 402.941V401.377C940.176 398.916 940.609 396.748 941.477 394.873C942.344 392.998 943.58 391.562 945.186 390.566C946.803 389.559 948.678 389.055 950.811 389.055C953.764 389.055 956.143 389.846 957.947 391.428C959.752 393.01 960.795 395.23 961.076 398.09H955.803C955.674 396.438 955.211 395.242 954.414 394.504C953.629 393.754 952.428 393.379 950.811 393.379C949.053 393.379 947.734 394.012 946.855 395.277C945.988 396.531 945.543 398.482 945.52 401.131V403.064C945.52 405.83 945.936 407.852 946.768 409.129C947.611 410.406 948.936 411.045 950.74 411.045C952.369 411.045 953.582 410.676 954.379 409.938C955.188 409.188 955.65 408.033 955.768 406.475H961.041ZM975.842 404.77C974.518 406.07 972.971 406.721 971.201 406.721C968.939 406.721 967.129 405.947 965.77 404.4C964.41 402.842 963.73 400.744 963.73 398.107C963.73 396.432 964.094 394.896 964.82 393.502C965.559 392.096 966.584 391.006 967.896 390.232C969.209 389.447 970.686 389.055 972.326 389.055C974.014 389.055 975.514 389.477 976.826 390.32C978.139 391.164 979.158 392.377 979.885 393.959C980.611 395.541 980.98 397.352 980.992 399.391V401.271C980.992 405.537 979.932 408.889 977.811 411.326C975.689 413.764 972.684 415.064 968.793 415.229L967.545 415.246V411.01L968.67 410.992C973.088 410.793 975.479 408.719 975.842 404.77ZM972.449 402.836C973.27 402.836 973.973 402.625 974.559 402.203C975.156 401.781 975.607 401.271 975.912 400.674V398.582C975.912 396.859 975.584 395.523 974.928 394.574C974.271 393.625 973.393 393.15 972.291 393.15C971.271 393.15 970.434 393.619 969.777 394.557C969.121 395.482 968.793 396.648 968.793 398.055C968.793 399.449 969.109 400.598 969.742 401.5C970.387 402.391 971.289 402.836 972.449 402.836ZM1005.27 406.475C1005.07 409.229 1004.05 411.396 1002.21 412.979C1000.38 414.561 997.967 415.352 994.967 415.352C991.686 415.352 989.102 414.25 987.215 412.047C985.34 409.832 984.402 406.797 984.402 402.941V401.377C984.402 398.916 984.836 396.748 985.703 394.873C986.57 392.998 987.807 391.562 989.412 390.566C991.029 389.559 992.904 389.055 995.037 389.055C997.99 389.055 1000.37 389.846 1002.17 391.428C1003.98 393.01 1005.02 395.23 1005.3 398.09H1000.03C999.9 396.438 999.438 395.242 998.641 394.504C997.855 393.754 996.654 393.379 995.037 393.379C993.279 393.379 991.961 394.012 991.082 395.277C990.215 396.531 989.77 398.482 989.746 401.131V403.064C989.746 405.83 990.162 407.852 990.994 409.129C991.838 410.406 993.162 411.045 994.967 411.045C996.596 411.045 997.809 410.676 998.605 409.938C999.414 409.188 999.877 408.033 999.994 406.475H1005.27ZM1024.13 403.908H1014V410.764H1025.89V415H1008.73V389.406H1025.85V393.678H1014V399.777H1024.13V403.908ZM1028.98 415V389.406H1036.86C1039.11 389.406 1041.12 389.916 1042.88 390.936C1044.67 391.943 1046.05 393.385 1047.05 395.26C1048.05 397.123 1048.54 399.244 1048.54 401.623V402.801C1048.54 405.18 1048.05 407.295 1047.07 409.146C1046.1 410.998 1044.72 412.434 1042.94 413.453C1041.16 414.473 1039.15 414.988 1036.91 415H1028.98ZM1034.25 393.678V410.764H1036.8C1038.87 410.764 1040.44 410.09 1041.53 408.742C1042.62 407.395 1043.18 405.467 1043.2 402.959V401.605C1043.2 399.004 1042.66 397.035 1041.58 395.699C1040.51 394.352 1038.93 393.678 1036.86 393.678H1034.25ZM1065.63 389.143V393.326H1065.14C1062.84 393.361 1060.99 393.959 1059.58 395.119C1058.19 396.279 1057.35 397.891 1057.07 399.953C1058.43 398.57 1060.15 397.879 1062.22 397.879C1064.45 397.879 1066.22 398.676 1067.53 400.27C1068.84 401.863 1069.5 403.961 1069.5 406.562C1069.5 408.227 1069.13 409.732 1068.41 411.08C1067.69 412.428 1066.67 413.477 1065.35 414.227C1064.04 414.977 1062.55 415.352 1060.88 415.352C1058.19 415.352 1056.01 414.414 1054.35 412.539C1052.69 410.664 1051.87 408.162 1051.87 405.033V403.205C1051.87 400.428 1052.39 397.979 1053.43 395.857C1054.49 393.725 1055.99 392.078 1057.95 390.918C1059.92 389.746 1062.2 389.154 1064.79 389.143H1065.63ZM1060.67 401.957C1059.85 401.957 1059.11 402.174 1058.44 402.607C1057.77 403.029 1057.28 403.592 1056.96 404.295V405.842C1056.96 407.541 1057.3 408.871 1057.97 409.832C1058.63 410.781 1059.57 411.256 1060.78 411.256C1061.87 411.256 1062.75 410.828 1063.42 409.973C1064.1 409.105 1064.44 407.986 1064.44 406.615C1064.44 405.221 1064.1 404.096 1063.42 403.24C1062.74 402.385 1061.82 401.957 1060.67 401.957Z" fill="black"/>
<path d="M1346.83 407.793H1343.44L1342.18 415H1338.96L1340.22 407.793H1336.23V404.77H1340.75L1341.63 399.777H1337.55V396.719H1342.18L1343.46 389.406H1346.66L1345.38 396.719H1348.79L1350.07 389.406H1353.29L1352 396.719H1355.85V399.777H1351.46L1350.58 404.77H1354.52V407.793H1350.05L1348.79 415H1345.57L1346.83 407.793ZM1343.97 404.77H1347.36L1348.24 399.777H1344.83L1343.97 404.77ZM1374.24 404.541H1364.11V415H1358.84V389.406H1375.5V393.678H1364.11V400.287H1374.24V404.541ZM1393.96 404.541H1383.84V415H1378.56V389.406H1395.23V393.678H1383.84V400.287H1393.96V404.541ZM1413.68 404.541H1403.56V415H1398.29V389.406H1414.95V393.678H1403.56V400.287H1413.68V404.541ZM1433.41 404.541H1423.28V415H1418.01V389.406H1434.67V393.678H1423.28V400.287H1433.41V404.541ZM1453.13 404.541H1443V415H1437.73V389.406H1454.39V393.678H1443V400.287H1453.13V404.541ZM1472.85 404.541H1462.73V415H1457.45V389.406H1474.12V393.678H1462.73V400.287H1472.85V404.541Z" fill="black"/>
</svg>
