<svg width="1831" height="497" viewBox="0 0 1831 497" fill="none" xmlns="http://www.w3.org/2000/svg">
<rect x="35" y="60" width="274" height="274" rx="30" fill="#4F849D"/>
<rect x="446" y="60" width="274" height="274" rx="30" fill="#BFE0E6"/>
<rect x="857" y="60" width="274" height="274" rx="30" fill="#1C2C44"/>
<rect x="1268" y="60" width="274" height="274" rx="30" fill="#586062"/>
<path d="M114.09 407.793H110.697L109.432 415H106.215L107.48 407.793H103.49V404.77H108.008L108.887 399.777H104.809V396.719H109.432L110.715 389.406H113.914L112.631 396.719H116.041L117.324 389.406H120.541L119.258 396.719H123.107V399.777H118.713L117.834 404.77H121.771V407.793H117.307L116.041 415H112.824L114.09 407.793ZM111.225 404.77H114.617L115.496 399.777H112.086L111.225 404.77ZM140.58 405.367H143.48V409.463H140.58V415H135.5V409.463H125.006L124.777 406.264L135.447 389.406H140.58V405.367ZM129.84 405.367H135.5V396.332L135.166 396.912L129.84 405.367ZM162.166 404.541H152.041V415H146.768V389.406H163.432V393.678H152.041V400.287H162.166V404.541ZM182.627 396.209C182.627 397.451 182.316 398.553 181.695 399.514C181.074 400.475 180.219 401.242 179.129 401.816C180.371 402.414 181.355 403.24 182.082 404.295C182.809 405.338 183.172 406.568 183.172 407.986C183.172 410.26 182.398 412.059 180.852 413.383C179.305 414.695 177.201 415.352 174.541 415.352C171.881 415.352 169.771 414.689 168.213 413.365C166.654 412.041 165.875 410.248 165.875 407.986C165.875 406.568 166.238 405.332 166.965 404.277C167.691 403.223 168.67 402.402 169.9 401.816C168.811 401.242 167.955 400.475 167.334 399.514C166.725 398.553 166.42 397.451 166.42 396.209C166.42 394.029 167.146 392.295 168.6 391.006C170.053 389.705 172.027 389.055 174.523 389.055C177.008 389.055 178.977 389.699 180.43 390.988C181.895 392.266 182.627 394.006 182.627 396.209ZM178.074 407.617C178.074 406.504 177.752 405.613 177.107 404.945C176.463 404.277 175.596 403.943 174.506 403.943C173.428 403.943 172.566 404.277 171.922 404.945C171.277 405.602 170.955 406.492 170.955 407.617C170.955 408.707 171.271 409.586 171.904 410.254C172.537 410.922 173.416 411.256 174.541 411.256C175.643 411.256 176.504 410.934 177.125 410.289C177.758 409.645 178.074 408.754 178.074 407.617ZM177.547 396.455C177.547 395.459 177.283 394.662 176.756 394.064C176.229 393.455 175.484 393.15 174.523 393.15C173.574 393.15 172.836 393.443 172.309 394.029C171.781 394.615 171.518 395.424 171.518 396.455C171.518 397.475 171.781 398.295 172.309 398.916C172.836 399.537 173.58 399.848 174.541 399.848C175.502 399.848 176.24 399.537 176.756 398.916C177.283 398.295 177.547 397.475 177.547 396.455ZM201.646 405.367H204.547V409.463H201.646V415H196.566V409.463H186.072L185.844 406.264L196.514 389.406H201.646V405.367ZM190.906 405.367H196.566V396.332L196.232 396.912L190.906 405.367ZM219.172 404.77C217.848 406.07 216.301 406.721 214.531 406.721C212.27 406.721 210.459 405.947 209.1 404.4C207.74 402.842 207.061 400.744 207.061 398.107C207.061 396.432 207.424 394.896 208.15 393.502C208.889 392.096 209.914 391.006 211.227 390.232C212.539 389.447 214.016 389.055 215.656 389.055C217.344 389.055 218.844 389.477 220.156 390.32C221.469 391.164 222.488 392.377 223.215 393.959C223.941 395.541 224.311 397.352 224.322 399.391V401.271C224.322 405.537 223.262 408.889 221.141 411.326C219.02 413.764 216.014 415.064 212.123 415.229L210.875 415.246V411.01L212 410.992C216.418 410.793 218.809 408.719 219.172 404.77ZM215.779 402.836C216.6 402.836 217.303 402.625 217.889 402.203C218.486 401.781 218.938 401.271 219.242 400.674V398.582C219.242 396.859 218.914 395.523 218.258 394.574C217.602 393.625 216.723 393.15 215.621 393.15C214.602 393.15 213.764 393.619 213.107 394.557C212.451 395.482 212.123 396.648 212.123 398.055C212.123 399.449 212.439 400.598 213.072 401.5C213.717 402.391 214.619 402.836 215.779 402.836ZM228.506 415V389.406H236.381C238.631 389.406 240.641 389.916 242.41 390.936C244.191 391.943 245.58 393.385 246.576 395.26C247.572 397.123 248.07 399.244 248.07 401.623V402.801C248.07 405.18 247.578 407.295 246.594 409.146C245.621 410.998 244.244 412.434 242.463 413.453C240.682 414.473 238.672 414.988 236.434 415H228.506ZM233.779 393.678V410.764H236.328C238.391 410.764 239.967 410.09 241.057 408.742C242.146 407.395 242.703 405.467 242.727 402.959V401.605C242.727 399.004 242.188 397.035 241.109 395.699C240.031 394.352 238.455 393.678 236.381 393.678H233.779Z" fill="black"/>
<path d="M521.723 407.793H518.33L517.064 415H513.848L515.113 407.793H511.123V404.77H515.641L516.52 399.777H512.441V396.719H517.064L518.348 389.406H521.547L520.264 396.719H523.674L524.957 389.406H528.174L526.891 396.719H530.74V399.777H526.346L525.467 404.77H529.404V407.793H524.939L523.674 415H520.457L521.723 407.793ZM518.857 404.77H522.25L523.129 399.777H519.719L518.857 404.77ZM533.729 415V389.406H542.693C545.799 389.406 548.154 390.004 549.76 391.199C551.365 392.383 552.168 394.123 552.168 396.42C552.168 397.674 551.846 398.781 551.201 399.742C550.557 400.691 549.66 401.389 548.512 401.834C549.824 402.162 550.855 402.824 551.605 403.82C552.367 404.816 552.748 406.035 552.748 407.477C552.748 409.938 551.963 411.801 550.393 413.066C548.822 414.332 546.584 414.977 543.678 415H533.729ZM539.002 403.855V410.764H543.52C544.762 410.764 545.729 410.471 546.42 409.885C547.123 409.287 547.475 408.467 547.475 407.424C547.475 405.08 546.262 403.891 543.836 403.855H539.002ZM539.002 400.129H542.904C545.564 400.082 546.895 399.021 546.895 396.947C546.895 395.787 546.555 394.955 545.875 394.451C545.207 393.936 544.146 393.678 542.693 393.678H539.002V400.129ZM572.119 404.541H561.994V415H556.721V389.406H573.385V393.678H561.994V400.287H572.119V404.541ZM591.842 403.908H581.717V410.764H593.6V415H576.443V389.406H593.564V393.678H581.717V399.777H591.842V403.908ZM613.375 404.418C613.375 407.957 612.643 410.664 611.178 412.539C609.713 414.414 607.568 415.352 604.744 415.352C601.955 415.352 599.822 414.432 598.346 412.592C596.869 410.752 596.113 408.115 596.078 404.682V399.971C596.078 396.396 596.816 393.684 598.293 391.832C599.781 389.98 601.92 389.055 604.709 389.055C607.498 389.055 609.631 389.975 611.107 391.814C612.584 393.643 613.34 396.273 613.375 399.707V404.418ZM608.295 399.25C608.295 397.129 608.002 395.588 607.416 394.627C606.842 393.654 605.939 393.168 604.709 393.168C603.514 393.168 602.629 393.631 602.055 394.557C601.492 395.471 601.193 396.906 601.158 398.863V405.086C601.158 407.172 601.439 408.725 602.002 409.744C602.576 410.752 603.49 411.256 604.744 411.256C605.986 411.256 606.883 410.77 607.434 409.797C607.984 408.824 608.271 407.336 608.295 405.332V399.25ZM632.764 403.908H622.639V410.764H634.521V415H617.365V389.406H634.486V393.678H622.639V399.777H632.764V403.908ZM650.852 389.143V393.326H650.359C648.062 393.361 646.211 393.959 644.805 395.119C643.41 396.279 642.572 397.891 642.291 399.953C643.65 398.57 645.367 397.879 647.441 397.879C649.668 397.879 651.438 398.676 652.75 400.27C654.062 401.863 654.719 403.961 654.719 406.562C654.719 408.227 654.355 409.732 653.629 411.08C652.914 412.428 651.895 413.477 650.57 414.227C649.258 414.977 647.77 415.352 646.105 415.352C643.41 415.352 641.23 414.414 639.566 412.539C637.914 410.664 637.088 408.162 637.088 405.033V403.205C637.088 400.428 637.609 397.979 638.652 395.857C639.707 393.725 641.213 392.078 643.17 390.918C645.139 389.746 647.418 389.154 650.008 389.143H650.852ZM645.895 401.957C645.074 401.957 644.33 402.174 643.662 402.607C642.994 403.029 642.502 403.592 642.186 404.295V405.842C642.186 407.541 642.52 408.871 643.188 409.832C643.855 410.781 644.793 411.256 646 411.256C647.09 411.256 647.969 410.828 648.637 409.973C649.316 409.105 649.656 407.986 649.656 406.615C649.656 405.221 649.316 404.096 648.637 403.24C647.957 402.385 647.043 401.957 645.895 401.957Z" fill="black"/>
<path d="M930.104 407.793H926.711L925.445 415H922.229L923.494 407.793H919.504V404.77H924.021L924.9 399.777H920.822V396.719H925.445L926.729 389.406H929.928L928.645 396.719H932.055L933.338 389.406H936.555L935.271 396.719H939.121V399.777H934.727L933.848 404.77H937.785V407.793H933.32L932.055 415H928.838L930.104 407.793ZM927.238 404.77H930.631L931.51 399.777H928.1L927.238 404.77ZM953.904 415H948.824V395.418L942.76 397.299V393.168L953.359 389.371H953.904V415ZM982.873 406.475C982.674 409.229 981.654 411.396 979.814 412.979C977.986 414.561 975.572 415.352 972.572 415.352C969.291 415.352 966.707 414.25 964.82 412.047C962.945 409.832 962.008 406.797 962.008 402.941V401.377C962.008 398.916 962.441 396.748 963.309 394.873C964.176 392.998 965.412 391.562 967.018 390.566C968.635 389.559 970.51 389.055 972.643 389.055C975.596 389.055 977.975 389.846 979.779 391.428C981.584 393.01 982.627 395.23 982.908 398.09H977.635C977.506 396.438 977.043 395.242 976.246 394.504C975.461 393.754 974.26 393.379 972.643 393.379C970.885 393.379 969.566 394.012 968.688 395.277C967.82 396.531 967.375 398.482 967.352 401.131V403.064C967.352 405.83 967.768 407.852 968.6 409.129C969.443 410.406 970.768 411.045 972.572 411.045C974.201 411.045 975.414 410.676 976.211 409.938C977.02 409.188 977.482 408.033 977.6 406.475H982.873ZM1003.33 415H985.791V411.52L994.07 402.695C995.207 401.453 996.045 400.369 996.584 399.443C997.135 398.518 997.41 397.639 997.41 396.807C997.41 395.67 997.123 394.779 996.549 394.135C995.975 393.479 995.154 393.15 994.088 393.15C992.939 393.15 992.031 393.549 991.363 394.346C990.707 395.131 990.379 396.168 990.379 397.457H985.281C985.281 395.898 985.65 394.475 986.389 393.186C987.139 391.896 988.193 390.889 989.553 390.162C990.912 389.424 992.453 389.055 994.176 389.055C996.812 389.055 998.857 389.688 1000.31 390.953C1001.78 392.219 1002.51 394.006 1002.51 396.314C1002.51 397.58 1002.18 398.869 1001.52 400.182C1000.87 401.494 999.742 403.023 998.148 404.77L992.33 410.904H1003.33V415ZM1027.1 406.475C1026.9 409.229 1025.88 411.396 1024.04 412.979C1022.21 414.561 1019.8 415.352 1016.8 415.352C1013.52 415.352 1010.93 414.25 1009.05 412.047C1007.17 409.832 1006.23 406.797 1006.23 402.941V401.377C1006.23 398.916 1006.67 396.748 1007.54 394.873C1008.4 392.998 1009.64 391.562 1011.24 390.566C1012.86 389.559 1014.74 389.055 1016.87 389.055C1019.82 389.055 1022.2 389.846 1024.01 391.428C1025.81 393.01 1026.85 395.23 1027.13 398.09H1021.86C1021.73 396.438 1021.27 395.242 1020.47 394.504C1019.69 393.754 1018.49 393.379 1016.87 393.379C1015.11 393.379 1013.79 394.012 1012.91 395.277C1012.05 396.531 1011.6 398.482 1011.58 401.131V403.064C1011.58 405.83 1011.99 407.852 1012.83 409.129C1013.67 410.406 1014.99 411.045 1016.8 411.045C1018.43 411.045 1019.64 410.676 1020.44 409.938C1021.25 409.188 1021.71 408.033 1021.83 406.475H1027.1ZM1045.05 405.367H1047.95V409.463H1045.05V415H1039.97V409.463H1029.47L1029.24 406.264L1039.91 389.406H1045.05V405.367ZM1034.31 405.367H1039.97V396.332L1039.63 396.912L1034.31 405.367ZM1065.72 405.367H1068.62V409.463H1065.72V415H1060.64V409.463H1050.14L1049.92 406.264L1060.59 389.406H1065.72V405.367ZM1054.98 405.367H1060.64V396.332L1060.3 396.912L1054.98 405.367Z" fill="black"/>
<path d="M1343.99 407.793H1340.59L1339.33 415H1336.11L1337.38 407.793H1333.39V404.77H1337.9L1338.78 399.777H1334.71V396.719H1339.33L1340.61 389.406H1343.81L1342.53 396.719H1345.94L1347.22 389.406H1350.44L1349.15 396.719H1353V399.777H1348.61L1347.73 404.77H1351.67V407.793H1347.2L1345.94 415H1342.72L1343.99 407.793ZM1341.12 404.77H1344.51L1345.39 399.777H1341.98L1341.12 404.77ZM1356.2 402.414L1357.68 389.406H1372.02V393.643H1361.85L1361.21 399.145C1362.42 398.5 1363.7 398.178 1365.06 398.178C1367.5 398.178 1369.41 398.934 1370.79 400.445C1372.18 401.957 1372.87 404.072 1372.87 406.791C1372.87 408.443 1372.52 409.926 1371.81 411.238C1371.12 412.539 1370.12 413.553 1368.82 414.279C1367.52 414.994 1365.99 415.352 1364.22 415.352C1362.67 415.352 1361.24 415.041 1359.91 414.42C1358.59 413.787 1357.54 412.902 1356.77 411.766C1356 410.629 1355.6 409.334 1355.55 407.881H1360.58C1360.69 408.947 1361.05 409.779 1361.69 410.377C1362.33 410.963 1363.17 411.256 1364.2 411.256C1365.35 411.256 1366.23 410.846 1366.86 410.025C1367.48 409.193 1367.79 408.021 1367.79 406.51C1367.79 405.057 1367.43 403.943 1366.71 403.17C1366 402.396 1364.99 402.01 1363.67 402.01C1362.47 402.01 1361.49 402.326 1360.74 402.959L1360.25 403.416L1356.2 402.414ZM1392.8 396.209C1392.8 397.451 1392.49 398.553 1391.87 399.514C1391.25 400.475 1390.39 401.242 1389.3 401.816C1390.54 402.414 1391.53 403.24 1392.26 404.295C1392.98 405.338 1393.35 406.568 1393.35 407.986C1393.35 410.26 1392.57 412.059 1391.03 413.383C1389.48 414.695 1387.38 415.352 1384.71 415.352C1382.05 415.352 1379.95 414.689 1378.39 413.365C1376.83 412.041 1376.05 410.248 1376.05 407.986C1376.05 406.568 1376.41 405.332 1377.14 404.277C1377.87 403.223 1378.84 402.402 1380.07 401.816C1378.98 401.242 1378.13 400.475 1377.51 399.514C1376.9 398.553 1376.59 397.451 1376.59 396.209C1376.59 394.029 1377.32 392.295 1378.77 391.006C1380.23 389.705 1382.2 389.055 1384.7 389.055C1387.18 389.055 1389.15 389.699 1390.6 390.988C1392.07 392.266 1392.8 394.006 1392.8 396.209ZM1388.25 407.617C1388.25 406.504 1387.93 405.613 1387.28 404.945C1386.64 404.277 1385.77 403.943 1384.68 403.943C1383.6 403.943 1382.74 404.277 1382.1 404.945C1381.45 405.602 1381.13 406.492 1381.13 407.617C1381.13 408.707 1381.45 409.586 1382.08 410.254C1382.71 410.922 1383.59 411.256 1384.71 411.256C1385.82 411.256 1386.68 410.934 1387.3 410.289C1387.93 409.645 1388.25 408.754 1388.25 407.617ZM1387.72 396.455C1387.72 395.459 1387.46 394.662 1386.93 394.064C1386.4 393.455 1385.66 393.15 1384.7 393.15C1383.75 393.15 1383.01 393.443 1382.48 394.029C1381.96 394.615 1381.69 395.424 1381.69 396.455C1381.69 397.475 1381.96 398.295 1382.48 398.916C1383.01 399.537 1383.75 399.848 1384.71 399.848C1385.68 399.848 1386.41 399.537 1386.93 398.916C1387.46 398.295 1387.72 397.475 1387.72 396.455ZM1410.57 389.143V393.326H1410.08C1407.78 393.361 1405.93 393.959 1404.53 395.119C1403.13 396.279 1402.29 397.891 1402.01 399.953C1403.37 398.57 1405.09 397.879 1407.16 397.879C1409.39 397.879 1411.16 398.676 1412.47 400.27C1413.78 401.863 1414.44 403.961 1414.44 406.562C1414.44 408.227 1414.08 409.732 1413.35 411.08C1412.63 412.428 1411.62 413.477 1410.29 414.227C1408.98 414.977 1407.49 415.352 1405.83 415.352C1403.13 415.352 1400.95 414.414 1399.29 412.539C1397.63 410.664 1396.81 408.162 1396.81 405.033V403.205C1396.81 400.428 1397.33 397.979 1398.37 395.857C1399.43 393.725 1400.93 392.078 1402.89 390.918C1404.86 389.746 1407.14 389.154 1409.73 389.143H1410.57ZM1405.62 401.957C1404.79 401.957 1404.05 402.174 1403.38 402.607C1402.71 403.029 1402.22 403.592 1401.91 404.295V405.842C1401.91 407.541 1402.24 408.871 1402.91 409.832C1403.58 410.781 1404.51 411.256 1405.72 411.256C1406.81 411.256 1407.69 410.828 1408.36 409.973C1409.04 409.105 1409.38 407.986 1409.38 406.615C1409.38 405.221 1409.04 404.096 1408.36 403.24C1407.68 402.385 1406.76 401.957 1405.62 401.957ZM1434.69 404.418C1434.69 407.957 1433.96 410.664 1432.49 412.539C1431.03 414.414 1428.88 415.352 1426.06 415.352C1423.27 415.352 1421.14 414.432 1419.66 412.592C1418.18 410.752 1417.43 408.115 1417.39 404.682V399.971C1417.39 396.396 1418.13 393.684 1419.61 391.832C1421.1 389.98 1423.23 389.055 1426.02 389.055C1428.81 389.055 1430.95 389.975 1432.42 391.814C1433.9 393.643 1434.65 396.273 1434.69 399.707V404.418ZM1429.61 399.25C1429.61 397.129 1429.32 395.588 1428.73 394.627C1428.16 393.654 1427.25 393.168 1426.02 393.168C1424.83 393.168 1423.94 393.631 1423.37 394.557C1422.81 395.471 1422.51 396.906 1422.47 398.863V405.086C1422.47 407.172 1422.75 408.725 1423.32 409.744C1423.89 410.752 1424.8 411.256 1426.06 411.256C1427.3 411.256 1428.2 410.77 1428.75 409.797C1429.3 408.824 1429.59 407.336 1429.61 405.332V399.25ZM1451.92 389.143V393.326H1451.42C1449.13 393.361 1447.28 393.959 1445.87 395.119C1444.47 396.279 1443.64 397.891 1443.36 399.953C1444.71 398.57 1446.43 397.879 1448.51 397.879C1450.73 397.879 1452.5 398.676 1453.81 400.27C1455.13 401.863 1455.78 403.961 1455.78 406.562C1455.78 408.227 1455.42 409.732 1454.69 411.08C1453.98 412.428 1452.96 413.477 1451.63 414.227C1450.32 414.977 1448.83 415.352 1447.17 415.352C1444.47 415.352 1442.29 414.414 1440.63 412.539C1438.98 410.664 1438.15 408.162 1438.15 405.033V403.205C1438.15 400.428 1438.67 397.979 1439.72 395.857C1440.77 393.725 1442.28 392.078 1444.23 390.918C1446.2 389.746 1448.48 389.154 1451.07 389.143H1451.92ZM1446.96 401.957C1446.14 401.957 1445.39 402.174 1444.73 402.607C1444.06 403.029 1443.57 403.592 1443.25 404.295V405.842C1443.25 407.541 1443.58 408.871 1444.25 409.832C1444.92 410.781 1445.86 411.256 1447.06 411.256C1448.15 411.256 1449.03 410.828 1449.7 409.973C1450.38 409.105 1450.72 407.986 1450.72 406.615C1450.72 405.221 1450.38 404.096 1449.7 403.24C1449.02 402.385 1448.11 401.957 1446.96 401.957ZM1476.35 415H1458.81V411.52L1467.09 402.695C1468.22 401.453 1469.06 400.369 1469.6 399.443C1470.15 398.518 1470.43 397.639 1470.43 396.807C1470.43 395.67 1470.14 394.779 1469.56 394.135C1468.99 393.479 1468.17 393.15 1467.1 393.15C1465.96 393.15 1465.05 393.549 1464.38 394.346C1463.72 395.131 1463.39 396.168 1463.39 397.457H1458.3C1458.3 395.898 1458.67 394.475 1459.4 393.186C1460.15 391.896 1461.21 390.889 1462.57 390.162C1463.93 389.424 1465.47 389.055 1467.19 389.055C1469.83 389.055 1471.87 389.688 1473.33 390.953C1474.79 392.219 1475.52 394.006 1475.52 396.314C1475.52 397.58 1475.2 398.869 1474.54 400.182C1473.88 401.494 1472.76 403.023 1471.16 404.77L1465.35 410.904H1476.35V415Z" fill="black"/>
</svg>
