<svg width="1831" height="497" viewBox="0 0 1831 497" fill="none" xmlns="http://www.w3.org/2000/svg">
<rect x="35" y="60" width="274" height="274" rx="30" fill="#19133C"/>
<rect x="446" y="60" width="274" height="274" rx="30" fill="#F68D2B"/>
<rect x="857" y="60" width="274" height="274" rx="30" fill="#D5191D"/>
<rect x="1268" y="60" width="274" height="274" rx="30" fill="#500B83"/>
<path d="M113.545 407.793H110.152L108.887 415H105.67L106.936 407.793H102.945V404.77H107.463L108.342 399.777H104.264V396.719H108.887L110.17 389.406H113.369L112.086 396.719H115.496L116.779 389.406H119.996L118.713 396.719H122.562V399.777H118.168L117.289 404.77H121.227V407.793H116.762L115.496 415H112.279L113.545 407.793ZM110.68 404.77H114.072L114.951 399.777H111.541L110.68 404.77ZM137.346 415H132.266V395.418L126.201 397.299V393.168L136.801 389.371H137.346V415ZM157.561 404.77C156.236 406.07 154.689 406.721 152.92 406.721C150.658 406.721 148.848 405.947 147.488 404.4C146.129 402.842 145.449 400.744 145.449 398.107C145.449 396.432 145.812 394.896 146.539 393.502C147.277 392.096 148.303 391.006 149.615 390.232C150.928 389.447 152.404 389.055 154.045 389.055C155.732 389.055 157.232 389.477 158.545 390.32C159.857 391.164 160.877 392.377 161.604 393.959C162.33 395.541 162.699 397.352 162.711 399.391V401.271C162.711 405.537 161.65 408.889 159.529 411.326C157.408 413.764 154.402 415.064 150.512 415.229L149.264 415.246V411.01L150.389 410.992C154.807 410.793 157.197 408.719 157.561 404.77ZM154.168 402.836C154.988 402.836 155.691 402.625 156.277 402.203C156.875 401.781 157.326 401.271 157.631 400.674V398.582C157.631 396.859 157.303 395.523 156.646 394.574C155.99 393.625 155.111 393.15 154.01 393.15C152.99 393.15 152.152 393.619 151.496 394.557C150.84 395.482 150.512 396.648 150.512 398.055C150.512 399.449 150.828 400.598 151.461 401.5C152.105 402.391 153.008 402.836 154.168 402.836ZM178.689 415H173.609V395.418L167.545 397.299V393.168L178.145 389.371H178.689V415ZM192.189 399.953H194.896C196.186 399.953 197.141 399.631 197.762 398.986C198.383 398.342 198.693 397.486 198.693 396.42C198.693 395.389 198.383 394.586 197.762 394.012C197.152 393.438 196.309 393.15 195.23 393.15C194.258 393.15 193.443 393.42 192.787 393.959C192.131 394.486 191.803 395.178 191.803 396.033H186.723C186.723 394.697 187.08 393.502 187.795 392.447C188.521 391.381 189.529 390.549 190.818 389.951C192.119 389.354 193.549 389.055 195.107 389.055C197.814 389.055 199.936 389.705 201.471 391.006C203.006 392.295 203.773 394.076 203.773 396.35C203.773 397.521 203.416 398.6 202.701 399.584C201.986 400.568 201.049 401.324 199.889 401.852C201.33 402.367 202.402 403.141 203.105 404.172C203.82 405.203 204.178 406.422 204.178 407.828C204.178 410.102 203.346 411.924 201.682 413.295C200.029 414.666 197.838 415.352 195.107 415.352C192.553 415.352 190.461 414.678 188.832 413.33C187.215 411.982 186.406 410.201 186.406 407.986H191.486C191.486 408.947 191.844 409.732 192.559 410.342C193.285 410.951 194.176 411.256 195.23 411.256C196.438 411.256 197.381 410.939 198.061 410.307C198.752 409.662 199.098 408.812 199.098 407.758C199.098 405.203 197.691 403.926 194.879 403.926H192.189V399.953ZM212.861 399.953H215.568C216.857 399.953 217.812 399.631 218.434 398.986C219.055 398.342 219.365 397.486 219.365 396.42C219.365 395.389 219.055 394.586 218.434 394.012C217.824 393.438 216.98 393.15 215.902 393.15C214.93 393.15 214.115 393.42 213.459 393.959C212.803 394.486 212.475 395.178 212.475 396.033H207.395C207.395 394.697 207.752 393.502 208.467 392.447C209.193 391.381 210.201 390.549 211.49 389.951C212.791 389.354 214.221 389.055 215.779 389.055C218.486 389.055 220.607 389.705 222.143 391.006C223.678 392.295 224.445 394.076 224.445 396.35C224.445 397.521 224.088 398.6 223.373 399.584C222.658 400.568 221.721 401.324 220.561 401.852C222.002 402.367 223.074 403.141 223.777 404.172C224.492 405.203 224.85 406.422 224.85 407.828C224.85 410.102 224.018 411.924 222.354 413.295C220.701 414.666 218.51 415.352 215.779 415.352C213.225 415.352 211.133 414.678 209.504 413.33C207.887 411.982 207.078 410.201 207.078 407.986H212.158C212.158 408.947 212.516 409.732 213.23 410.342C213.957 410.951 214.848 411.256 215.902 411.256C217.109 411.256 218.053 410.939 218.732 410.307C219.424 409.662 219.77 408.812 219.77 407.758C219.77 405.203 218.363 403.926 215.551 403.926H212.861V399.953ZM249.002 406.475C248.803 409.229 247.783 411.396 245.943 412.979C244.115 414.561 241.701 415.352 238.701 415.352C235.42 415.352 232.836 414.25 230.949 412.047C229.074 409.832 228.137 406.797 228.137 402.941V401.377C228.137 398.916 228.57 396.748 229.438 394.873C230.305 392.998 231.541 391.562 233.146 390.566C234.764 389.559 236.639 389.055 238.771 389.055C241.725 389.055 244.104 389.846 245.908 391.428C247.713 393.01 248.756 395.23 249.037 398.09H243.764C243.635 396.438 243.172 395.242 242.375 394.504C241.59 393.754 240.389 393.379 238.771 393.379C237.014 393.379 235.695 394.012 234.816 395.277C233.949 396.531 233.504 398.482 233.48 401.131V403.064C233.48 405.83 233.896 407.852 234.729 409.129C235.572 410.406 236.896 411.045 238.701 411.045C240.33 411.045 241.543 410.676 242.34 409.938C243.148 409.188 243.611 408.033 243.729 406.475H249.002Z" fill="black"/>
<path d="M519.93 407.793H516.537L515.271 415H512.055L513.32 407.793H509.33V404.77H513.848L514.727 399.777H510.648V396.719H515.271L516.555 389.406H519.754L518.471 396.719H521.881L523.164 389.406H526.381L525.098 396.719H528.947V399.777H524.553L523.674 404.77H527.611V407.793H523.146L521.881 415H518.664L519.93 407.793ZM517.064 404.77H520.457L521.336 399.777H517.926L517.064 404.77ZM547.334 404.541H537.209V415H531.936V389.406H548.6V393.678H537.209V400.287H547.334V404.541ZM564.895 389.143V393.326H564.402C562.105 393.361 560.254 393.959 558.848 395.119C557.453 396.279 556.615 397.891 556.334 399.953C557.693 398.57 559.41 397.879 561.484 397.879C563.711 397.879 565.48 398.676 566.793 400.27C568.105 401.863 568.762 403.961 568.762 406.562C568.762 408.227 568.398 409.732 567.672 411.08C566.957 412.428 565.938 413.477 564.613 414.227C563.301 414.977 561.812 415.352 560.148 415.352C557.453 415.352 555.273 414.414 553.609 412.539C551.957 410.664 551.131 408.162 551.131 405.033V403.205C551.131 400.428 551.652 397.979 552.695 395.857C553.75 393.725 555.256 392.078 557.213 390.918C559.182 389.746 561.461 389.154 564.051 389.143H564.895ZM559.938 401.957C559.117 401.957 558.373 402.174 557.705 402.607C557.037 403.029 556.545 403.592 556.229 404.295V405.842C556.229 407.541 556.562 408.871 557.23 409.832C557.898 410.781 558.836 411.256 560.043 411.256C561.133 411.256 562.012 410.828 562.68 409.973C563.359 409.105 563.699 407.986 563.699 406.615C563.699 405.221 563.359 404.096 562.68 403.24C562 402.385 561.086 401.957 559.938 401.957ZM588.467 396.209C588.467 397.451 588.156 398.553 587.535 399.514C586.914 400.475 586.059 401.242 584.969 401.816C586.211 402.414 587.195 403.24 587.922 404.295C588.648 405.338 589.012 406.568 589.012 407.986C589.012 410.26 588.238 412.059 586.691 413.383C585.145 414.695 583.041 415.352 580.381 415.352C577.721 415.352 575.611 414.689 574.053 413.365C572.494 412.041 571.715 410.248 571.715 407.986C571.715 406.568 572.078 405.332 572.805 404.277C573.531 403.223 574.51 402.402 575.74 401.816C574.65 401.242 573.795 400.475 573.174 399.514C572.564 398.553 572.26 397.451 572.26 396.209C572.26 394.029 572.986 392.295 574.439 391.006C575.893 389.705 577.867 389.055 580.363 389.055C582.848 389.055 584.816 389.699 586.27 390.988C587.734 392.266 588.467 394.006 588.467 396.209ZM583.914 407.617C583.914 406.504 583.592 405.613 582.947 404.945C582.303 404.277 581.436 403.943 580.346 403.943C579.268 403.943 578.406 404.277 577.762 404.945C577.117 405.602 576.795 406.492 576.795 407.617C576.795 408.707 577.111 409.586 577.744 410.254C578.377 410.922 579.256 411.256 580.381 411.256C581.482 411.256 582.344 410.934 582.965 410.289C583.598 409.645 583.914 408.754 583.914 407.617ZM583.387 396.455C583.387 395.459 583.123 394.662 582.596 394.064C582.068 393.455 581.324 393.15 580.363 393.15C579.414 393.15 578.676 393.443 578.148 394.029C577.621 394.615 577.357 395.424 577.357 396.455C577.357 397.475 577.621 398.295 578.148 398.916C578.676 399.537 579.42 399.848 580.381 399.848C581.342 399.848 582.08 399.537 582.596 398.916C583.123 398.295 583.387 397.475 583.387 396.455ZM593.002 415V389.406H600.877C603.127 389.406 605.137 389.916 606.906 390.936C608.688 391.943 610.076 393.385 611.072 395.26C612.068 397.123 612.566 399.244 612.566 401.623V402.801C612.566 405.18 612.074 407.295 611.09 409.146C610.117 410.998 608.74 412.434 606.959 413.453C605.178 414.473 603.168 414.988 600.93 415H593.002ZM598.275 393.678V410.764H600.824C602.887 410.764 604.463 410.09 605.553 408.742C606.643 407.395 607.199 405.467 607.223 402.959V401.605C607.223 399.004 606.684 397.035 605.605 395.699C604.527 394.352 602.951 393.678 600.877 393.678H598.275ZM633.414 415H615.871V411.52L624.15 402.695C625.287 401.453 626.125 400.369 626.664 399.443C627.215 398.518 627.49 397.639 627.49 396.807C627.49 395.67 627.203 394.779 626.629 394.135C626.055 393.479 625.234 393.15 624.168 393.15C623.02 393.15 622.111 393.549 621.443 394.346C620.787 395.131 620.459 396.168 620.459 397.457H615.361C615.361 395.898 615.73 394.475 616.469 393.186C617.219 391.896 618.273 390.889 619.633 390.162C620.992 389.424 622.533 389.055 624.256 389.055C626.893 389.055 628.938 389.688 630.391 390.953C631.855 392.219 632.588 394.006 632.588 396.314C632.588 397.58 632.26 398.869 631.604 400.182C630.947 401.494 629.822 403.023 628.229 404.77L622.41 410.904H633.414V415ZM637.088 415V389.406H646.053C649.158 389.406 651.514 390.004 653.119 391.199C654.725 392.383 655.527 394.123 655.527 396.42C655.527 397.674 655.205 398.781 654.561 399.742C653.916 400.691 653.02 401.389 651.871 401.834C653.184 402.162 654.215 402.824 654.965 403.82C655.727 404.816 656.107 406.035 656.107 407.477C656.107 409.938 655.322 411.801 653.752 413.066C652.182 414.332 649.943 414.977 647.037 415H637.088ZM642.361 403.855V410.764H646.879C648.121 410.764 649.088 410.471 649.779 409.885C650.482 409.287 650.834 408.467 650.834 407.424C650.834 405.08 649.621 403.891 647.195 403.855H642.361ZM642.361 400.129H646.264C648.924 400.082 650.254 399.021 650.254 396.947C650.254 395.787 649.914 394.955 649.234 394.451C648.566 393.936 647.506 393.678 646.053 393.678H642.361V400.129Z" fill="black"/>
<path d="M930.244 407.793H926.852L925.586 415H922.369L923.635 407.793H919.645V404.77H924.162L925.041 399.777H920.963V396.719H925.586L926.869 389.406H930.068L928.785 396.719H932.195L933.479 389.406H936.695L935.412 396.719H939.262V399.777H934.867L933.988 404.77H937.926V407.793H933.461L932.195 415H928.979L930.244 407.793ZM927.379 404.77H930.771L931.65 399.777H928.24L927.379 404.77ZM942.25 415V389.406H950.125C952.375 389.406 954.385 389.916 956.154 390.936C957.936 391.943 959.324 393.385 960.32 395.26C961.316 397.123 961.814 399.244 961.814 401.623V402.801C961.814 405.18 961.322 407.295 960.338 409.146C959.365 410.998 957.988 412.434 956.207 413.453C954.426 414.473 952.416 414.988 950.178 415H942.25ZM947.523 393.678V410.764H950.072C952.135 410.764 953.711 410.09 954.801 408.742C955.891 407.395 956.447 405.467 956.471 402.959V401.605C956.471 399.004 955.932 397.035 954.854 395.699C953.775 394.352 952.199 393.678 950.125 393.678H947.523ZM965.875 402.414L967.352 389.406H981.695V393.643H971.518L970.885 399.145C972.092 398.5 973.375 398.178 974.734 398.178C977.172 398.178 979.082 398.934 980.465 400.445C981.848 401.957 982.539 404.072 982.539 406.791C982.539 408.443 982.188 409.926 981.484 411.238C980.793 412.539 979.797 413.553 978.496 414.279C977.195 414.994 975.66 415.352 973.891 415.352C972.344 415.352 970.908 415.041 969.584 414.42C968.26 413.787 967.211 412.902 966.438 411.766C965.676 410.629 965.271 409.334 965.225 407.881H970.252C970.357 408.947 970.727 409.779 971.359 410.377C972.004 410.963 972.842 411.256 973.873 411.256C975.021 411.256 975.906 410.846 976.527 410.025C977.148 409.193 977.459 408.021 977.459 406.51C977.459 405.057 977.102 403.943 976.387 403.17C975.672 402.396 974.658 402.01 973.346 402.01C972.139 402.01 971.16 402.326 970.41 402.959L969.918 403.416L965.875 402.414ZM998.131 415H993.051V395.418L986.986 397.299V393.168L997.586 389.371H998.131V415ZM1018.35 404.77C1017.02 406.07 1015.47 406.721 1013.71 406.721C1011.44 406.721 1009.63 405.947 1008.27 404.4C1006.91 402.842 1006.23 400.744 1006.23 398.107C1006.23 396.432 1006.6 394.896 1007.32 393.502C1008.06 392.096 1009.09 391.006 1010.4 390.232C1011.71 389.447 1013.19 389.055 1014.83 389.055C1016.52 389.055 1018.02 389.477 1019.33 390.32C1020.64 391.164 1021.66 392.377 1022.39 393.959C1023.12 395.541 1023.48 397.352 1023.5 399.391V401.271C1023.5 405.537 1022.44 408.889 1020.31 411.326C1018.19 413.764 1015.19 415.064 1011.3 415.229L1010.05 415.246V411.01L1011.17 410.992C1015.59 410.793 1017.98 408.719 1018.35 404.77ZM1014.95 402.836C1015.77 402.836 1016.48 402.625 1017.06 402.203C1017.66 401.781 1018.11 401.271 1018.42 400.674V398.582C1018.42 396.859 1018.09 395.523 1017.43 394.574C1016.78 393.625 1015.9 393.15 1014.79 393.15C1013.78 393.15 1012.94 393.619 1012.28 394.557C1011.62 395.482 1011.3 396.648 1011.3 398.055C1011.3 399.449 1011.61 400.598 1012.25 401.5C1012.89 402.391 1013.79 402.836 1014.95 402.836ZM1039.47 415H1034.39V395.418L1028.33 397.299V393.168L1038.93 389.371H1039.47V415ZM1048.35 415V389.406H1056.23C1058.48 389.406 1060.49 389.916 1062.26 390.936C1064.04 391.943 1065.43 393.385 1066.42 395.26C1067.42 397.123 1067.92 399.244 1067.92 401.623V402.801C1067.92 405.18 1067.42 407.295 1066.44 409.146C1065.47 410.998 1064.09 412.434 1062.31 413.453C1060.53 414.473 1058.52 414.988 1056.28 415H1048.35ZM1053.62 393.678V410.764H1056.17C1058.24 410.764 1059.81 410.09 1060.9 408.742C1061.99 407.395 1062.55 405.467 1062.57 402.959V401.605C1062.57 399.004 1062.03 397.035 1060.96 395.699C1059.88 394.352 1058.3 393.678 1056.23 393.678H1053.62Z" fill="black"/>
<path d="M1342.83 407.793H1339.43L1338.17 415H1334.95L1336.22 407.793H1332.23V404.77H1336.74L1337.62 399.777H1333.54V396.719H1338.17L1339.45 389.406H1342.65L1341.37 396.719H1344.78L1346.06 389.406H1349.28L1347.99 396.719H1351.84V399.777H1347.45L1346.57 404.77H1350.51V407.793H1346.04L1344.78 415H1341.56L1342.83 407.793ZM1339.96 404.77H1343.35L1344.23 399.777H1340.82L1339.96 404.77ZM1355.04 402.414L1356.52 389.406H1370.86V393.643H1360.69L1360.05 399.145C1361.26 398.5 1362.54 398.178 1363.9 398.178C1366.34 398.178 1368.25 398.934 1369.63 400.445C1371.02 401.957 1371.71 404.072 1371.71 406.791C1371.71 408.443 1371.36 409.926 1370.65 411.238C1369.96 412.539 1368.96 413.553 1367.66 414.279C1366.36 414.994 1364.83 415.352 1363.06 415.352C1361.51 415.352 1360.08 415.041 1358.75 414.42C1357.43 413.787 1356.38 412.902 1355.61 411.766C1354.84 410.629 1354.44 409.334 1354.39 407.881H1359.42C1359.53 408.947 1359.89 409.779 1360.53 410.377C1361.17 410.963 1362.01 411.256 1363.04 411.256C1364.19 411.256 1365.07 410.846 1365.7 410.025C1366.32 409.193 1366.63 408.021 1366.63 406.51C1366.63 405.057 1366.27 403.943 1365.55 403.17C1364.84 402.396 1363.83 402.01 1362.51 402.01C1361.31 402.01 1360.33 402.326 1359.58 402.959L1359.09 403.416L1355.04 402.414ZM1392.19 404.418C1392.19 407.957 1391.45 410.664 1389.99 412.539C1388.52 414.414 1386.38 415.352 1383.55 415.352C1380.77 415.352 1378.63 414.432 1377.16 412.592C1375.68 410.752 1374.92 408.115 1374.89 404.682V399.971C1374.89 396.396 1375.63 393.684 1377.1 391.832C1378.59 389.98 1380.73 389.055 1383.52 389.055C1386.31 389.055 1388.44 389.975 1389.92 391.814C1391.39 393.643 1392.15 396.273 1392.19 399.707V404.418ZM1387.11 399.25C1387.11 397.129 1386.81 395.588 1386.23 394.627C1385.65 393.654 1384.75 393.168 1383.52 393.168C1382.32 393.168 1381.44 393.631 1380.87 394.557C1380.3 395.471 1380 396.906 1379.97 398.863V405.086C1379.97 407.172 1380.25 408.725 1380.81 409.744C1381.39 410.752 1382.3 411.256 1383.55 411.256C1384.8 411.256 1385.69 410.77 1386.24 409.797C1386.79 408.824 1387.08 407.336 1387.11 405.332V399.25ZM1412.86 404.418C1412.86 407.957 1412.12 410.664 1410.66 412.539C1409.2 414.414 1407.05 415.352 1404.23 415.352C1401.44 415.352 1399.3 414.432 1397.83 412.592C1396.35 410.752 1395.6 408.115 1395.56 404.682V399.971C1395.56 396.396 1396.3 393.684 1397.78 391.832C1399.26 389.98 1401.4 389.055 1404.19 389.055C1406.98 389.055 1409.11 389.975 1410.59 391.814C1412.07 393.643 1412.82 396.273 1412.86 399.707V404.418ZM1407.78 399.25C1407.78 397.129 1407.48 395.588 1406.9 394.627C1406.32 393.654 1405.42 393.168 1404.19 393.168C1403 393.168 1402.11 393.631 1401.54 394.557C1400.97 395.471 1400.68 396.906 1400.64 398.863V405.086C1400.64 407.172 1400.92 408.725 1401.48 409.744C1402.06 410.752 1402.97 411.256 1404.23 411.256C1405.47 411.256 1406.37 410.77 1406.92 409.797C1407.47 408.824 1407.75 407.336 1407.78 405.332V399.25ZM1416.85 415V389.406H1425.81C1428.92 389.406 1431.27 390.004 1432.88 391.199C1434.48 392.383 1435.29 394.123 1435.29 396.42C1435.29 397.674 1434.96 398.781 1434.32 399.742C1433.68 400.691 1432.78 401.389 1431.63 401.834C1432.94 402.162 1433.97 402.824 1434.72 403.82C1435.49 404.816 1435.87 406.035 1435.87 407.477C1435.87 409.938 1435.08 411.801 1433.51 413.066C1431.94 414.332 1429.7 414.977 1426.8 415H1416.85ZM1422.12 403.855V410.764H1426.64C1427.88 410.764 1428.85 410.471 1429.54 409.885C1430.24 409.287 1430.59 408.467 1430.59 407.424C1430.59 405.08 1429.38 403.891 1426.96 403.855H1422.12ZM1422.12 400.129H1426.02C1428.68 400.082 1430.01 399.021 1430.01 396.947C1430.01 395.787 1429.67 394.955 1428.99 394.451C1428.33 393.936 1427.27 393.678 1425.81 393.678H1422.12V400.129ZM1455.98 396.209C1455.98 397.451 1455.67 398.553 1455.04 399.514C1454.42 400.475 1453.57 401.242 1452.48 401.816C1453.72 402.414 1454.71 403.24 1455.43 404.295C1456.16 405.338 1456.52 406.568 1456.52 407.986C1456.52 410.26 1455.75 412.059 1454.2 413.383C1452.65 414.695 1450.55 415.352 1447.89 415.352C1445.23 415.352 1443.12 414.689 1441.56 413.365C1440 412.041 1439.22 410.248 1439.22 407.986C1439.22 406.568 1439.59 405.332 1440.31 404.277C1441.04 403.223 1442.02 402.402 1443.25 401.816C1442.16 401.242 1441.3 400.475 1440.68 399.514C1440.07 398.553 1439.77 397.451 1439.77 396.209C1439.77 394.029 1440.5 392.295 1441.95 391.006C1443.4 389.705 1445.38 389.055 1447.87 389.055C1450.36 389.055 1452.33 389.699 1453.78 390.988C1455.24 392.266 1455.98 394.006 1455.98 396.209ZM1451.42 407.617C1451.42 406.504 1451.1 405.613 1450.46 404.945C1449.81 404.277 1448.95 403.943 1447.86 403.943C1446.78 403.943 1445.92 404.277 1445.27 404.945C1444.63 405.602 1444.3 406.492 1444.3 407.617C1444.3 408.707 1444.62 409.586 1445.25 410.254C1445.89 410.922 1446.77 411.256 1447.89 411.256C1448.99 411.256 1449.85 410.934 1450.47 410.289C1451.11 409.645 1451.42 408.754 1451.42 407.617ZM1450.9 396.455C1450.9 395.459 1450.63 394.662 1450.11 394.064C1449.58 393.455 1448.83 393.15 1447.87 393.15C1446.92 393.15 1446.19 393.443 1445.66 394.029C1445.13 394.615 1444.87 395.424 1444.87 396.455C1444.87 397.475 1445.13 398.295 1445.66 398.916C1446.19 399.537 1446.93 399.848 1447.89 399.848C1448.85 399.848 1449.59 399.537 1450.11 398.916C1450.63 398.295 1450.9 397.475 1450.9 396.455ZM1465.13 399.953H1467.84C1469.13 399.953 1470.09 399.631 1470.71 398.986C1471.33 398.342 1471.64 397.486 1471.64 396.42C1471.64 395.389 1471.33 394.586 1470.71 394.012C1470.1 393.438 1469.25 393.15 1468.18 393.15C1467.2 393.15 1466.39 393.42 1465.73 393.959C1465.08 394.486 1464.75 395.178 1464.75 396.033H1459.67C1459.67 394.697 1460.03 393.502 1460.74 392.447C1461.47 391.381 1462.47 390.549 1463.76 389.951C1465.06 389.354 1466.49 389.055 1468.05 389.055C1470.76 389.055 1472.88 389.705 1474.42 391.006C1475.95 392.295 1476.72 394.076 1476.72 396.35C1476.72 397.521 1476.36 398.6 1475.65 399.584C1474.93 400.568 1473.99 401.324 1472.83 401.852C1474.28 402.367 1475.35 403.141 1476.05 404.172C1476.77 405.203 1477.12 406.422 1477.12 407.828C1477.12 410.102 1476.29 411.924 1474.63 413.295C1472.97 414.666 1470.78 415.352 1468.05 415.352C1465.5 415.352 1463.41 414.678 1461.78 413.33C1460.16 411.982 1459.35 410.201 1459.35 407.986H1464.43C1464.43 408.947 1464.79 409.732 1465.5 410.342C1466.23 410.951 1467.12 411.256 1468.18 411.256C1469.38 411.256 1470.33 410.939 1471.01 410.307C1471.7 409.662 1472.04 408.812 1472.04 407.758C1472.04 405.203 1470.64 403.926 1467.82 403.926H1465.13V399.953Z" fill="black"/>
</svg>
