<svg width="1831" height="497" viewBox="0 0 1831 497" fill="none" xmlns="http://www.w3.org/2000/svg">
<rect x="35" y="60" width="274" height="274" rx="30" fill="#F4BD16"/>
<rect x="446" y="60" width="274" height="274" rx="30" fill="#0E2F41"/>
<rect x="857" y="60" width="274" height="274" rx="30" fill="#C9CED6"/>
<rect x="1268" y="60" width="274" height="274" rx="30" fill="white" stroke="black" stroke-miterlimit="0" stroke-linejoin="bevel"/>
<path d="M112.93 407.793H109.537L108.271 415H105.055L106.32 407.793H102.33V404.77H106.848L107.727 399.777H103.648V396.719H108.271L109.555 389.406H112.754L111.471 396.719H114.881L116.164 389.406H119.381L118.098 396.719H121.947V399.777H117.553L116.674 404.77H120.611V407.793H116.146L114.881 415H111.664L112.93 407.793ZM110.064 404.77H113.457L114.336 399.777H110.926L110.064 404.77ZM140.334 404.541H130.209V415H124.936V389.406H141.6V393.678H130.209V400.287H140.334V404.541ZM159.143 405.367H162.043V409.463H159.143V415H154.062V409.463H143.568L143.34 406.264L154.01 389.406H159.143V405.367ZM148.402 405.367H154.062V396.332L153.729 396.912L148.402 405.367ZM165.33 415V389.406H174.295C177.4 389.406 179.756 390.004 181.361 391.199C182.967 392.383 183.77 394.123 183.77 396.42C183.77 397.674 183.447 398.781 182.803 399.742C182.158 400.691 181.262 401.389 180.113 401.834C181.426 402.162 182.457 402.824 183.207 403.82C183.969 404.816 184.35 406.035 184.35 407.477C184.35 409.938 183.564 411.801 181.994 413.066C180.424 414.332 178.186 414.977 175.279 415H165.33ZM170.604 403.855V410.764H175.121C176.363 410.764 177.33 410.471 178.021 409.885C178.725 409.287 179.076 408.467 179.076 407.424C179.076 405.08 177.863 403.891 175.438 403.855H170.604ZM170.604 400.129H174.506C177.166 400.082 178.496 399.021 178.496 396.947C178.496 395.787 178.156 394.955 177.477 394.451C176.809 393.936 175.748 393.678 174.295 393.678H170.604V400.129ZM188.322 415V389.406H196.197C198.447 389.406 200.457 389.916 202.227 390.936C204.008 391.943 205.396 393.385 206.393 395.26C207.389 397.123 207.887 399.244 207.887 401.623V402.801C207.887 405.18 207.395 407.295 206.41 409.146C205.438 410.998 204.061 412.434 202.279 413.453C200.498 414.473 198.488 414.988 196.25 415H188.322ZM193.596 393.678V410.764H196.145C198.207 410.764 199.783 410.09 200.873 408.742C201.963 407.395 202.52 405.467 202.543 402.959V401.605C202.543 399.004 202.004 397.035 200.926 395.699C199.848 394.352 198.271 393.678 196.197 393.678H193.596ZM223.531 415H218.451V395.418L212.387 397.299V393.168L222.986 389.371H223.531V415ZM245.645 389.143V393.326H245.152C242.855 393.361 241.004 393.959 239.598 395.119C238.203 396.279 237.365 397.891 237.084 399.953C238.443 398.57 240.16 397.879 242.234 397.879C244.461 397.879 246.23 398.676 247.543 400.27C248.855 401.863 249.512 403.961 249.512 406.562C249.512 408.227 249.148 409.732 248.422 411.08C247.707 412.428 246.688 413.477 245.363 414.227C244.051 414.977 242.562 415.352 240.898 415.352C238.203 415.352 236.023 414.414 234.359 412.539C232.707 410.664 231.881 408.162 231.881 405.033V403.205C231.881 400.428 232.402 397.979 233.445 395.857C234.5 393.725 236.006 392.078 237.963 390.918C239.932 389.746 242.211 389.154 244.801 389.143H245.645ZM240.688 401.957C239.867 401.957 239.123 402.174 238.455 402.607C237.787 403.029 237.295 403.592 236.979 404.295V405.842C236.979 407.541 237.312 408.871 237.98 409.832C238.648 410.781 239.586 411.256 240.793 411.256C241.883 411.256 242.762 410.828 243.43 409.973C244.109 409.105 244.449 407.986 244.449 406.615C244.449 405.221 244.109 404.096 243.43 403.24C242.75 402.385 241.836 401.957 240.688 401.957Z" fill="black"/>
<path d="M522.672 407.793H519.279L518.014 415H514.797L516.062 407.793H512.072V404.77H516.59L517.469 399.777H513.391V396.719H518.014L519.297 389.406H522.496L521.213 396.719H524.623L525.906 389.406H529.123L527.84 396.719H531.689V399.777H527.295L526.416 404.77H530.354V407.793H525.889L524.623 415H521.406L522.672 407.793ZM519.807 404.77H523.199L524.078 399.777H520.668L519.807 404.77ZM551.359 404.418C551.359 407.957 550.627 410.664 549.162 412.539C547.697 414.414 545.553 415.352 542.729 415.352C539.939 415.352 537.807 414.432 536.33 412.592C534.854 410.752 534.098 408.115 534.062 404.682V399.971C534.062 396.396 534.801 393.684 536.277 391.832C537.766 389.98 539.904 389.055 542.693 389.055C545.482 389.055 547.615 389.975 549.092 391.814C550.568 393.643 551.324 396.273 551.359 399.707V404.418ZM546.279 399.25C546.279 397.129 545.986 395.588 545.4 394.627C544.826 393.654 543.924 393.168 542.693 393.168C541.498 393.168 540.613 393.631 540.039 394.557C539.477 395.471 539.178 396.906 539.143 398.863V405.086C539.143 407.172 539.424 408.725 539.986 409.744C540.561 410.752 541.475 411.256 542.729 411.256C543.971 411.256 544.867 410.77 545.418 409.797C545.969 408.824 546.256 407.336 546.279 405.332V399.25ZM570.748 403.908H560.623V410.764H572.506V415H555.35V389.406H572.471V393.678H560.623V399.777H570.748V403.908ZM592.598 415H575.055V411.52L583.334 402.695C584.471 401.453 585.309 400.369 585.848 399.443C586.398 398.518 586.674 397.639 586.674 396.807C586.674 395.67 586.387 394.779 585.812 394.135C585.238 393.479 584.418 393.15 583.352 393.15C582.203 393.15 581.295 393.549 580.627 394.346C579.971 395.131 579.643 396.168 579.643 397.457H574.545C574.545 395.898 574.914 394.475 575.652 393.186C576.402 391.896 577.457 390.889 578.816 390.162C580.176 389.424 581.717 389.055 583.439 389.055C586.076 389.055 588.121 389.688 589.574 390.953C591.039 392.219 591.771 394.006 591.771 396.314C591.771 397.58 591.443 398.869 590.787 400.182C590.131 401.494 589.006 403.023 587.412 404.77L581.594 410.904H592.598V415ZM611.67 404.541H601.545V415H596.271V389.406H612.936V393.678H601.545V400.287H611.67V404.541ZM630.479 405.367H633.379V409.463H630.479V415H625.398V409.463H614.904L614.676 406.264L625.346 389.406H630.479V405.367ZM619.738 405.367H625.398V396.332L625.064 396.912L619.738 405.367ZM648.461 415H643.381V395.418L637.316 397.299V393.168L647.916 389.371H648.461V415Z" fill="black"/>
<path d="M928.943 407.793H925.551L924.285 415H921.068L922.334 407.793H918.344V404.77H922.861L923.74 399.777H919.662V396.719H924.285L925.568 389.406H928.768L927.484 396.719H930.895L932.178 389.406H935.395L934.111 396.719H937.961V399.777H933.566L932.688 404.77H936.625V407.793H932.16L930.895 415H927.678L928.943 407.793ZM926.078 404.77H929.471L930.35 399.777H926.939L926.078 404.77ZM961.041 406.475C960.842 409.229 959.822 411.396 957.982 412.979C956.154 414.561 953.74 415.352 950.74 415.352C947.459 415.352 944.875 414.25 942.988 412.047C941.113 409.832 940.176 406.797 940.176 402.941V401.377C940.176 398.916 940.609 396.748 941.477 394.873C942.344 392.998 943.58 391.562 945.186 390.566C946.803 389.559 948.678 389.055 950.811 389.055C953.764 389.055 956.143 389.846 957.947 391.428C959.752 393.01 960.795 395.23 961.076 398.09H955.803C955.674 396.438 955.211 395.242 954.414 394.504C953.629 393.754 952.428 393.379 950.811 393.379C949.053 393.379 947.734 394.012 946.855 395.277C945.988 396.531 945.543 398.482 945.52 401.131V403.064C945.52 405.83 945.936 407.852 946.768 409.129C947.611 410.406 948.936 411.045 950.74 411.045C952.369 411.045 953.582 410.676 954.379 409.938C955.188 409.188 955.65 408.033 955.768 406.475H961.041ZM975.842 404.77C974.518 406.07 972.971 406.721 971.201 406.721C968.939 406.721 967.129 405.947 965.77 404.4C964.41 402.842 963.73 400.744 963.73 398.107C963.73 396.432 964.094 394.896 964.82 393.502C965.559 392.096 966.584 391.006 967.896 390.232C969.209 389.447 970.686 389.055 972.326 389.055C974.014 389.055 975.514 389.477 976.826 390.32C978.139 391.164 979.158 392.377 979.885 393.959C980.611 395.541 980.98 397.352 980.992 399.391V401.271C980.992 405.537 979.932 408.889 977.811 411.326C975.689 413.764 972.684 415.064 968.793 415.229L967.545 415.246V411.01L968.67 410.992C973.088 410.793 975.479 408.719 975.842 404.77ZM972.449 402.836C973.27 402.836 973.973 402.625 974.559 402.203C975.156 401.781 975.607 401.271 975.912 400.674V398.582C975.912 396.859 975.584 395.523 974.928 394.574C974.271 393.625 973.393 393.15 972.291 393.15C971.271 393.15 970.434 393.619 969.777 394.557C969.121 395.482 968.793 396.648 968.793 398.055C968.793 399.449 969.109 400.598 969.742 401.5C970.387 402.391 971.289 402.836 972.449 402.836ZM1005.27 406.475C1005.07 409.229 1004.05 411.396 1002.21 412.979C1000.38 414.561 997.967 415.352 994.967 415.352C991.686 415.352 989.102 414.25 987.215 412.047C985.34 409.832 984.402 406.797 984.402 402.941V401.377C984.402 398.916 984.836 396.748 985.703 394.873C986.57 392.998 987.807 391.562 989.412 390.566C991.029 389.559 992.904 389.055 995.037 389.055C997.99 389.055 1000.37 389.846 1002.17 391.428C1003.98 393.01 1005.02 395.23 1005.3 398.09H1000.03C999.9 396.438 999.438 395.242 998.641 394.504C997.855 393.754 996.654 393.379 995.037 393.379C993.279 393.379 991.961 394.012 991.082 395.277C990.215 396.531 989.77 398.482 989.746 401.131V403.064C989.746 405.83 990.162 407.852 990.994 409.129C991.838 410.406 993.162 411.045 994.967 411.045C996.596 411.045 997.809 410.676 998.605 409.938C999.414 409.188 999.877 408.033 999.994 406.475H1005.27ZM1024.13 403.908H1014V410.764H1025.89V415H1008.73V389.406H1025.85V393.678H1014V399.777H1024.13V403.908ZM1028.98 415V389.406H1036.86C1039.11 389.406 1041.12 389.916 1042.88 390.936C1044.67 391.943 1046.05 393.385 1047.05 395.26C1048.05 397.123 1048.54 399.244 1048.54 401.623V402.801C1048.54 405.18 1048.05 407.295 1047.07 409.146C1046.1 410.998 1044.72 412.434 1042.94 413.453C1041.16 414.473 1039.15 414.988 1036.91 415H1028.98ZM1034.25 393.678V410.764H1036.8C1038.87 410.764 1040.44 410.09 1041.53 408.742C1042.62 407.395 1043.18 405.467 1043.2 402.959V401.605C1043.2 399.004 1042.66 397.035 1041.58 395.699C1040.51 394.352 1038.93 393.678 1036.86 393.678H1034.25ZM1065.63 389.143V393.326H1065.14C1062.84 393.361 1060.99 393.959 1059.58 395.119C1058.19 396.279 1057.35 397.891 1057.07 399.953C1058.43 398.57 1060.15 397.879 1062.22 397.879C1064.45 397.879 1066.22 398.676 1067.53 400.27C1068.84 401.863 1069.5 403.961 1069.5 406.562C1069.5 408.227 1069.13 409.732 1068.41 411.08C1067.69 412.428 1066.67 413.477 1065.35 414.227C1064.04 414.977 1062.55 415.352 1060.88 415.352C1058.19 415.352 1056.01 414.414 1054.35 412.539C1052.69 410.664 1051.87 408.162 1051.87 405.033V403.205C1051.87 400.428 1052.39 397.979 1053.43 395.857C1054.49 393.725 1055.99 392.078 1057.95 390.918C1059.92 389.746 1062.2 389.154 1064.79 389.143H1065.63ZM1060.67 401.957C1059.85 401.957 1059.11 402.174 1058.44 402.607C1057.77 403.029 1057.28 403.592 1056.96 404.295V405.842C1056.96 407.541 1057.3 408.871 1057.97 409.832C1058.63 410.781 1059.57 411.256 1060.78 411.256C1061.87 411.256 1062.75 410.828 1063.42 409.973C1064.1 409.105 1064.44 407.986 1064.44 406.615C1064.44 405.221 1064.1 404.096 1063.42 403.24C1062.74 402.385 1061.82 401.957 1060.67 401.957Z" fill="black"/>
<path d="M1346.83 407.793H1343.44L1342.18 415H1338.96L1340.22 407.793H1336.23V404.77H1340.75L1341.63 399.777H1337.55V396.719H1342.18L1343.46 389.406H1346.66L1345.38 396.719H1348.79L1350.07 389.406H1353.29L1352 396.719H1355.85V399.777H1351.46L1350.58 404.77H1354.52V407.793H1350.05L1348.79 415H1345.57L1346.83 407.793ZM1343.97 404.77H1347.36L1348.24 399.777H1344.83L1343.97 404.77ZM1374.24 404.541H1364.11V415H1358.84V389.406H1375.5V393.678H1364.11V400.287H1374.24V404.541ZM1393.96 404.541H1383.84V415H1378.56V389.406H1395.23V393.678H1383.84V400.287H1393.96V404.541ZM1413.68 404.541H1403.56V415H1398.29V389.406H1414.95V393.678H1403.56V400.287H1413.68V404.541ZM1433.41 404.541H1423.28V415H1418.01V389.406H1434.67V393.678H1423.28V400.287H1433.41V404.541ZM1453.13 404.541H1443V415H1437.73V389.406H1454.39V393.678H1443V400.287H1453.13V404.541ZM1472.85 404.541H1462.73V415H1457.45V389.406H1474.12V393.678H1462.73V400.287H1472.85V404.541Z" fill="black"/>
</svg>
